<svg height="24" viewBox="0 0 24 24" width="24" xmlns="http://www.w3.org/2000/svg"><path d="m21 10.78v-2.78c0-1.65-1.35-3-3-3h-4c-.77 0-1.47.3-2 .78-.53-.48-1.23-.78-2-.78h-4c-1.65 0-3 1.35-3 3v2.78c-.61.55-1 1.34-1 2.22v5c0 .55.45 1 1 1 .55 0 1-.45 1-1v-1h16v1c0 .55.45 1 1 1 .55 0 1-.45 1-1v-5c0-.88-.39-1.67-1-2.22zm-7-3.78h4c.55 0 1 .45 1 1v2h-6v-2c0-.55.45-1 1-1zm-9 1c0-.55.45-1 1-1h4c.55 0 1 .45 1 1v2h-6zm-1 7v-2c0-.55.45-1 1-1h14c.55 0 1 .45 1 1v2z" fill="#3f3f3f" fill-rule="evenodd"/></svg>