<svg height="24" viewBox="0 0 24 24" width="24" xmlns="http://www.w3.org/2000/svg"><path d="m20 2c1.1 0 2 .9 2 2v16c0 1.1-.9 2-2 2h-16c-1.1 0-2-.9-2-2v-16c0-1.1.9-2 2-2zm-10.64 4.99s-3.36-.08-3.36.03c-.02.26.79.57.79.57.11.08.13.25.04.36-.21.24-.56.65-.86.98-.27.31-.26.78.03 1.08l.01.02c.26.28.67.33.99.12l1-.65v3.99l-.83 1.46c-.21-.15-.41-.3-.6-.46-.3-.25-.74-.23-1.01.04l-.07063657.0816146c-.23387732.3133854-.19186343.7717187.11063657 1.0283854 1.79 1.52 4.03 2.35 6.4 2.35s4.61-.83 6.41-2.35c.33-.29.35-.8.04-1.11l-.08822-.07348c-.27648-.19782-.65178-.19152-.92178.03348-.2.16-.4.31-.6.46l-.84-1.46v-2.5h.49c.28 0 .5-.22.5-.5l-.0079287-.0908916c-.0417009-.2352812-.2431824-.4091084-.4920713-.4091084h-4.83c-.18 0-.34-.1-.43-.25l-1.44-2.5c-.09-.15-.25-.25-.43-.25zm5.33 7.25.81 1.41.03.06c-1.1.51-2.3.79-3.55.79s-2.43-.27-3.53-.79l.03-.06.81-1.41c1.74.65 3.66.65 5.4 0z" fill="#3f3f3f" fill-rule="evenodd"/></svg>