<svg height="24" viewBox="0 0 24 24" width="24" xmlns="http://www.w3.org/2000/svg"><path d="m20 2c1.1 0 2 .9 2 2v16c0 1.1-.9 2-2 2h-16c-1.1 0-2-.9-2-2v-16c0-1.1.9-2 2-2zm-9 5h-3.35c-1.1 0-2 .9-2 2v2.45c-.4.46-.65 1.06-.65 1.72v3.08c0 .41.34.75.75.75l.10088542-.0069271c.36342014-.0502257.64911458-.3672396.64911458-.7430729v-.75h11v.75c0 .41.34.75.75.75l.1008854-.0069271c.3634202-.0502257.6491146-.3672396.6491146-.7430729v-3.08c0-.66-.25-1.26-.65-1.72v-2.45c0-1.1-.9-2-2-2h-3.35c-.37 0-.72.12-1 .32-.28-.2-.63-.32-1-.32zm5.5 5c.55 0 1 .45 1 1v1h-11v-1c0-.55.45-1 1-1zm-5.25-3.5v2h-4v-2zm5.5 0v2h-4v-2z" fill="#3f3f3f" fill-rule="evenodd"/></svg>