<svg height="24" viewBox="0 0 24 24" width="24" xmlns="http://www.w3.org/2000/svg"><path d="m20 2c1.1 0 2 .9 2 2v16c0 1.1-.9 2-2 2h-16c-1.1 0-2-.9-2-2v-16c0-1.1.9-2 2-2zm-5.5 5h-5c-1.1 0-2 .9-2 2v1.67c-.88.35-1.5 1.2-1.5 2.2v3.38c0 .41.34.75.75.75l.10088542-.0069271c.36342014-.0502257.64911458-.3672396.64911458-.7430729v-.75h9v.75c0 .41.34.75.75.75l.1008854-.0069271c.3634202-.0502257.6491146-.3672396.6491146-.7430729v-3.38c0-1-.62-1.85-1.5-2.2v-1.67c0-1.1-.9-2-2-2zm1.14 5c.48 0 .87.39.87.87v1.13h-9v-1.13h-.01c0-.48.39-.87.87-.87zm-.64-3.5v2h-6v-2z" fill="#3f3f3f" fill-rule="evenodd"/></svg>