<svg height="24" viewBox="0 0 24 24" width="24" xmlns="http://www.w3.org/2000/svg"><path d="m19 2c.55 0 1 .45 1 1l-.0067602.11619898c-.0580357.49579082-.4825255.88380102-.9932398.88380102h-1v2c0 .55-.45 1-1 1h-8c-.55 0-1-.45-1-1v-2h-2v16h4.03c-1.22-.91-2.03-2.36-2.03-4v-3c0-1.1.9-2 2-2h6c1.1 0 2 .9 2 2v3c0 1.64-.8 3.09-2.03 4h3.03c.55 0 1 .45 1 1l-.0067602.116199c-.0580357.4957908-.4825255.883801-.9932398.883801h-13c-1.1 0-2-.9-2-2v-16c0-1.1.9-2 2-2zm-6 6c.5522847 0 1 .44771525 1 1s-.4477153 1-1 1-1-.44771525-1-1 .4477153-1 1-1z" fill="#3f3f3f" fill-rule="evenodd"/></svg>