<svg height="24" viewBox="0 0 24 24" width="24" xmlns="http://www.w3.org/2000/svg"><path d="m20 2h-16c-1.1 0-2 .9-2 2v16c0 1.1.9 2 2 2h16c1.1 0 2-.9 2-2v-16c0-1.1-.9-2-2-2zm-9 8.3c0 .93-.64 1.71-1.5 1.93v6.02c0 .41-.34.75-.75.75-.41 0-.75-.34-.75-.75v-6.02c-.86-.22-1.5-1-1.5-1.93v-3.8c0-.28.22-.5.5-.5s.5.22.5.5v2.5h.75v-2.5c0-.28.22-.5.5-.5s.5.22.5.5v2.5h.75v-2.5c0-.28.23-.5.5-.5.28 0 .5.22.5.5zm4.58 2.29-.08.03v5.63c0 .41-.34.75-.75.75-.41 0-.75-.34-.75-.75v-5.63l-.08-.04c-.97-.47-1.67-1.7-1.67-3.18 0-1.88 1.13-3.4 2.5-3.4 1.38 0 2.5 1.53 2.5 3.41 0 1.48-.7 2.71-1.67 3.18z" fill="#3f3f3f" fill-rule="evenodd"/></svg>