<svg height="24" viewBox="0 0 24 24" width="24" xmlns="http://www.w3.org/2000/svg"><path d="m16 7.08c0 1.77-.84 3.25-2 3.82v9.1c0 .55-.45 1-1 1-.55 0-1-.45-1-1v-9.1c-1.16-.57-2-2.05-2-3.82.01-2.25 1.35-4.08 3-4.08 1.66 0 3 1.83 3 4.08zm2.27-3.9c-.63-.19-1.27.31-1.27.97v15.85c0 .55.45 1 1 1 .55 0 1-.45 1-1v-7h1c.55 0 1-.45 1-1v-5c0-1.46-.86-3.26-2.73-3.82zm-9.99-.18c-.4 0-.72.32-.72.72v3.28h-.84v-3.28c0-.4-.32-.72-.72-.72s-.72.32-.72.72v3.28h-.84v-3.28c0-.4-.32-.72-.72-.72s-.72.32-.72.72v5.28c0 1.1.9 2 2 2v9c0 .55.45 1 1 1 .55 0 1-.45 1-1v-9c1.1 0 2-.9 2-2v-5.28c0-.4-.32-.72-.72-.72z" fill="#3f3f3f" fill-rule="evenodd"/></svg>