<svg height="24" viewBox="0 0 24 24" width="24" xmlns="http://www.w3.org/2000/svg"><path d="m20 2c1.1 0 2 .9 2 2v16c0 1.1-.9 2-2 2h-16c-1.1 0-2-.9-2-2v-16c0-1.1.9-2 2-2zm-3.7119898 3.50033528-8.5760204.00000364c-.06831633.00374271-.55913266.04751822-.9119898.53966108-.02.02-.03.04-.05.06-.07.11-.14.24-.19.4-.22.66-.74 2.22-1.56 4.69v6.5c0 .45.35.81.78.81h.44c.43 0 .78-.36.78-.81v-1.19h10v1.19c0 .45.34.81.78.81h.44c.43 0 .78-.36.78-.81v-6.5c-.2236364-.6709091-.4249587-1.27561983-.6039669-1.81372652l-.1715703-.51589031c-.3829752-1.15187077-.6444628-1.94038317-.7844628-2.36038317-.05-.16-.12-.29-.19-.4-.02-.02-.03-.04-.05-.07-.38-.52-.92-.53-.92-.53zm-1.2880102 6.49966472c.5522847 0 1 .4477153 1 1s-.4477153 1-1 1-1-.4477153-1-1 .4477153-1 1-1zm-6 0c.55228475 0 1 .4477153 1 1s-.44771525 1-1 1-1-.4477153-1-1 .44771525-1 1-1zm6.67-4.5.66 2h-8.66l.66-2z" fill="#3f3f3f" fill-rule="evenodd"/></svg>