<svg height="24" viewBox="0 0 24 24" width="24" xmlns="http://www.w3.org/2000/svg"><path d="m20 2c1.1 0 2 .9 2 2v16c0 1.1-.9 2-2 2h-16c-1.1 0-2-.9-2-2v-16c0-1.1.9-2 2-2zm-5.25 4h-5.5c-1.66 0-3 1.34-3 3v1.35c-.74.43-1.25 1.23-1.25 2.15v3.5c0 1.1.9 2 2 2h10c1.1 0 2-.9 2-2v-3.5c0-.92-.51-1.72-1.25-2.15v-1.35c0-1.66-1.34-3-3-3zm1.75 5.5c.55 0 1 .45 1 1v3.5c0 .28-.22.5-.5.5h-10c-.28 0-.5-.22-.5-.5v-3.5c0-.55.45-1 1-1s1 .45 1 1v2h7v-2c0-.55.45-1 1-1zm-1.75-4c.83 0 1.5.67 1.5 1.5v1.03c-1.26.12-2.25 1.17-2.25 2.47v.5h-4v-.5c0-1.3-.99-2.35-2.25-2.47v-1.03c0-.83.67-1.5 1.5-1.5z" fill="#3f3f3f" fill-rule="evenodd"/></svg>