<svg height="24" viewBox="0 0 24 24" width="24" xmlns="http://www.w3.org/2000/svg"><path d="m6 9h-3c-.55 0-1-.45-1-1 0-.55.45-1 1-1h3c.55 0 1 .45 1 1 0 .55-.45 1-1 1zm0 3h-3c-.55 0-1 .45-1 1 0 .55.45 1 1 1h3c.55 0 1-.45 1-1 0-.55-.45-1-1-1zm13.88 6.29-3.12-3.12c-.86.56-1.89.88-3 .82-2.37-.11-4.4-1.96-4.72-4.31-.44-3.35 2.45-6.18 5.83-5.61 1.95.33 3.57 1.85 4 3.78.33 1.46.01 2.82-.7 3.9l3.13 3.13c.39.39.39 1.02 0 1.41-.39.39-1.03.39-1.42 0zm-2.88-7.29c0-1.65-1.35-3-3-3s-3 1.35-3 3 1.35 3 3 3 3-1.35 3-3zm-14 8h8c.55 0 1-.45 1-1 0-.55-.45-1-1-1h-8c-.55 0-1 .45-1 1 0 .55.45 1 1 1z" fill="#3f3f3f" fill-rule="evenodd"/></svg>