<svg height="24" viewBox="0 0 24 24" width="24" xmlns="http://www.w3.org/2000/svg"><path d="m20 2c1.1 0 2 .9 2 2v16c0 1.1-.9 2-2 2h-16c-1.1 0-2-.9-2-2v-16c0-1.1.9-2 2-2zm-8 17c2.83 0 5.21-1.97 5.84-4.61.17-.74-.49-1.41-1.23-1.23-2.64.63-4.61 3.01-4.61 5.84v-.021l-.0050794-.227505c-.1080073-2.6375575-1.9271972-4.8426297-4.37375125-5.5313983l-.23116935-.0600967c-.74-.17-1.41.49-1.23 1.23.63 2.64 3.01 4.61 5.84 4.61zm0-13.74c-.86 0-1.56.7-1.56 1.56l.01.12c-.25-.18-.56-.28-.89-.28-.86 0-1.56.7-1.56 1.56 0 .62.37 1.16.89 1.41-.52.24-.89.78-.89 1.4 0 .86.7 1.56 1.56 1.56.33 0 .63-.1.89-.28l-.01.12c0 .86.7 1.56 1.56 1.56s1.56-.7 1.56-1.56l-.01-.12c.25.17.56.28.89.28.86 0 1.56-.7 1.56-1.56 0-.62-.37-1.16-.89-1.41.52-.24.89-.78.89-1.4 0-.86-.7-1.56-1.56-1.56-.33 0-.63.1-.89.28l.01-.12c0-.86-.7-1.56-1.56-1.56zm0 2.8c.8615642 0 1.56.69843579 1.56 1.56 0 .8615642-.6984358 1.56-1.56 1.56s-1.56-.6984358-1.56-1.56c0-.86156421.6984358-1.56 1.56-1.56z" fill="#3f3f3f" fill-rule="evenodd"/></svg>