<svg height="24" viewBox="0 0 24 24" width="24" xmlns="http://www.w3.org/2000/svg"><path d="m11.71 17.99c-3.18-.15-5.71-2.77-5.71-5.99 0-3.31 2.69-6 6-6 3.22 0 5.84 2.53 5.99 5.71l-2.1-.63c-.41-1.77-2-3.08-3.89-3.08-2.21 0-4 1.79-4 4 0 1.89 1.31 3.48 3.08 3.89zm10.29-5.99c0 .3-.01.6-.04.9l-1.97-.59c.01-.1.01-.21.01-.31 0-4.42-3.58-8-8-8s-8 3.58-8 8 3.58 8 8 8c.1 0 .21 0 .31-.01l.59 1.97c-.3.03-.6.04-.9.04-5.52 0-10-4.48-10-10s4.48-10 10-10 10 4.48 10 10zm-3.77 4.26 2.27-.76c.46-.15.45-.81-.01-.95l-7.6-2.28c-.38-.11-.74.24-.62.62l2.28 7.6c.14.47.8.48.95.01l.76-2.27 3.91 3.91c.2.2.51.2.71 0l1.27-1.27c.2-.2.2-.51 0-.71z" fill="#3f3f3f" fill-rule="evenodd"/></svg>