<svg height="24" viewBox="0 0 24 24" width="24" xmlns="http://www.w3.org/2000/svg"><path d="m17 1h-10c-1.1 0-2 .9-2 2v18c0 1.1.9 2 2 2h10c1.1 0 2-.9 2-2v-18c0-1.1-.9-2-2-2zm-10 5h10v12h-10zm9 5v-1.86c0-.63-.45-1.14-1-1.14h-6c-.55 0-1 .51-1 1.14v1.96c.55 0 1 .45 1 1s-.45 1-1 1v1.76c0 .63.45 1.14 1 1.14h6c.55 0 1-.51 1-1.14v-1.86c-.55 0-1-.45-1-1s.45-1 1-1zm-4 3.5c-.28 0-.5-.22-.5-.5 0-.28.22-.5.5-.5.28 0 .5.22.5.5 0 .28-.22.5-.5.5zm0-2c-.28 0-.5-.22-.5-.5 0-.28.22-.5.5-.5.28 0 .5.22.5.5 0 .28-.22.5-.5.5zm0-2c-.28 0-.5-.22-.5-.5 0-.28.22-.5.5-.5.28 0 .5.22.5.5 0 .28-.22.5-.5.5z" fill="#3f3f3f" fill-rule="evenodd"/></svg>