<svg height="24" viewBox="0 0 24 24" width="24" xmlns="http://www.w3.org/2000/svg"><path d="m19.17 12-3.88-3.88c-.39-.39-.39-1.02 0-1.41.39-.39 1.02-.39 1.41 0l4.59 4.59c.39.39.39 1.02 0 1.41l-2.88 2.88-1.41-1.42zm-17.07-7.07 3.49 3.49-2.88 2.88c-.39.39-.39 1.02 0 1.41l4.59 4.59c.39.39 1.02.39 1.41 0 .39-.39.39-1.02 0-1.41l-3.88-3.89 2.17-2.17 12.07 12.07c.39.39 1.02.39 1.41 0 .39-.39.39-1.02 0-1.41l-16.97-16.98c-.39-.39-1.02-.39-1.41 0-.39.4-.39 1.03 0 1.42z" fill="#3f3f3f" fill-rule="evenodd"/></svg>