<svg height="24" viewBox="0 0 24 24" width="24" xmlns="http://www.w3.org/2000/svg"><path d="m11.64 15.36c.2-.2.51-.2.71 0l2.79 2.79c.32.31.1.85-.35.85h-1.79v2c0 .55-.45 1-1 1l-.116199-.0067602c-.4957908-.0580357-.883801-.4825255-.883801-.9932398v-2h-1.79c-.45 0-.67-.54-.36-.85zm7.36-3.36c.55 0 1 .45 1 1l-.0067602.116199c-.0580357.4957908-.4825255.883801-.9932398.883801h-14c-.55 0-1-.45-1-1l.0067602-.116199c.05803572-.4957908.48252551-.883801.9932398-.883801zm0-3c.55 0 1 .45 1 1l-.0067602.116199c-.0580357.4957908-.4825255.883801-.9932398.883801h-14c-.55 0-1-.45-1-1l.0067602-.11619898c.05803572-.49579082.48252551-.88380102.9932398-.88380102zm-7-8 .116199.0067602c.4957908.05803572.883801.48252551.883801.9932398v2h1.79c.45 0 .67.54.35.85l-2.79 2.79c-.2.2-.51.2-.71 0l-2.79-2.79c-.31-.31-.09-.85.36-.85h1.79v-2c0-.55.45-1 1-1z" fill="#3f3f3f" fill-rule="evenodd"/></svg>