<svg height="24" viewBox="0 0 24 24" width="24" xmlns="http://www.w3.org/2000/svg"><path d="m14.9 3h-5.8c-.53 0-1.04.21-1.42.59l-4.1 4.1c-.37.37-.58.88-.58 1.41v5.8c0 .53.21 1.04.59 1.41l4.1 4.1c.37.38.88.59 1.41.59h5.8c.53 0 1.04-.21 1.41-.59l4.1-4.1c.38-.37.59-.88.59-1.41v-5.8c0-.53-.21-1.04-.59-1.41l-4.1-4.1c-.37-.38-.88-.59-1.41-.59zm.64 12.54c-.39.39-1.02.39-1.41 0l-2.13-2.13-2.12 2.12c-.39.39-1.02.39-1.41 0-.39-.39-.39-1.02 0-1.41l2.12-2.12-2.13-2.12c-.39-.39-.39-1.02 0-1.41.39-.39 1.02-.39 1.41 0l2.13 2.12 2.12-2.12c.39-.39 1.02-.39 1.41 0 .39.39.39 1.02 0 1.41l-2.12 2.12 2.12 2.12c.4.39.4 1.03.01 1.42z" fill="#3f3f3f" fill-rule="evenodd"/></svg>