<svg height="24" viewBox="0 0 24 24" width="24" xmlns="http://www.w3.org/2000/svg"><path d="m21.99 12.34c.01-.11.01-.23.01-.34 0-5.52-4.48-10-10-10s-10 4.48-10 10c0 5.17 3.93 9.43 8.96 9.95-.93-.73-1.72-1.64-2.32-2.68-2.74-1.27-4.64-4.05-4.64-7.27 0-1.85.63-3.55 1.69-4.9l5.66 5.66c.56-.4 1.17-.73 1.82-1l-6.07-6.07c1.35-1.06 3.05-1.69 4.9-1.69 4.24 0 7.7 3.29 7.98 7.45.71.22 1.39.52 2.01.89zm-4.99.66c-3.18 0-5.9 1.87-7 4.5 1.1 2.63 3.82 4.5 7 4.5s5.9-1.87 7-4.5c-1.1-2.63-3.82-4.5-7-4.5zm0 7c-1.38 0-2.5-1.12-2.5-2.5s1.12-2.5 2.5-2.5 2.5 1.12 2.5 2.5-1.12 2.5-2.5 2.5zm1.5-2.5c0 .83-.67 1.5-1.5 1.5s-1.5-.67-1.5-1.5.67-1.5 1.5-1.5 1.5.67 1.5 1.5z" fill="#3f3f3f" fill-rule="evenodd"/></svg>