<svg height="24" viewBox="0 0 24 24" width="24" xmlns="http://www.w3.org/2000/svg"><path d="m2.19404643 3.42692308c.3915157-.30461539.9567228-.27692308 1.32595357.08307692l16.95 16.98c.39.39.39 1.02 0 1.41l-.0940419.0830769c-.3914611.3046154-.9559581.2769231-1.3159581-.0830769l-6.61-6.61-5.56 5.56c-.09.1-.22.15-.35.15h-3.04c-.28 0-.5-.22-.5-.5v-3.04c0-.14.05-.26.15-.36l5.56-5.57-6.61-6.61c-.39-.39-.39-1.02 0-1.41zm11.85840557 2.76553892 3.74763 3.74763-2.517276 2.517276-3.74763-3.74763zm2.907548-2.902462c.39-.39 1.02-.39 1.41 0l2.34 2.34c.39.39.39 1.02 0 1.41l-1.83 1.83-3.75-3.75z" fill="#3f3f3f" fill-rule="evenodd"/></svg>