<svg height="24" viewBox="0 0 24 24" width="24" xmlns="http://www.w3.org/2000/svg"><path d="m20.49 21.9c-.39.39-1.02.39-1.41 0l-.92-.92c-.06 0-.11.02-.16.02h-3.8c0-2.71-2.16-3-2.7-3s-2.7.29-2.7 3h-3.8c-1.1 0-2-.9-2-2v-3.8c2.71 0 3-2.16 3-2.7s-.3-2.7-2.99-2.7v-3.8c0-.05.02-.09.02-.14l-.93-.93c-.39-.39-.39-1.02 0-1.41.39-.39 1.02-.39 1.41 0l16.97 16.97c.4.39.4 1.02.01 1.41zm-.49-4.73v-2.17c1.38 0 2.5-1.12 2.5-2.5s-1.12-2.5-2.5-2.5v-4c0-1.1-.9-2-2-2h-4c0-1.38-1.12-2.5-2.5-2.5s-2.5 1.12-2.5 2.5h-2.17z" fill="#3f3f3f" fill-rule="evenodd"/></svg>