<svg height="24" viewBox="0 0 24 24" width="24" xmlns="http://www.w3.org/2000/svg"><path d="m13.17 2h-7.17c-1.1 0-2 .9-2 2v16c0 1.1.9 2 2 2h12c1.1 0 2-.9 2-2v-11.17c0-.53-.21-1.04-.59-1.41l-4.83-4.83c-.37-.38-.88-.59-1.41-.59zm2.83 13c0 2.34-2.01 4.21-4.39 3.98-2.08-.2-3.61-2.06-3.61-4.15v-5.19c0-1.31.94-2.5 2.24-2.63 1.5-.15 2.76 1.02 2.76 2.49v4.5c0 .55-.45 1-1 1-.55 0-1-.45-1-1v-4.5c0-.28-.22-.5-.5-.5s-.5.22-.5.5v5.39c0 1 .68 1.92 1.66 2.08 1.26.21 2.34-.76 2.34-1.97v-3c0-.55.45-1 1-1 .55 0 1 .45 1 1zm-2-8v-3l4 4h-3c-.55 0-1-.45-1-1z" fill="#3f3f3f" fill-rule="evenodd"/></svg>