<svg height="24" viewBox="0 0 24 24" width="24" xmlns="http://www.w3.org/2000/svg"><path d="m18 4h2c1.1 0 2 .9 2 2v2c0 .55-.45 1-1 1-.55 0-1-.45-1-1v-2h-2c-.55 0-1-.45-1-1 0-.55.45-1 1-1zm-14 4v-2h2c.55 0 1-.45 1-1 0-.55-.45-1-1-1h-2c-1.1 0-2 .9-2 2v2c0 .55.45 1 1 1 .55 0 1-.45 1-1zm16 8v2h-2c-.55 0-1 .45-1 1 0 .55.45 1 1 1h2c1.1 0 2-.9 2-2v-2c0-.55-.45-1-1-1-.55 0-1 .45-1 1zm-14 2h-2v-2c0-.55-.45-1-1-1-.55 0-1 .45-1 1v2c0 1.1.9 2 2 2h2c.55 0 1-.45 1-1 0-.55-.45-1-1-1zm10-10h-8c-1.1 0-2 .9-2 2v4c0 1.1.9 2 2 2h8c1.1 0 2-.9 2-2v-4c0-1.1-.9-2-2-2z" fill="#3f3f3f" fill-rule="evenodd"/></svg>