<svg height="24" viewBox="0 0 24 24" width="24" xmlns="http://www.w3.org/2000/svg"><path d="m9 4c-4.42 0-8 3.58-8 8s3.58 8 8 8 8-3.58 8-8-3.58-8-8-8zm0 11.5c-.55 0-1-.45-1-1v-4h-1.25c-.41 0-.75-.34-.75-.75s.34-.75.75-.75h4.5c.41 0 .75.34.75.75s-.34.75-.75.75h-1.25v4c0 .55-.45 1-1 1zm11.25-11.75 1.75.79c.39.18.39.73 0 .91l-1.75.79-.79 1.76c-.18.39-.73.39-.91 0l-.79-1.75-1.76-.79c-.39-.18-.39-.73 0-.91l1.75-.79.79-1.76c.18-.39.73-.39.91 0zm0 14 1.75.79c.39.18.39.73 0 .91l-1.75.79-.79 1.76c-.18.39-.73.39-.91 0l-.79-1.75-1.76-.79c-.39-.18-.39-.73 0-.91l1.75-.79.79-1.76c.18-.39.73-.39.91 0z" fill="#3f3f3f" fill-rule="evenodd"/></svg>