<svg height="24" viewBox="0 0 24 24" width="24" xmlns="http://www.w3.org/2000/svg"><path d="m2.1 3.51c-.39.39-.39 1.03 0 1.42l1.56 1.56c-1.25 1.88-1.88 4.2-1.59 6.69.52 4.54 4.21 8.23 8.75 8.75 2.49.29 4.81-.34 6.69-1.59l1.56 1.56c.39.39 1.02.39 1.41 0 .39-.39.39-1.02 0-1.41l-16.97-16.98c-.39-.39-1.02-.39-1.41 0zm9.9 16.49c-4.41 0-8-3.59-8-8 0-1.48.41-2.86 1.12-4.06l10.94 10.94c-1.2.71-2.58 1.12-4.06 1.12zm-4.06-14.88-1.45-1.46c1.58-1.05 3.47-1.66 5.51-1.66 5.52 0 10 4.48 10 10 0 2.04-.61 3.93-1.66 5.51l-1.46-1.46c.71-1.19 1.12-2.57 1.12-4.05 0-4.41-3.59-8-8-8-1.48 0-2.86.41-4.06 1.12z" fill="#3f3f3f" fill-rule="evenodd"/></svg>