<svg height="24" viewBox="0 0 24 24" width="24" xmlns="http://www.w3.org/2000/svg"><path d="m18 13c2.76 0 5 2.24 5 5s-2.24 5-5 5-5-2.24-5-5 2.24-5 5-5zm-6-12c2.76 0 5 2.24 5 5v2h1c1.1 0 2 .9 2 2v1.29c-.63-.19-1.3-.29-2-.29-3.87 0-7 3.13-7 7 0 1.49.47 2.87 1.26 4h-6.26c-1.1 0-2-.9-2-2v-10c0-1.1.9-2 2-2h1v-2c0-2.76 2.24-5 5-5zm5.99 14-.0908916.0079287c-.2352812.0417009-.4091084.2431824-.4091084.4920713v2.5c0 .13.06.26.15.35l1.65 1.65c.2.2.51.2.71 0s.2-.51-.01-.71l-1.5-1.5v-2.29c0-.28-.22-.5-.5-.5zm-5.99-12c-1.66 0-3 1.34-3 3v2h6v-2c0-1.66-1.34-3-3-3z" fill="#3f3f3f" fill-rule="evenodd"/></svg>