<svg height="24" viewBox="0 0 24 24" width="24" xmlns="http://www.w3.org/2000/svg"><path d="m11 3c.55 0 1 .45 1 1l-.0067602.11619898c-.0580357.49579082-.4825255.88380102-.9932398.88380102h-6v14h6c.55 0 1 .45 1 1l-.0067602.116199c-.0580357.4957908-.4825255.883801-.9932398.883801h-6c-1.1 0-2-.9-2-2v-14c0-1.1.9-2 2-2zm6 6.21c0-.45.54-.67.86-.35l2.79 2.79c.19.19.19.51-.01.7l-2.79 2.79c-.31.32-.85.1-.85-.35v-1.79h-7c-.55 0-1-.45-1-1l.0067602-.116199c.05803572-.4957908.48252551-.883801.9932398-.883801h7z" fill="#3f3f3f" fill-rule="evenodd"/></svg>