<svg height="24" viewBox="0 0 24 24" width="24" xmlns="http://www.w3.org/2000/svg"><path d="m17.6 11.01c.24 0 .44.17.49.4l.22 1.09c.4.15.76.36 1.08.63l1.06-.36c.22-.08.47.01.59.22l.59 1.02c.12.21.08.47-.1.63l-.84.73c.03.21.06.41.06.63s-.03.42-.06.63l.84.73c.18.16.22.42.1.63l-.59 1.02c-.12.2-.36.3-.59.22l-1.06-.36c-.32.27-.68.48-1.08.63l-.22 1.09c-.05.23-.25.4-.49.4h-1.18c-.24 0-.44-.17-.49-.4l-.22-1.09c-.4-.15-.76-.36-1.08-.63l-1.06.36c-.22.08-.47-.01-.59-.22l-.59-1.02c-.12-.21-.08-.47.1-.63l.84-.73c-.03-.21-.06-.41-.06-.63s.03-.42.06-.63l-.84-.73c-.18-.16-.22-.42-.1-.63l.59-1.02c.12-.2.36-.3.59-.22l1.06.36c.32-.27.68-.48 1.08-.63l.22-1.09c.05-.23.25-.4.49-.4zm-7.6 1.99c.23 0 .45.01.67.02-.42.91-.67 1.91-.67 2.98 0 1.49.47 2.87 1.26 4h-8.26c-.55 0-1-.45-1-1v-1.65c0-1.03.51-2.01 1.39-2.53 1.93-1.15 4.19-1.82 6.61-1.82zm7 1c-1.1 0-2 .9-2 2s.9 2 2 2 2-.9 2-2-.9-2-2-2zm-7-10c2.209139 0 4 1.790861 4 4s-1.790861 4-4 4-4-1.790861-4-4 1.790861-4 4-4z" fill="#3f3f3f" fill-rule="evenodd"/></svg>