<svg height="24" viewBox="0 0 24 24" width="24" xmlns="http://www.w3.org/2000/svg"><path d="m20 8c1.1 0 2 .9 2 2v9c0 1.1-.9 2-2 2h-13c-1.1 0-2-.9-2-2v-9c0-1.1.9-2 2-2zm-10.4-5.56c.57-.28 1.24-.28 1.8.01l6.64 3.38c.43.23.73.7.79 1.17h-2.6l-5.73-3-6.5 3.4v9.6c-1.1 0-2-.9-2-2v-7.83c0-.53.32-1.08.8-1.34zm10.4 9.02c0-.67-.7-1.1-1.3-.79l-5.2 2.67-5.2-2.67c-.6-.31-1.3.12-1.3.79l.0069273.1090672c.03665295.2878464.21640603.5475995.4830727.6809328l5.61 2.88c.25.13.56.13.81 0l5.61-2.88c.29-.15.48-.46.48-.79z" fill="#3f3f3f" fill-rule="evenodd"/></svg>