<svg height="24" viewBox="0 0 24 24" width="24" xmlns="http://www.w3.org/2000/svg"><path d="m12 2c5.52 0 10 4.48 10 10s-4.48 10-10 10-10-4.48-10-10 4.48-10 10-10zm-6.31 5.1c-1.06 1.35-1.69 3.05-1.69 4.9 0 1.95.7 3.73 1.86 5.12 1.69-1.32 3.82-2.12 6.14-2.12.59 0 1.17.05 1.74.15l-2.2-2.2c-1.56-.2-2.78-1.43-2.99-2.99zm6.31-3.1c-1.85 0-3.55.63-4.9 1.69l11.21 11.21c1.06-1.36 1.69-3.05 1.69-4.9 0-4.42-3.58-8-8-8zm0 2c1.93 0 3.5 1.57 3.5 3.5 0 .52-.12 1-.32 1.44l-4.62-4.62c.44-.2.92-.32 1.44-.32z" fill="#3f3f3f" fill-rule="evenodd"/></svg>