<svg height="24" viewBox="0 0 24 24" width="24" xmlns="http://www.w3.org/2000/svg"><path d="m16.79 5.8-1.94-1.94c-.31-.32-.09-.86.36-.86h5.29c.28 0 .5.22.5.5v5.29c0 .45-.54.67-.85.35l-1.94-1.94-4.09 4.09-1.41-1.41zm2.21 7.2v3.17l2 2v-5.17c0-.55-.45-1-1-1-.55 0-1 .45-1 1zm.07 8.9-.9-.9h-13.17c-1.11 0-2-.9-2-2v-13.17l-.9-.9c-.39-.39-.39-1.02 0-1.41.39-.39 1.02-.39 1.41 0l16.97 16.97c.39.39.39 1.02 0 1.41-.39.39-1.02.39-1.41 0zm-2.9-2.9-4.88-4.88-.88.88c-.39.39-1.02.39-1.41 0-.39-.39-.39-1.02 0-1.41l.88-.88-4.88-4.88v11.17zm-8.34-14h3.17c.55 0 1-.45 1-1 0-.55-.45-1-1-1h-5.17z" fill="#3f3f3f" fill-rule="evenodd"/></svg>