<svg height="24" viewBox="0 0 24 24" width="24" xmlns="http://www.w3.org/2000/svg"><path d="m12 10c-.55 0-1-.45-1-1 0-.55.45-1 1-1 .55 0 1 .45 1 1 0 .55-.45 1-1 1zm0-4c-.55 0-1-.45-1-1v-3c0-.55.45-1 1-1 .55 0 1 .45 1 1v3c0 .55-.45 1-1 1zm-5 12c-1.1 0-1.99.9-1.99 2s.89 2 1.99 2 2-.9 2-2-.9-2-2-2zm10 0c-1.1 0-1.99.9-1.99 2s.89 2 1.99 2 2-.9 2-2-.9-2-2-2zm-8.9-5h7.45c.75 0 1.41-.41 1.75-1.03l3.24-6.14c.25-.48.08-1.08-.4-1.34-.49-.27-1.1-.08-1.36.41l-3.23 6.1h-7.02l-4.26-9h-2.27c-.55 0-1 .45-1 1 0 .55.45 1 1 1h1l3.6 7.59-1.35 2.44c-.73 1.34.23 2.97 1.75 2.97h11c.55 0 1-.45 1-1 0-.55-.45-1-1-1h-11z" fill="#3f3f3f" fill-rule="evenodd"/></svg>