<svg height="24" viewBox="0 0 24 24" width="24" xmlns="http://www.w3.org/2000/svg"><path d="m4.14 2.69c-.39.39-.39 1.02 0 1.41l9.67 9.67-1.41 1.41-3.54-3.53c-.39-.39-1.02-.39-1.41 0-.39.39-.39 1.02 0 1.41l4.24 4.24c.39.39 1.02.39 1.41 0l2.12-2.12 5.89 5.89c.39.39 1.02.39 1.41 0 .39-.39.39-1.02 0-1.41l-16.97-16.97c-.39-.39-1.02-.39-1.41 0zm13.91 9.67 4.24-4.24c.39-.39.39-1.03-.01-1.42-.39-.38-1.02-.38-1.41.01l-4.24 4.24zm-1.41-5.66c-.39-.39-1.02-.39-1.41 0l-1.42 1.42 1.41 1.41 1.42-1.42c.39-.39.39-1.02 0-1.41zm-14.85 6.36 4.95 4.95 1.41-1.41-4.95-4.95c-.39-.39-1.02-.39-1.41 0-.39.39-.39 1.02 0 1.41z" fill="#3f3f3f" fill-rule="evenodd"/></svg>