<svg height="24" viewBox="0 0 24 24" width="24" xmlns="http://www.w3.org/2000/svg"><path d="m3.14 10.86c-.94-4.64 3.07-8.66 7.72-7.73 2.28.46 4.17 2.21 4.85 4.44.65 2.16.15 4.19-.98 5.74l5.56 5.57c.39.39.39 1.02 0 1.41l-.0940419.0830769c-.3914611.3046154-.9559581.2769231-1.3159581-.0830769l-5.56-5.56c-1.55 1.13-3.58 1.63-5.74.98-2.23-.67-3.98-2.56-4.44-4.85zm6.36-5.86c-2.49 0-4.5 2.01-4.5 4.5s2.01 4.5 4.5 4.5 4.5-2.01 4.5-4.5-2.01-4.5-4.5-4.5zm0 1 .79 2.44h2.46l-2.01 1.59.77 2.47-2.01-1.53-2.01 1.53.77-2.47-2.01-1.59h2.46z" fill="#3f3f3f" fill-rule="evenodd"/></svg>