<svg height="24" viewBox="0 0 24 24" width="24" xmlns="http://www.w3.org/2000/svg"><path d="m17 12c2.76 0 5 2.24 5 5s-2.24 5-5 5-5-2.24-5-5 2.24-5 5-5zm-14-6.49c0-.72.73-1.2 1.39-.93l12.89 5.43c-.09 0-.18-.01-.28-.01-3.86 0-7 3.14-7 7v.05l-5.61 2.36c-.66.28-1.39-.2-1.39-.92v-3.71c0-.46.31-.86.76-.97l7.24-1.81-7.24-1.81c-.45-.11-.76-.51-.76-.97zm13.99 8.49-.0908916.0079287c-.2352812.0417009-.4091084.2431824-.4091084.4920713v2.5c0 .13.06.26.15.35l1.65 1.65c.2.2.51.2.7 0l.0592593-.070439c.1382716-.1970919.1185185-.4617832-.0592593-.639561l-1.5-1.5v-2.29c0-.28-.22-.5-.5-.5z" fill="#3f3f3f" fill-rule="evenodd"/></svg>