<svg height="24" viewBox="0 0 24 24" width="24" xmlns="http://www.w3.org/2000/svg"><path d="m5.68 18.32c-.42.42-1.12.39-1.5-.08-1.36-1.71-2.18-3.88-2.18-6.24 0-2.04.61-3.93 1.66-5.51l-1.56-1.56c-.39-.39-.39-1.02 0-1.41s1.02-.39 1.41 0l16.97 16.97c.39.39.39 1.02 0 1.41s-1.02.39-1.41 0l-10.93-10.94c-.09.33-.14.68-.14 1.04 0 .8.24 1.55.64 2.17.27.41.24.94-.1 1.29-.43.43-1.17.4-1.51-.11-.65-.95-1.03-2.11-1.03-3.35 0-.93.21-1.8.58-2.59l-1.47-1.47c-.71 1.19-1.11 2.58-1.11 4.06 0 1.89.66 3.63 1.76 5 .32.39.28.96-.08 1.32zm9.78-9.78c-.35.35-.37.88-.11 1.29.41.62.65 1.37.65 2.17 0 .36-.05.71-.14 1.04l1.55 1.55c.38-.79.59-1.66.59-2.59 0-1.24-.38-2.4-1.03-3.36-.34-.5-1.07-.54-1.51-.1zm2.86-2.86c-.36.36-.4.92-.08 1.32 1.1 1.37 1.76 3.11 1.76 5 0 1.48-.4 2.87-1.11 4.06l1.45 1.45c1.05-1.58 1.66-3.47 1.66-5.51 0-2.36-.82-4.53-2.18-6.24-.38-.47-1.08-.5-1.5-.08z" fill="#3f3f3f" fill-rule="evenodd"/></svg>