<svg height="24" viewBox="0 0 24 24" width="24" xmlns="http://www.w3.org/2000/svg"><path d="m8.54 8.54c.35.35.37.88.1 1.29-.4.62-.64 1.37-.64 2.17s.24 1.55.64 2.17c.27.41.24.95-.11 1.29-.43.43-1.17.4-1.51-.11-.64-.95-1.02-2.11-1.02-3.35 0-1.21.36-2.33.97-3.28.36-.54 1.11-.64 1.57-.18zm6.92 6.92c.43.43 1.17.4 1.51-.11.65-.95 1.03-2.11 1.03-3.35s-.38-2.4-1.03-3.36c-.34-.5-1.08-.54-1.51-.11-.35.35-.37.88-.11 1.29.41.63.65 1.38.65 2.18s-.24 1.55-.64 2.17c-.27.41-.24.95.1 1.29zm-3.46-5.46c-1.1 0-2 .9-2 2s.9 2 2 2 2-.9 2-2-.9-2-2-2zm6.32 8.32c.42.42 1.12.39 1.5-.08 1.36-1.71 2.18-3.88 2.18-6.24s-.82-4.53-2.18-6.24c-.37-.47-1.07-.5-1.5-.08-.36.36-.4.92-.08 1.32 1.1 1.37 1.76 3.11 1.76 5s-.66 3.63-1.76 5c-.32.39-.28.96.08 1.32zm-12.64-12.64c-.42-.42-1.12-.39-1.5.08-1.36 1.71-2.18 3.88-2.18 6.24s.82 4.53 2.18 6.24c.37.47 1.07.5 1.5.08.36-.36.4-.92.08-1.32-1.1-1.37-1.76-3.11-1.76-5s.66-3.63 1.76-5c.32-.39.28-.96-.08-1.32z" fill="#3f3f3f" fill-rule="evenodd"/></svg>