<svg height="24" viewBox="0 0 24 24" width="24" xmlns="http://www.w3.org/2000/svg"><path d="m11.5 5c.83 0 1.5.67 1.5 1.5v6h.61c.31 0 .61.07.89.21l4.39 2.04c.77.38 1.21 1.22 1.09 2.07l-.63 4.46c-.14.99-.98 1.72-1.98 1.72h-6.41c-.53 0-1.04-.21-1.41-.58l-4.01-4.01c-.44-.44-.44-1.14-.01-1.58l.0942524-.0843759c.26216735-.2098216.60685871-.2967352.9357476-.2256241l3.44.72v-10.74c0-.83.67-1.5 1.5-1.5zm.5-4c3.6 0 6.69 1.17 8.13 2.87l1.02-1.02c.31-.31.85-.09.85.36v3.29c0 .28-.22.5-.5.5h-3.29c-.45 0-.67-.54-.36-.85l1.22-1.22c-1-1.29-3.7-2.43-7.07-2.43s-6.07 1.14-7.07 2.43l1.21 1.22c.32.31.1.85-.35.85h-3.29c-.28 0-.5-.22-.5-.5v-3.29c0-.45.54-.67.85-.36l1.02 1.02c1.44-1.7 4.53-2.87 8.13-2.87z" fill="#3f3f3f" fill-rule="evenodd"/></svg>