<svg height="24" viewBox="0 0 24 24" width="24" xmlns="http://www.w3.org/2000/svg"><path d="m14.99 3c1.1 0 2 .9 2 2v9.99c0 .53-.21 1.04-.58 1.41l-5.53 5.54c-.29.29-.68.44-1.06.44s-.76-.14-1.05-.43c-.36-.36-.51-.87-.41-1.37l.95-4.58h-5.65c-2.15 0-3.6-2.2-2.75-4.18l3.26-7.61c.31-.73 1.03-1.21 1.83-1.21zm0 2h-8.99l-3.25 7.6c-.19.44-.03.78.08.95s.36.45.83.45h8.11l-.5 2.41-.61 2.92 4.33-4.34zm6.01-2c1.1 0 2 .9 2 2v8c0 1.1-.9 2-2 2s-2-.9-2-2v-8c0-1.1.9-2 2-2z" fill="#3f3f3f" fill-rule="evenodd"/></svg>