<svg height="24" viewBox="0 0 24 24" width="24" xmlns="http://www.w3.org/2000/svg"><path d="m2 18c.55 0 1 .45 1 1v1c0 .55.45 1 1 1h1c.55 0 1 .45 1 1s-.45 1-1 1h-1c-1.66 0-3-1.34-3-3v-1c0-.55.45-1 1-1zm20 0c.55 0 1 .45 1 1v1c0 1.66-1.34 3-3 3h-1c-.55 0-1-.45-1-1s.45-1 1-1h1c.55 0 1-.45 1-1v-1c0-.55.45-1 1-1zm-10-13.75c.35 0 .69.09 1 .27l5 2.88c.62.35 1 1.01 1 1.73v5.74c0 .72-.38 1.38-1 1.73l-5 2.88c-.31.18-.65.27-1 .27s-.69-.09-1-.27l-5-2.88c-.62-.35-1-1.01-1-1.73v-5.74c0-.72.38-1.38 1-1.74l5-2.87c.31-.18.65-.27 1-.27zm-5 5.99v4.63l4 2.3v-4.6zm10 0-4 2.33v4.6l4-2.3zm-5-3.99-3.96 2.28 3.96 2.31 3.96-2.31zm-7-5.25c.55 0 1 .45 1 1s-.45 1-1 1h-1c-.55 0-1 .45-1 1v1c0 .55-.45 1-1 1s-1-.45-1-1v-1c0-1.66 1.34-3 3-3zm15 0c1.66 0 3 1.34 3 3v1c0 .55-.45 1-1 1s-1-.45-1-1v-1c0-.55-.45-1-1-1h-1c-.55 0-1-.45-1-1s.45-1 1-1z" fill="#3f3f3f" fill-rule="evenodd"/></svg>