<svg height="24" viewBox="0 0 24 24" width="24" xmlns="http://www.w3.org/2000/svg"><path d="m20 3h-16c-1.1 0-2 .9-2 2v12c0 1.1.9 2 2 2h4v1c0 .55.45 1 1 1h6c.55 0 1-.45 1-1v-1h4c1.1 0 1.99-.9 1.99-2l.01-12c0-1.1-.9-2-2-2zm0 14h-16v-12h16zm-13-1.03c-.02-1.08-.89-1.95-1.97-1.97h-.03v2h2zm-1.38-3.42c1.44.26 2.58 1.4 2.83 2.84.06.36.37.61.73.61.46 0 .82-.41.75-.86-.36-2.07-1.99-3.7-4.06-4.06-.46-.08-.87.28-.87.74 0 .37.26.67.62.73zm.02-3.02c3.07.3 5.52 2.75 5.83 5.82.04.37.37.65.74.65.45 0 .79-.4.75-.85-.4-3.74-3.37-6.71-7.11-7.1-.45-.05-.85.29-.85.74 0 .37.27.71.64.74z" fill="#3f3f3f" fill-rule="evenodd"/></svg>