<svg height="24" viewBox="0 0 24 24" width="24" xmlns="http://www.w3.org/2000/svg"><path d="m7.83 5h10.17v10.17l1.83 1.83h1.17c.55 0 1-.45 1-1 0-.55-.45-1-1-1h-1v-2h1c.55 0 1-.45 1-1 0-.55-.45-1-1-1h-1v-2h1c.55 0 1-.45 1-1 0-.55-.45-1-1-1h-1v-2c0-1.1-.9-2-2-2h-12.17zm7.17 5h-2c-.06 0-.13-.01-.19-.02l-.79-.79c-.01-.06-.02-.13-.02-.19v-1c0-.55.45-1 1-1h2c.55 0 1 .45 1 1v1c0 .55-.45 1-1 1zm-4-2v.17l-1.17-1.17h.17c.55 0 1 .45 1 1zm5 4v1.17l-2.17-2.17h1.17c.55 0 1 .45 1 1zm-14.61-9.19c-.39.39-.39 1.02 0 1.41l.61.61v.17 14c0 1.1.9 2 2 2h14c.06 0 .11 0 .16-.01l1.61 1.61c.39.39 1.02.39 1.41 0 .39-.39.39-1.02 0-1.41l-18.37-18.38c-.39-.39-1.03-.39-1.42 0zm2.61 16.19v-12.17l2 2v2.17c0 .55.45 1 1 1h2.17l1.02 1.02c-.06-.01-.13-.02-.19-.02h-3c-.55 0-1 .45-1 1v2c0 .55.45 1 1 1h3c.55 0 1-.45 1-1v-2c0-.06-.01-.13-.02-.19l1.02 1.02v.46.71c0 .55.45 1 1 1h.38.8l2 2z" fill="#3f3f3f" fill-rule="evenodd"/></svg>