<svg height="24" viewBox="0 0 24 24" width="24" xmlns="http://www.w3.org/2000/svg"><path d="m21 7h-1v-.5c0-.28-.22-.5-.5-.5h-1c-.28 0-.5.22-.5.5v.5h-1c-.55 0-1 .45-1 1v9c0 .55.45 1 1 1h4c.55 0 1-.45 1-1v-9c0-.55-.45-1-1-1zm-7 2.38c0-1.87-1.51-3.38-3.38-3.38s-3.37 1.51-3.37 3.38v5.25c0 1.04-.84 1.88-1.88 1.88s-1.87-.85-1.87-1.89v-4.7c.16.05.33.08.5.08 1.1 0 2-.9 2-2s-.9-2-2-2-2 .9-2 2v6.62c0 1.87 1.51 3.38 3.38 3.38s3.38-1.51 3.38-3.38v-5.24c0-1.04.84-1.88 1.88-1.88s1.88.84 1.88 1.88v4.7c-.18-.05-.35-.08-.52-.08-1.1 0-2 .9-2 2s.9 2 2 2 2-.9 2-2c0-.04 0-6.62 0-6.62z" fill="#3f3f3f" fill-rule="evenodd"/></svg>