<svg height="24" viewBox="0 0 24 24" width="24" xmlns="http://www.w3.org/2000/svg"><path d="m1.4 2.81c.39-.39 1.02-.39 1.41 0l18.38 18.38c.39.39.39 1.03 0 1.42-.33.33-.84.36-1.22.13-.29.16-.61.26-.97.26h-6c-.55 0-1-.45-1-1s.45-1 1-1h5.17l-1-1h-.17c-1.1 0-2-.9-2-2v-.17l-9.48-9.48c-.33.82-.52 1.71-.52 2.65v1h2c1.1 0 2 .9 2 2v4c0 1.1-.9 2-2 2h-2c-1.1 0-2-.9-2-2v-7c0-1.5.37-2.91 1.02-4.15l-2.63-2.63c-.39-.39-.39-1.02.01-1.41zm10.6-.81c4.97 0 9 4.03 9 9v7.17l-5.49-5.49c.36-.41.89-.68 1.49-.68h2v-1c0-3.87-3.13-7-7-7-1.47 0-2.83.45-3.95 1.23l-1.43-1.43c1.5-1.13 3.36-1.8 5.38-1.8z" fill="#3f3f3f" fill-rule="evenodd"/></svg>