<svg height="24" viewBox="0 0 24 24" width="24" xmlns="http://www.w3.org/2000/svg"><path d="m21 5h-18c-1.1 0-2 .9-2 2v10c0 1.1.9 2 2 2h18c1.1 0 2-.9 2-2v-10c0-1.1-.9-2-2-2zm-3 2v10h-12v-10zm-4 5c0-.41-.34-.75-.75-.75s-.75.34-.75.75.34.75.75.75.75-.34.75-.75zm-5 0c0-.41-.34-.75-.75-.75s-.75.34-.75.75.34.75.75.75.75-.34.75-.75zm7.5 0c0-.41-.34-.75-.75-.75s-.75.34-.75.75.34.75.75.75.75-.34.75-.75zm-5 0c0-.41-.34-.75-.75-.75s-.75.34-.75.75.34.75.75.75.75-.34.75-.75z" fill="#3f3f3f" fill-rule="evenodd"/></svg>