<svg height="24" viewBox="0 0 24 24" width="24" xmlns="http://www.w3.org/2000/svg"><path d="m20 9v-2c0-1.1-.9-2-2-2h-3c0-1.66-1.34-3-3-3s-3 1.34-3 3h-3c-1.1 0-2 .9-2 2v2c-1.66 0-3 1.34-3 3s1.34 3 3 3v4c0 1.1.9 2 2 2h12c1.1 0 2-.9 2-2v-4c1.66 0 3-1.34 3-3s-1.34-3-3-3zm-12.5 2.5c0-.83.67-1.5 1.5-1.5s1.5.67 1.5 1.5-.67 1.5-1.5 1.5-1.5-.67-1.5-1.5zm7.5 5.5h-6c-.55 0-1-.45-1-1 0-.55.45-1 1-1h6c.55 0 1 .45 1 1 0 .55-.45 1-1 1zm0-4c-.83 0-1.5-.67-1.5-1.5s.67-1.5 1.5-1.5 1.5.67 1.5 1.5-.67 1.5-1.5 1.5z" fill="#3f3f3f" fill-rule="evenodd"/></svg>