<svg height="24" viewBox="0 0 24 24" width="24" xmlns="http://www.w3.org/2000/svg"><path d="m22 14c0-1.95-1.4-3.57-3.25-3.92l-1.35-4.03c-.4-1.23-1.55-2.05-2.84-2.05h-5.12c-1.29 0-2.44.82-2.84 2.05l-.79 2.35-1.4-1.4.29-.29c.39-.39.39-1.02 0-1.41s-1.02-.39-1.41 0l-2 2c-.39.39-.39 1.02 0 1.41s1.02.39 1.41 0l.3-.3 1.79 1.79c-1.61.52-2.79 2.02-2.79 3.8 0 1.5.83 2.79 2.05 3.48.23 1.42 1.46 2.52 2.95 2.52 1.3 0 2.4-.84 2.82-2h4.37c.41 1.16 1.51 2 2.82 2 1.49 0 2.72-1.1 2.95-2.52 1.21-.69 2.04-1.98 2.04-3.48zm-15 4c-.55 0-1-.45-1-1s.45-1 1-1 1 .45 1 1-.45 1-1 1zm4-8h-3.59l-.02-.02 1.1-3.3c.14-.41.52-.68.95-.68h1.56zm2-4h1.56c.43 0 .81.27.95.68l1.1 3.32h-3.61zm4 12c-.55 0-1-.45-1-1s.45-1 1-1 1 .45 1 1-.45 1-1 1z" fill="#3f3f3f" fill-rule="evenodd"/></svg>