<svg height="24" viewBox="0 0 24 24" width="24" xmlns="http://www.w3.org/2000/svg"><path d="m20.7 17.87c.76-.28 1.3-1.02 1.3-1.87v-8c0-1.1-.9-2-2-2h-11.17zm-3.2-8.87c.83 0 1.5.67 1.5 1.5s-.67 1.5-1.5 1.5-1.5-.67-1.5-1.5.67-1.5 1.5-1.5zm2.99 11.49-16.98-16.98c-.39-.39-1.02-.39-1.41 0s-.39 1.02 0 1.41l1.2 1.2c-.76.29-1.3 1.03-1.3 1.88v8c0 1.1.9 2 2 2h11.17l3.9 3.9c.39.39 1.02.39 1.41 0 .4-.39.4-1.02.01-1.41zm-10.49-7.49h-1v1c0 .55-.45 1-1 1s-1-.45-1-1v-1h-1c-.55 0-1-.45-1-1s.45-1 1-1h1v-1c0-.05.01-.11.01-.16l3.14 3.14c-.04.01-.1.02-.15.02z" fill="#3f3f3f" fill-rule="evenodd"/></svg>