<svg height="24" viewBox="0 0 24 24" width="24" xmlns="http://www.w3.org/2000/svg"><path d="m6 16c1.1045695 0 2 .8954305 2 2s-.8954305 2-2 2-2-.8954305-2-2 .8954305-2 2-2zm10.96-4.1 2.12 2.12-5.83 5.83c-.09.1-.22.15-.35.15h-1.4c-.28 0-.5-.22-.5-.5v-1.43c0-.13.05-.26.15-.36zm-10.96-1.9c1.1045695 0 2 .8954305 2 2s-.8954305 2-2 2-2-.8954305-2-2 .8954305-2 2-2zm6 0c1.1 0 2 .9 2 2v.03l-1.97 1.97h-.03c-1.1 0-2-.9-2-2s.9-2 2-2zm6.73.15c.2-.2.51-.2.71 0l1.41 1.41c.2.2.2.51 0 .71l-1.06 1.06-2.12-2.12zm-6.73-6.15c1.1045695 0 2 .8954305 2 2s-.8954305 2-2 2-2-.8954305-2-2 .8954305-2 2-2zm-6 0c1.1045695 0 2 .8954305 2 2s-.8954305 2-2 2-2-.8954305-2-2 .8954305-2 2-2zm12 0c1.1045695 0 2 .8954305 2 2s-.8954305 2-2 2-2-.8954305-2-2 .8954305-2 2-2z"/></svg>