<svg height="24" viewBox="0 0 24 24" width="24" xmlns="http://www.w3.org/2000/svg"><path d="m20.29 7.68c.63-.63 1.71-.18 1.71.71v12.61c0 .55-.45 1-1 1h-12.59c-.89 0-1.34-1.08-.71-1.71zm-.29 3.1-2 2v7.22h2zm-10.39-.1c.88-.54 2-.54 2.87 0 .27.17.32.56.09.79l-.82.82c-.39.39-1.02.39-1.41 0l-.82-.82c-.23-.23-.19-.62.09-.79zm-2.26-2.86c2.21-1.57 5.2-1.57 7.4 0 .45.32.49.99.1 1.38-.31.32-.8.36-1.16.1-1.57-1.12-3.7-1.12-5.27 0-.36.26-.85.22-1.17-.1-.4-.39-.35-1.06.1-1.38zm-2.61-2.58c3.68-3.01 9.03-2.99 12.7.06.39.32.43.89.08 1.24l-.12.12c-.31.31-.8.31-1.14.03-3.01-2.48-7.4-2.48-10.41 0-.35.29-.87.25-1.19-.08-.39-.38-.35-1.02.08-1.37z"/></svg>