<svg height="24" viewBox="0 0 24 24" width="24" xmlns="http://www.w3.org/2000/svg"><path d="m3 6c-.55 0-1-.45-1-1v-3c0-.55.45-1 1-1h3c.55 0 1 .45 1 1s-.45 1-1 1h-2v2c0 .55-.45 1-1 1zm14-4c0 .55.45 1 1 1h2v2c0 .55.45 1 1 1s1-.45 1-1v-3c0-.55-.45-1-1-1h-3c-.55 0-1 .45-1 1zm-14 16c-.55 0-1 .45-1 1v3c0 .55.45 1 1 1h3c.55 0 1-.45 1-1s-.45-1-1-1h-2v-2c0-.55-.45-1-1-1zm14 4c0 .55.45 1 1 1h3c.55 0 1-.45 1-1v-3c0-.55-.45-1-1-1s-1 .45-1 1v2h-2c-.55 0-1 .45-1 1zm2-4c0 1.1-.9 2-2 2h-10c-1.1 0-2-.9-2-2v-12c0-1.1.9-2 2-2h10c1.1 0 2 .9 2 2zm-10-9c0 .55.45 1 1 1h4c.55 0 1-.45 1-1s-.45-1-1-1h-4c-.55 0-1 .45-1 1zm0 3c0 .55.45 1 1 1h4c.55 0 1-.45 1-1s-.45-1-1-1h-4c-.55 0-1 .45-1 1zm0 3c0 .55.45 1 1 1h4c.55 0 1-.45 1-1s-.45-1-1-1h-4c-.55 0-1 .45-1 1z" fill="#3f3f3f"/></svg>