<svg height="24" viewBox="0 0 24 24" width="24" xmlns="http://www.w3.org/2000/svg"><path d="m15 21h-2v-2h2zm-2-7h-2v5h2zm8-2h-2v4h2zm-2-2h-2v2h2zm-12 2h-2v2h2zm-2-2h-2v2h2zm7-5h2v-2h-2zm-7.5-.5v3h3v-3zm3.5 4.5h-4c-.55 0-1-.45-1-1v-4c0-.55.45-1 1-1h4c.55 0 1 .45 1 1v4c0 .55-.45 1-1 1zm-3.5 7.5v3h3v-3zm3.5 4.5h-4c-.55 0-1-.45-1-1v-4c0-.55.45-1 1-1h4c.55 0 1 .45 1 1v4c0 .55-.45 1-1 1zm8.5-16.5v3h3v-3zm3.5 4.5h-4c-.55 0-1-.45-1-1v-4c0-.55.45-1 1-1h4c.55 0 1 .45 1 1v4c0 .55-.45 1-1 1zm-1 10v-3h-4v2h2v3h4v-2zm-2-7h-4v2h4zm-4-2h-6v2h2v2h2v-2h2zm1-1v-2h-2v-2h-2v4zm-7.25-3.75h-1.5v1.5h1.5zm0 12h-1.5v1.5h1.5zm12-12h-1.5v1.5h1.5z" fill="#3f3f3f"/></svg>