<svg height="24" viewBox="0 0 24 24" width="24" xmlns="http://www.w3.org/2000/svg"><path d="m8.76 4.69-.61 3.89c-.12.78.48 1.49 1.28 1.49.64 0 1.18-.46 1.28-1.09l.53-3.41h2.58l-2.02 12.86h-1.24c-.63 0-1.16.46-1.26 1.08v.01c-.13.78.47 1.48 1.26 1.48h4.67c.63 0 1.17-.46 1.26-1.08v-.01c.12-.78-.48-1.48-1.26-1.48h-.86l2-12.86h2.58l-.47 3.01c-.12.78.48 1.49 1.28 1.49h.03c.64 0 1.18-.46 1.28-1.09l.57-3.67c.19-1.22-.75-2.31-1.98-2.31h-8.92c-.98 0-1.82.72-1.98 1.69zm-.76.31h-3.14c-.5 0-.92.36-.99.85-.1.6.37 1.15.99 1.15h2.83zm-.61 4h-3.14c-.5 0-.92.36-.99.85-.1.6.37 1.15.99 1.15h2.83zm.92 8h-5.14c-.49 0-.91.36-.99.85-.1.6.37 1.15.99 1.15h4.83zm.62-4h-5.14c-.49 0-.91.36-.99.85-.1.6.37 1.15.99 1.15h4.84z" fill="#3f3f3f"/></svg>