<svg height="24" viewBox="0 0 24 24" width="24" xmlns="http://www.w3.org/2000/svg"><path d="m20 4c1.1 0 2 .9 2 2v12c0 1.1-.9 2-2 2h-16c-1.1 0-2-.9-2-2v-12c0-1.1.9-2 2-2zm-10.75 5h-3.25c-.55 0-1 .45-1 1v1.75c0 .55.45 1 1 1h2.5v.75h-2.75c-.41 0-.75.34-.75.75l.00692708.1008854c.0502257.3634202.36723959.6491146.74307292.6491146h3.25c.55 0 1-.45 1-1v-1.75c0-.55-.45-1-1-1h-2.5v-.75h2.75c.41 0 .75-.34.75-.75s-.34-.75-.75-.75zm2.75 0-.116199.0067602c-.4957908.05803572-.883801.48252551-.883801.9932398v4c0 .55.45 1 1 1l.116199-.0067602c.4957908-.0580357.883801-.4825255.883801-.9932398v-4c0-.55-.45-1-1-1zm6 0h-3c-.55 0-1 .45-1 1v4.25c0 .41.34.75.75.75l.1008854-.0069271c.3634202-.0502257.6491146-.3672396.6491146-.7430729v-1.25h2.5c.55 0 1-.45 1-1v-2c0-.55-.45-1-1-1zm-.5 1.5v1h-2v-1z"/></svg>