<svg height="24" viewBox="0 0 24 24" width="24" xmlns="http://www.w3.org/2000/svg"><path d="m19 3h-14c-1.1 0-2 .9-2 2v14c0 1.1.9 2 2 2h14c1.1 0 2-.9 2-2v-14c0-1.1-.9-2-2-2zm-9.75 12c-.41 0-.75-.34-.75-.75v-3.75h-.75c-.41 0-.75-.34-.75-.75 0-.41.34-.75.75-.75h1.25c.55 0 1 .45 1 1v4.25c0 .41-.34.75-.75.75zm6.34 0c-.22 0-.42-.1-.55-.27l-1.54-1.98v1.5c0 .41-.34.75-.75.75-.41 0-.75-.34-.75-.75v-4.5c0-.41.34-.75.75-.75.41 0 .75.34.75.75v1.5l1.54-1.98c.13-.17.34-.27.55-.27.58 0 .91.66.56 1.12l-1.4 1.88 1.41 1.88c.34.46.01 1.12-.57 1.12z" fill="#3f3f3f"/></svg>