<svg height="24" viewBox="0 0 24 24" width="24" xmlns="http://www.w3.org/2000/svg"><path d="m19 3h-14c-1.1 0-2 .9-2 2v14c0 1.1.9 2 2 2h14c1.1 0 2-.9 2-2v-14c0-1.1-.9-2-2-2zm-9 11c0 .55-.45 1-1 1h-2.75c-.41 0-.75-.34-.75-.75 0-.41.34-.75.75-.75h2.25v-1h-1.5c-.28 0-.5-.22-.5-.5 0-.28.22-.5.5-.5h1.5v-1h-2.25c-.41 0-.75-.34-.75-.75 0-.41.34-.75.75-.75h2.75c.55 0 1 .45 1 1zm4.59 1c-.22 0-.42-.1-.55-.27l-1.54-1.98v1.5c0 .41-.34.75-.75.75-.41 0-.75-.34-.75-.75l-.03-4.49c-.01-.42.33-.76.75-.76.41 0 .75.33.75.74l.03 1.51 1.54-1.98c.13-.17.34-.27.55-.27.58 0 .91.66.56 1.12l-1.4 1.88 1.41 1.88c.34.46.01 1.12-.57 1.12zm3.91-2.5h-1v1c0 .28-.22.5-.5.5-.28 0-.5-.22-.5-.5v-1h-1c-.28 0-.5-.22-.5-.5 0-.28.22-.5.5-.5h1v-1c0-.28.22-.5.5-.5.28 0 .5.22.5.5v1h1c.28 0 .5.22.5.5 0 .28-.22.5-.5.5z" fill="#3f3f3f"/></svg>