<svg height="24" viewBox="0 0 24 24" width="24" xmlns="http://www.w3.org/2000/svg"><path d="m19 3h-14c-1.1 0-2 .9-2 2v14c0 1.1.9 2 2 2h14c1.1 0 2-.9 2-2v-14c0-1.1-.9-2-2-2zm-8.75 10.5h-.25v.75c0 .41-.34.75-.75.75-.41 0-.75-.34-.75-.75v-.75h-2c-.55 0-1-.45-1-1v-2.75c0-.41.34-.75.75-.75.41 0 .75.34.75.75v2.25h1.5v-2.25c0-.41.34-.75.75-.75.41 0 .75.34.75.75v2.25h.25c.41 0 .75.34.75.75 0 .41-.34.75-.75.75zm4.84 1.5c-.22 0-.42-.1-.55-.27l-1.54-1.98v1.55c0 .39-.31.7-.7.7h-.1c-.39 0-.7-.31-.7-.7v-4.6c0-.39.31-.7.7-.7h.09c.4 0 .71.31.71.7v1.55l1.54-1.98c.13-.17.34-.27.55-.27.58 0 .91.66.56 1.12l-1.4 1.88 1.41 1.88c.34.46.01 1.12-.57 1.12zm3.41-2.5h-1v1c0 .28-.22.5-.5.5-.28 0-.5-.22-.5-.5v-1h-1c-.28 0-.5-.22-.5-.5 0-.28.22-.5.5-.5h1v-1c0-.28.22-.5.5-.5.28 0 .5.22.5.5v1h1c.28 0 .5.22.5.5 0 .28-.22.5-.5.5z" fill="#3f3f3f"/></svg>