<svg height="24" viewBox="0 0 24 24" width="24" xmlns="http://www.w3.org/2000/svg"><path d="m19 3h-14c-1.1 0-2 .9-2 2v14c0 1.1.9 2 2 2h14c1.1 0 2-.9 2-2v-14c0-1.1-.9-2-2-2zm-11.05 12h-.19c-.5 0-.86-.49-.72-.97l1.08-3.53h-1.87c-.41 0-.75-.34-.75-.75 0-.41.33-.75.75-.75h2.75c.67 0 1.15.65.96 1.29l-1.3 4.18c-.1.32-.39.53-.71.53zm6.64 0c-.22 0-.42-.1-.55-.27l-1.54-1.98v1.55c0 .39-.31.7-.7.7h-.1c-.39 0-.7-.31-.7-.7v-4.6c0-.39.31-.7.7-.7h.09c.39 0 .7.31.7.7v1.55l1.54-1.98c.14-.17.35-.27.56-.27.58 0 .91.66.56 1.12l-1.4 1.88 1.41 1.88c.34.46.01 1.12-.57 1.12zm3.91-2.5h-1v1c0 .28-.22.5-.5.5-.28 0-.5-.22-.5-.5v-1h-1c-.28 0-.5-.22-.5-.5 0-.28.22-.5.5-.5h1v-1c0-.28.22-.5.5-.5.28 0 .5.22.5.5v1h1c.28 0 .5.22.5.5 0 .28-.22.5-.5.5z" fill="#3f3f3f"/></svg>