<?xml version="1.0" encoding="UTF-8"?>
<svg width="24px" height="24px" viewBox="0 0 24 24" version="1.1" xmlns="http://www.w3.org/2000/svg" xmlns:xlink="http://www.w3.org/1999/xlink">
    <title>AV/8k_plus</title>
    <g id="AV/8k_plus" stroke="none" stroke-width="1" fill="none" fill-rule="evenodd">
        <path d="M19,3 L5,3 C3.9,3 3,3.9 3,5 L3,19 C3,20.1 3.9,21 5,21 L19,21 C20.1,21 21,20.1 21,19 L21,5 C21,3.9 20.1,3 19,3 Z M10,14 C10,14.55 9.55,15 9,15 L7,15 C6.45,15 6,14.55 6,14 L6,10 C6,9.45 6.45,9 7,9 L9,9 C9.55,9 10,9.45 10,10 L10,14 Z M14.59,15 C14.37,15 14.17,14.9 14.04,14.73 L12.5,12.75 L12.5,14.3 C12.5,14.69 12.19,15 11.8,15 L11.7,15 C11.31,15 11,14.69 11,14.3 L11,9.7 C11,9.31 11.31,9 11.7,9 L11.79,9 C12.18,9 12.49,9.31 12.49,9.7 L12.49,11.25 L14.03,9.27 C14.17,9.1 14.38,9 14.59,9 C15.17,9 15.5,9.66 15.15,10.12 L13.75,12 L15.16,13.88 C15.5,14.34 15.17,15 14.59,15 Z M17.5,10 L17.5,11.5 L19,11.5 L19,12.5 L17.5,12.5 L17.5,14 L16.5,14 L16.5,12.5 L15,12.5 L15,11.5 L16.5,11.5 L16.5,10 L17.5,10 Z M8.5,12.5 L8.5,14 L7.5,14 L7.5,12.5 L8.5,12.5 Z M8.5,10 L8.5,11.5 L7.5,11.5 L7.5,10 L8.5,10 Z" id="Shape" fill="#000000" fill-rule="nonzero"></path>
    </g>
</svg>