<svg height="24" viewBox="0 0 24 24" width="24" xmlns="http://www.w3.org/2000/svg"><path d="m8 10h1.5v1.5h-1.5zm11-7h-14c-1.1 0-2 .9-2 2v14c0 1.1.9 2 2 2h14c1.1 0 2-.9 2-2v-14c0-1.1-.9-2-2-2zm-8 11c0 .55-.45 1-1 1h-2.75c-.41 0-.75-.34-.75-.75 0-.41.34-.75.75-.75h2.25v-1h-2c-.55 0-1-.45-1-1v-1.5c0-.55.45-1 1-1h2.5c.55 0 1 .45 1 1zm5.59 1c-.22 0-.42-.1-.55-.27l-1.54-1.98v1.55c0 .39-.31.7-.7.7h-.1c-.39 0-.7-.31-.7-.7v-4.6c0-.39.31-.7.7-.7h.09c.39 0 .7.31.7.7v1.55l1.54-1.98c.14-.17.35-.27.56-.27.58 0 .91.66.56 1.12l-1.4 1.88 1.41 1.88c.34.46.01 1.12-.57 1.12z" fill="#3f3f3f"/></svg>