<svg height="24" viewBox="0 0 24 24" width="24" xmlns="http://www.w3.org/2000/svg"><path d="m21 1h-18c-1.1 0-2 .9-2 2v18c0 1.1.9 2 2 2h18c1.1 0 2-.9 2-2v-18c0-1.1-.9-2-2-2zm-2 17c0 .55-.45 1-1 1h-11v1.79c0 .45-.54.67-.85.36l-2.79-2.79c-.2-.2-.2-.51 0-.71l2.79-2.79c.31-.32.85-.1.85.35v1.79h10v-3c0-.55.45-1 1-1s1 .45 1 1zm1.64-11.65-2.79 2.79c-.31.32-.85.1-.85-.35v-1.79h-10v3c0 .55-.45 1-1 1s-1-.45-1-1v-4c0-.55.45-1 1-1h11v-1.79c0-.45.54-.67.85-.36l2.79 2.79c.2.2.2.51 0 .71z" fill="#3f3f3f"/></svg>