<svg height="24" viewBox="0 0 24 24" width="24" xmlns="http://www.w3.org/2000/svg"><path d="m21 1h-18c-1.1 0-2 .9-2 2v18c0 1.1.9 2 2 2h18c1.1 0 2-.9 2-2v-18c0-1.1-.9-2-2-2zm-16.7 3.7c.39-.39 1.02-.39 1.41 0l4.47 4.47-1.42 1.4-4.46-4.46c-.39-.39-.39-1.02 0-1.41zm15.29 14.8c0 .28-.22.5-.5.5h-3.79c-.45 0-.67-.54-.36-.85l1.2-1.2-3.13-3.13 1.41-1.41 3.13 3.14 1.19-1.19c.31-.32.85-.1.85.35zm0-11.21c0 .45-.54.67-.85.36l-1.19-1.19-11.85 11.83c-.39.39-1.02.39-1.41 0s-.39-1.02 0-1.41l11.84-11.84-1.19-1.19c-.31-.31-.09-.85.36-.85h3.79c.28 0 .5.22.5.5z" fill="#3f3f3f"/></svg>