<svg height="24" viewBox="0 0 24 24" width="24" xmlns="http://www.w3.org/2000/svg"><path d="m20 14.27v-4.27c0-4.42-3.58-8-8-8s-8 3.58-8 8v4.27c-.6.34-1 .99-1 1.73v4c0 1.1.9 2 2 2h14c1.1 0 2-.9 2-2v-4c0-.74-.4-1.39-1-1.73zm-13 5.73h-2v-4h2zm4 0h-2v-4h2zm0-6h-5v-4c0-2.97 2.16-5.44 5-5.92zm2-9.92c2.84.48 5 2.94 5 5.92v4h-5zm2 15.92h-2v-4h2zm4 0h-2v-4h2zm-11-9c0-.55.45-1 1-1s1 .45 1 1-.45 1-1 1-1-.45-1-1zm8 0c0 .55-.45 1-1 1s-1-.45-1-1 .45-1 1-1 1 .45 1 1z" fill="#3f3f3f" fill-rule="evenodd"/></svg>