<svg height="24" viewBox="0 0 24 24" width="24" xmlns="http://www.w3.org/2000/svg"><path d="m4.37 3.55c.52-.93 1.5-1.55 2.63-1.55.38 0 .72-.22.89-.53.15-.31.5-.47.84-.47.74 0 1.26.8.9 1.45-.52.93-1.5 1.55-2.63 1.55-.38 0-.72.22-.89.53-.15.31-.5.47-.84.47-.74 0-1.26-.8-.9-1.45zm18.02 8.64c-.34.44-.96.52-1.4.19l-.99-.76v8.38c0 .55-.45 1-1 1h-14c-.55 0-1-.45-1-1v-8.38l-.99.76c-.44.34-1.07.25-1.4-.19s-.25-1.07.19-1.4l2.2-1.68v-2.11c0-.55.45-1 1-1s1 .45 1 1v.58l5.39-4.12c.36-.27.86-.27 1.21 0l9.6 7.33c.44.34.53.97.19 1.4zm-12.33-5.19h3.89l-1.95-1.48zm-4.06 3.1v.9h12v-.9l-1.44-1.1h-9.12zm0 2.9v2h12v-2zm12 6v-2h-12v2z" fill="#3f3f3f" fill-rule="evenodd"/></svg>