<svg height="24" viewBox="0 0 24 24" width="24" xmlns="http://www.w3.org/2000/svg"><path d="m10 15c-.55 0-1 .45-1 1v4h-3c-.55 0-1-.45-1-1v-3.67l-.38.38c-.39.39-1.02.39-1.41 0-.39-.39-.39-1.02 0-1.41l6.09-6.09c.39-.39 1.02-.39 1.41 0l6.09 6.09c.39.39.39 1.02 0 1.41-.39.39-1.02.39-1.41 0l-.39-.38v3.67c0 .55-.45 1-1 1h-3v-4c0-.55-.45-1-1-1zm7.5-7.5v.89l-1.08 1.08c-.18.18-.21.48-.05.69.19.23.53.24.74.04l.39-.39v.69c0 .28.22.5.5.5.28 0 .5-.22.5-.5v-.69l.39.39c.21.21.55.19.74-.04.17-.2.14-.5-.05-.69l-1.08-1.08v-.89h.89l1.08 1.08c.18.18.48.21.69.05.23-.19.24-.53.04-.74l-.39-.39h.69c.28 0 .5-.22.5-.5 0-.28-.22-.5-.5-.5h-.69l.39-.39c.21-.21.19-.55-.04-.74-.2-.17-.5-.14-.69.05l-1.08 1.08h-.89v-.89l1.08-1.08c.18-.18.21-.48.05-.69-.19-.23-.53-.24-.74-.04l-.39.39v-.69c0-.28-.22-.5-.5-.5-.28 0-.5.22-.5.5v.69l-.39-.39c-.21-.21-.55-.19-.74.04-.17.2-.14.5.05.69l1.08 1.08v.89h-.89l-1.08-1.08c-.18-.18-.48-.21-.69-.05-.23.19-.24.53-.04.74l.39.39h-.69c-.28 0-.5.22-.5.5 0 .28.22.5.5.5h.69l-.39.39c-.21.21-.19.55.04.74.2.17.5.14.69-.05l1.08-1.08z" fill="#3f3f3f" fill-rule="evenodd"/></svg>