<svg height="24" viewBox="0 0 24 24" width="24" xmlns="http://www.w3.org/2000/svg"><path d="m22.39 12.19c.34-.44.25-1.07-.19-1.4l-9.6-7.33c-.36-.27-.86-.27-1.21 0l-5.39 4.12v-.58c0-.55-.45-1-1-1s-1 .45-1 1v2.11l-2.21 1.68c-.44.33-.52.96-.19 1.4.34.44.96.52 1.4.19l1-.76v8.38c0 .55.45 1 1 1h6v-5c0-.55.45-1 1-1s1 .45 1 1v5h6c.55 0 1-.45 1-1v-8.38l.99.76c.44.34 1.07.25 1.4-.19zm-17.12-7.19c-.74 0-1.26-.8-.9-1.45.52-.93 1.5-1.55 2.63-1.55.38 0 .72-.22.89-.53.15-.31.5-.47.84-.47.74 0 1.26.8.9 1.45-.52.93-1.5 1.55-2.63 1.55-.38 0-.72.22-.89.53-.15.31-.5.47-.84.47z" fill="#3f3f3f" fill-rule="evenodd"/></svg>