<svg height="24" viewBox="0 0 24 24" width="24" xmlns="http://www.w3.org/2000/svg"><path d="m18.32 18.32c-.36-.36-.92-.4-1.31-.08-.32.25-.65.48-1 .69v-2.93h2c1.1 0 2-.9 2-2v-3c0-1.1-.9-2-2-2h-6v-3c0-1.1-.9-2-2-2h-2.01c-2.21 0-4 1.79-4 4v6c0 1.1.9 2 2 2h2v2.93c-.35-.2-.69-.43-1-.69-.39-.32-.96-.27-1.31.08-.42.42-.39 1.12.08 1.5 1.7 1.36 3.87 2.18 6.23 2.18s4.53-.82 6.24-2.18c.47-.38.5-1.08.08-1.5zm-4.32 1.43c-.64.16-1.31.25-2 .25s-1.36-.09-2-.25v-3.75h4z" fill="#3f3f3f" fill-rule="evenodd"/></svg>