<svg height="24" viewBox="0 0 24 24" width="24" xmlns="http://www.w3.org/2000/svg"><path d="m17 20c.55 0 1-.45 1-1v-10.24c0-.27-.11-.52-.29-.71l-3.76-3.76c-.19-.18-.44-.29-.71-.29-.89 0-1.34 1.08-.71 1.71l3.32 3.32c.1.09.15.22.15.35v9.62c0 .55.45 1 1 1zm4 0c.55 0 1-.45 1-1v-11.89c0-.26-.11-.52-.29-.71l-2.1-2.11c-.19-.18-.45-.29-.71-.29-.9 0-1.34 1.08-.71 1.71l1.67 1.67c.09.09.14.22.14.35v11.27c0 .55.45 1 1 1zm-13-5c.55 0 1 .45 1 1v4h4c.55 0 1-.45 1-1v-8.59c0-.27-.11-.52-.29-.71l-5-5c-.39-.39-1.02-.39-1.41 0l-5 5c-.19.19-.3.45-.3.71v8.59c0 .55.45 1 1 1h4v-4c0-.55.45-1 1-1zm0-2c-.55 0-1-.45-1-1s.45-1 1-1 1 .45 1 1-.45 1-1 1z" fill="#3f3f3f" fill-rule="evenodd"/></svg>