<svg height="24" viewBox="0 0 24 24" width="24" xmlns="http://www.w3.org/2000/svg"><path d="m22 17.83c0-.42-.27-.8-.67-.94-.71-.27-1.12-.89-2.66-.89-1.91 0-2.14 1-3.33 1-1.24 0-1.39-1-3.34-1s-2.1 1-3.34 1c-1.19 0-1.42-1-3.33-1-1.54 0-1.95.62-2.66.88-.4.15-.67.52-.67.95 0 .7.69 1.19 1.35.95.8-.29 1.18-.78 2-.78 1.19 0 1.42 1 3.33 1 1.95 0 2.08-1 3.32-1s1.37 1 3.32 1c1.91 0 2.14-1 3.33-1 .83 0 1.21.49 2 .78.66.24 1.35-.26 1.35-.95zm-3.09-8.02c.33-.45.23-1.07-.22-1.4l-6.1-4.47c-.35-.26-.83-.26-1.18 0l-6.1 4.47c-.45.33-.54.95-.22 1.4.33.45.95.54 1.4.22l.51-.38v3.35h-1.26c-.27 0-.52-.11-.71-.29l-.66-.66c-.39-.39-1.02-.39-1.41 0s-.39 1.02 0 1.41l.66.66c.56.56 1.33.88 2.12.88h12.51c.8 0 1.56-.32 2.12-.88l.66-.66c.39-.39.39-1.02 0-1.41s-1.02-.39-1.41 0l-.66.66c-.18.18-.44.29-.7.29h-1.26v-3.35l.51.37c.45.33 1.07.23 1.4-.21zm-5.91 3.19h-2v-2h2z" fill="#3f3f3f" fill-rule="evenodd"/></svg>