<svg height="24" viewBox="0 0 24 24" width="24" xmlns="http://www.w3.org/2000/svg"><path d="m6.98 4.15c.01 0 .01-.01.02-.01v-.64c0-.83.67-1.5 1.5-1.5s1.5.67 1.5 1.5v.5h4v-.5c0-.83.67-1.5 1.5-1.5s1.5.67 1.5 1.5v.64c1.72.45 3 2 3 3.86v9.17l-2.03-2.03c.01-.05.03-.09.03-.14v-2c0-.55-.45-1-1-1h-2.17zm13.51 17.75c-.39.39-1.02.39-1.41 0l-.14-.14c-.29.15-.6.24-.94.24h-12c-1.1 0-2-.9-2-2v-12c0-.36.06-.69.15-1.02l-2.05-2.05c-.39-.39-.39-1.02 0-1.41s1.02-.39 1.41 0l16.97 16.97c.4.39.4 1.02.01 1.41zm-9.32-7.9-2-2h-2.17c-.55 0-1 .45-1 1s.45 1 1 1z" fill="#3f3f3f" fill-rule="evenodd"/></svg>