<svg width="24" height="24" viewBox="0 0 24 24" fill="none"
    xmlns="http://www.w3.org/2000/svg">
    <path d="M12.75 15H6.75V9C6.75 8.45 6.3 8 5.75 8C5.2 8 4.75 8.45 4.75 9V15C4.75 16.1 5.65 17 6.75 17H12.75C13.3 17 13.75 16.55 13.75 16C13.75 15.45 13.3 15 12.75 15Z" fill="black"/>
    <path d="M10.75 13H18.75C19.85 13 20.75 12.1 20.75 11V5C20.75 3.9 19.85 3 18.75 3H10.75C9.65 3 8.75 3.9 8.75 5V11C8.75 12.1 9.65 13 10.75 13ZM10.75 7H18.75V11H10.75V7Z" fill="black"/>
    <path d="M9.75 19H2.75V13C2.75 12.45 2.3 12 1.75 12C1.2 12 0.75 12.45 0.75 13V19C0.75 20.1 1.65 21 2.75 21H9.75C10.3 21 10.75 20.55 10.75 20C10.75 19.45 10.3 19 9.75 19Z" fill="black"/>
    <path d="M21.76 14.79L21.13 17.66C20.98 18.37 20.89 18.87 20.85 19.16C20.82 18.94 20.76 18.6 20.68 18.14C20.6 17.68 20.51 17.29 20.43 16.94L19.94 14.78H18.51L18.01 16.94C17.93 17.24 17.85 17.62 17.77 18.07C17.69 18.52 17.62 18.89 17.59 19.15C17.54 18.77 17.44 18.27 17.3 17.64L16.68 14.78H15.19L16.6 20.49H18.42C18.75 18.99 18.94 18.14 18.99 17.93C19.04 17.72 19.08 17.49 19.13 17.24C19.18 16.99 19.21 16.78 19.23 16.61C19.26 16.82 19.3 17.08 19.35 17.39C19.4 17.7 19.45 17.91 19.47 18.01L20.02 20.5H21.84L23.25 14.79H21.76Z" fill="black"/>
</svg>
