<svg width="24" height="24" viewBox="0 0 24 24" fill="none" xmlns="http://www.w3.org/2000/svg">
<path fill-rule="evenodd" clip-rule="evenodd" d="M21 3H3C1.9 3 1 3.9 1 5V18C1 19.1 1.9 20 3 20H12V5H20C20.55 5 21 5.45 21 6V14H23V5C23 3.9 22.1 3 21 3ZM20 13.25C20 12.84 19.66 12.5 19.25 12.5H13.75C13.34 12.5 13 12.84 13 13.25C13 13.66 13.34 14 13.75 14H19.25C19.66 14 20 13.66 20 13.25ZM19.25 9H13.75C13.34 9 13 8.66 13 8.25C13 7.84 13.34 7.5 13.75 7.5H19.25C19.66 7.5 20 7.84 20 8.25C20 8.66 19.66 9 19.25 9ZM13.75 11.5H19.25C19.66 11.5 20 11.16 20 10.75C20 10.34 19.66 10 19.25 10H13.75C13.34 10 13 10.34 13 10.75C13 11.16 13.34 11.5 13.75 11.5ZM19.48 20.16C19.52 19.87 19.61 19.37 19.76 18.66L20.39 15.79H21.88L20.47 21.5H18.65L18.1 19.01C18.0954 18.9871 18.0892 18.9583 18.0819 18.924C18.0571 18.8084 18.0185 18.6289 17.98 18.39C17.93 18.08 17.89 17.82 17.86 17.61C17.84 17.78 17.81 17.99 17.76 18.24C17.7446 18.3169 17.7302 18.3919 17.7161 18.465C17.6845 18.6296 17.6546 18.7846 17.62 18.93C17.57 19.14 17.38 19.99 17.05 21.49H15.23L13.82 15.78H15.31L15.93 18.64C16.07 19.27 16.17 19.77 16.22 20.15C16.2447 19.936 16.2965 19.6476 16.3586 19.3014C16.372 19.2269 16.3858 19.1497 16.4 19.07C16.48 18.62 16.56 18.24 16.64 17.94L17.14 15.78H18.57L19.06 17.94L19.0677 17.9735C19.1457 18.3149 19.2325 18.6946 19.31 19.14C19.3171 19.1809 19.3241 19.2209 19.3309 19.2599C19.4004 19.6595 19.4527 19.9596 19.48 20.16Z" fill="black"/>
</svg>
