<svg width="24" height="24" viewBox="0 0 24 24" fill="none"
    xmlns="http://www.w3.org/2000/svg">
    <path d="M10.14 10.75L13.14 13V4H17.14V13H19.14V4C19.14 2.9 18.24 2 17.14 2H5.14C4.04 2 3.14 2.9 3.14 4V20C3.14 21.1 4.04 22 5.14 22H10.14V20H5.14V4H7.14V13L10.14 10.75Z" fill="black"/>
    <path d="M19.37 15.79L18.74 18.66C18.59 19.37 18.5 19.87 18.46 20.16C18.43 19.94 18.37 19.6 18.29 19.14C18.21 18.68 18.12 18.29 18.04 17.94L17.55 15.78H16.12L15.62 17.94C15.54 18.24 15.46 18.62 15.38 19.07C15.3 19.52 15.23 19.89 15.2 20.15C15.15 19.77 15.05 19.27 14.91 18.64L14.29 15.78H12.8L14.21 21.49H16.03C16.36 19.99 16.55 19.14 16.6 18.93C16.65 18.72 16.69 18.49 16.74 18.24C16.79 17.99 16.82 17.78 16.84 17.61C16.87 17.82 16.91 18.08 16.96 18.39C17.01 18.7 17.06 18.91 17.08 19.01L17.63 21.5H19.45L20.86 15.79H19.37Z" fill="black"/>
</svg>
