<svg height="24" viewBox="0 0 24 24" width="24" xmlns="http://www.w3.org/2000/svg"><path d="m12 10.3125h1.125v3.375h-1.125zm-5.625 1.125h1.125v-1.125h-1.125zm14.625-6.1875v13.5c0 1.2426407-1.0073593 2.25-2.25 2.25h-13.5c-1.24264069 0-2.25-1.0073593-2.25-2.25v-13.5c0-1.24264069 1.00735931-2.25 2.25-2.25h13.5c1.2426407 0 2.25 1.00735931 2.25 2.25m-11.8125 5.0625c0-.93198052-.75551948-1.6875-1.6875-1.6875h-2.8125v6.75h1.6875v-2.25h1.125c.93198052 0 1.6875-.7555195 1.6875-1.6875zm5.625 0c0-.93198052-.7555195-1.6875-1.6875-1.6875h-2.8125v6.75h2.8125c.9319805 0 1.6875-.7555195 1.6875-1.6875zm4.5-1.6875h-3.375v6.75h1.6875v-2.25h1.6875v-1.6875h-1.6875v-1.125h1.6875z" fill="#3f3f3f"/></svg>