<svg width="24" height="24" viewBox="0 0 24 24" fill="none" xmlns="http://www.w3.org/2000/svg">
<path d="M12 1C12.6074 1 13.0994 1.49228 13.0996 2.09961V7.73828C13.5031 7.84209 13.8834 8.00326 14.2334 8.20996L18.2227 4.22168C18.6522 3.79224 19.3488 3.79215 19.7783 4.22168C20.2078 4.65121 20.2078 5.34776 19.7783 5.77734L15.7891 9.76562C15.9961 10.1159 16.1578 10.4964 16.2617 10.9004H21.9004C22.5077 10.9006 23 11.3926 23 12C23 12.6074 22.5077 13.0994 21.9004 13.0996H16.2617C16.1579 13.5033 15.9959 13.8833 15.7891 14.2334L19.7783 18.2227C20.2078 18.6522 20.2079 19.3488 19.7783 19.7783C19.3488 20.2078 18.6522 20.2078 18.2227 19.7783L14.2334 15.7891C13.8833 15.9959 13.5033 16.1579 13.0996 16.2617V21.9004C13.0994 22.5077 12.6074 23 12 23C11.3926 23 10.9006 22.5077 10.9004 21.9004V16.2617C10.4964 16.1578 10.1159 15.9961 9.76562 15.7891L5.77734 19.7783C5.34776 20.2078 4.65122 20.2079 4.22168 19.7783C3.79214 19.3488 3.79223 18.6522 4.22168 18.2227L8.20996 14.2334C8.00326 13.8834 7.84209 13.5031 7.73828 13.0996H2.09961C1.49228 13.0994 1 12.6074 1 12C1 11.3926 1.49228 10.9006 2.09961 10.9004H7.73828C7.84216 10.4966 8.00306 10.1158 8.20996 9.76562L4.22168 5.77734C3.79225 5.34776 3.79217 4.65121 4.22168 4.22168C4.65121 3.79215 5.34776 3.79224 5.77734 4.22168L9.76562 8.20996C10.1158 8.00306 10.4966 7.84216 10.9004 7.73828V2.09961C10.9006 1.49228 11.3926 1 12 1ZM12 9.7998C10.785 9.7998 9.7998 10.785 9.7998 12C9.79981 13.215 10.785 14.2002 12 14.2002C13.215 14.2002 14.2002 13.215 14.2002 12C14.2002 10.785 13.215 9.79981 12 9.7998Z" fill="#454545"/>
</svg>
