<svg width="24" height="24" viewBox="0 0 24 24" fill="none" xmlns="http://www.w3.org/2000/svg">
<path fill-rule="evenodd" clip-rule="evenodd" d="M17.9982 2C19.0982 2 19.9982 2.9 19.9982 4V20C19.9982 21.1 19.0982 22 17.9982 22H5.99815C4.89815 22 3.99815 21.1 3.99815 20L4 19H2.00011C2 18.5 2.00036 19.044 2.00011 18.2158C2.00011 17.3874 2 17.5 2.00011 17H4L3.99815 15H2C2 14.5 2.00036 15.044 2.00011 14.2158C2.00011 13.3874 2 13.5 2 13H3.99815V11H2C2 10.7842 2.00036 11.044 2.00011 10.2158C2.00011 9.38739 2 9.28418 2 9H3.99815V7H2.00011C2 6.78418 2.00036 7.04403 2.00011 6.21582C2.00011 5.38739 2 5.78418 2 5H3.99815V4C3.99815 2.9 4.89815 2 5.99815 2H17.9982ZM8.0001 5.71582V9.71582H16.0001V5.71582H8.0001Z" fill="black"/>
</svg>
