<svg width="24" height="24" viewBox="0 0 24 24" fill="none"
    xmlns="http://www.w3.org/2000/svg">
    <path d="M10.56 20.58H5.07V5.57999H7.07V8.57999H15.07V5.57999H17.07V12.08C17.07 12.36 17.3 12.58 17.58 12.58C17.95 12.58 18.23 12.58 18.56 12.58C18.84 12.58 19.07 12.36 19.07 12.08V5.57999C19.07 4.47999 18.17 3.57999 17.07 3.57999H13.89C13.47 2.41999 12.37 1.57999 11.07 1.57999C9.77 1.57999 8.67 2.41999 8.25 3.57999H5.07C3.97 3.57999 3.07 4.47999 3.07 5.57999V20.58C3.07 21.68 3.97 22.58 5.07 22.58H10.57C10.85 22.58 11.07 22.35 11.07 22.08V21.09C11.07 20.81 10.84 20.59 10.57 20.59L10.56 20.58ZM11.06 3.57999C11.61 3.57999 12.06 4.02999 12.06 4.57999C12.06 5.12999 11.61 5.57999 11.06 5.57999C10.51 5.57999 10.06 5.12999 10.06 4.57999C10.06 4.02999 10.51 3.57999 11.06 3.57999Z" fill="black"/>
    <path d="M19.62 14.87L18.99 17.74C18.84 18.45 18.75 18.95 18.71 19.24C18.68 19.02 18.62 18.68 18.54 18.22C18.46 17.76 18.37 17.37 18.29 17.02L17.8 14.86H16.37L15.87 17.02C15.79 17.32 15.71 17.7 15.63 18.15C15.55 18.6 15.48 18.97 15.45 19.23C15.4 18.85 15.3 18.35 15.16 17.72L14.54 14.86H13.05L14.46 20.57H16.28C16.61 19.07 16.8 18.22 16.85 18.01C16.9 17.8 16.94 17.57 16.99 17.32C17.04 17.07 17.07 16.86 17.09 16.69C17.12 16.9 17.16 17.16 17.21 17.47C17.26 17.78 17.31 17.99 17.33 18.09L17.88 20.58H19.7L21.11 14.87H19.62Z" fill="black"/>
</svg>
