<svg width="24" height="24" viewBox="0 0 24 24" fill="none"
    xmlns="http://www.w3.org/2000/svg">
    <path d="M7.29 11.68C6.9 11.29 6.27 11.29 5.88 11.68C5.49 12.07 5.49 12.7 5.88 13.09L8.71 15.92C9.1 16.31 9.73 16.31 10.12 15.92L20.12 5.92001C20.51 5.53001 20.51 4.90001 20.11 4.51001C19.72 4.12001 19.09 4.12001 18.7 4.51001L9.41 13.8L7.29 11.68Z" fill="black"/>
    <path d="M13.55 19.55C12.7 19.86 11.78 20.03 10.83 20.03C6.12 20.03 2.35 15.94 2.88 11.13C3.27 7.61 6 4.72 9.49 4.14C11.3 3.84 13.02 4.16001 14.48 4.92001C14.87 5.12001 15.34 5.05 15.65 4.74C16.13 4.26 16.01 3.45001 15.41 3.14001C13.94 2.39001 12.28 1.98 10.51 2.03C5.37 2.19 1.1 6.37 0.840001 11.5C0.550001 17.27 5.13 22.03 10.83 22.03C12.03 22.03 13.17 21.82 14.24 21.43C14.92 21.18 15.11 20.3 14.59 19.78C14.32 19.51 13.91 19.41 13.55 19.55Z" fill="black"/>
    <path d="M21.96 12.81L21.33 15.68C21.18 16.39 21.09 16.89 21.05 17.18C21.02 16.96 20.96 16.62 20.88 16.16C20.8 15.7 20.71 15.31 20.63 14.96L20.14 12.8H18.71L18.21 14.96C18.13 15.26 18.05 15.64 17.97 16.09C17.89 16.54 17.82 16.91 17.79 17.17C17.74 16.79 17.64 16.29 17.5 15.66L16.88 12.8H15.39L16.8 18.51H18.62C18.95 17.01 19.14 16.16 19.19 15.95C19.24 15.74 19.28 15.51 19.33 15.26C19.38 15.01 19.41 14.8 19.43 14.63C19.46 14.84 19.5 15.1 19.55 15.41C19.6 15.72 19.65 15.93 19.67 16.03L20.22 18.52H22.04L23.45 12.81H21.96Z" fill="black"/>
</svg>
