<svg height="24" viewBox="0 0 24 24" width="24" xmlns="http://www.w3.org/2000/svg"><path d="m5 5 .11619898.0067602c.49579082.05803572.88380102.48252551.88380102.9932398v15h9c.55 0 1 .45 1 1l-.0067602.116199c-.0580357.4957908-.4825255.883801-.9932398.883801h-9c-1.1 0-2-.9-2-2v-15c0-.55.45-1 1-1zm13-4c1.1 0 2 .9 2 2v14c0 1.1-.9 2-2 2h-8c-1.1 0-2-.9-2-2v-14c0-1.1.9-2 2-2zm0 4h-8v10h8zm-3.5 3.2c0-.44.54-.66.85-.35l1.29 1.29c.2.2.2.51 0 .71l-1.29 1.29c-.31.32-.85.1-.85-.35v-.54h-2v.99c0 .41-.34.75-.75.75l-.1008854-.0069271c-.3634202-.0502257-.6491146-.3672396-.6491146-.7430729v-1.5c0-.55.45-1 1-1h2.5z" fill="#3f3f3f" fill-rule="evenodd"/></svg>