<svg height="24" viewBox="0 0 24 24" width="24" xmlns="http://www.w3.org/2000/svg"><path d="m19.5 4c.83 0 1.5.67 1.5 1.5v13c0 .83-.67 1.5-1.5 1.5-.83 0-1.5-.67-1.5-1.5v-13c0-.83.67-1.5 1.5-1.5zm-15 9c.83 0 1.5.67 1.5 1.5v4c0 .83-.67 1.5-1.5 1.5-.83 0-1.5-.67-1.5-1.5v-4c0-.83.67-1.5 1.5-1.5zm11-9c.83 0 1.5.67 1.5 1.5 0 .83-.67 1.5-1.5 1.5-.83 0-1.5-.67-1.5-1.5 0-.83.67-1.5 1.5-1.5zm-4 1c.83 0 1.5.67 1.5 1.5v1c0 .83-.67 1.5-1.5 1.5-.83 0-1.5-.67-1.5-1.5v-1c0-.83.67-1.5 1.5-1.5zm-3 5c.83 0 1.5.67 1.5 1.5v1c0 .83-.67 1.5-1.5 1.5-.83 0-1.5-.67-1.5-1.5v-1c0-.83.67-1.5 1.5-1.5z" fill="#3f3f3f" fill-rule="evenodd"/></svg>