<svg height="24" viewBox="0 0 24 24" width="24" xmlns="http://www.w3.org/2000/svg"><path d="m9 11h6c.55 0 1 .45 1 1 0 .55-.45 1-1 1h-6c-.55 0-1-.45-1-1 0-.55.45-1 1-1zm11.93 1c.62 0 1.07-.59.93-1.19-.54-2.19-2.51-3.81-4.86-3.81h-3.05c-.52 0-.95.43-.95.95 0 .52.43.95.95.95h3.05c1.45 0 2.67 1 3.01 2.34.11.44.47.76.92.76zm-16.97-.62c.28-1.47 1.66-2.48 3.16-2.48h2.93c.52 0 .95-.43.95-.95 0-.52-.43-.95-.95-.95h-2.83c-2.61 0-4.94 1.91-5.19 4.51-.29 2.98 2.05 5.49 4.97 5.49h3.05c.52 0 .95-.43.95-.95 0-.52-.43-.95-.95-.95h-3.05c-1.91 0-3.42-1.74-3.04-3.72zm14.04.62c-.55 0-1 .45-1 1v2h-2c-.55 0-1 .45-1 1 0 .55.45 1 1 1h2v2c0 .55.45 1 1 1 .55 0 1-.45 1-1v-2h2c.55 0 1-.45 1-1 0-.55-.45-1-1-1h-2v-2c0-.55-.45-1-1-1z" fill="#3f3f3f" fill-rule="evenodd"/></svg>