<svg height="24" viewBox="0 0 24 24" width="24" xmlns="http://www.w3.org/2000/svg"><path d="m12 2c5.52 0 10 4.48 10 10s-4.47 10-10 10-10-4.47-10-10 4.47-10 10-10zm0 2c-4.42 0-8 3.58-8 8s3.58 8 8 8 8-3.58 8-8-3.58-8-8-8zm0 4.5c.91 0 2.75.47 2.75 1.38v4.12c0 .28-.22.5-.5.5h-1v3.25c0 .69-.56 1.25-1.25 1.25s-1.25-.56-1.25-1.25v-3.25h-1c-.28 0-.5-.22-.5-.5v-4.12c0-.92 1.84-1.38 2.75-1.38zm0-3.5c.8284271 0 1.5.67157288 1.5 1.5s-.6715729 1.5-1.5 1.5-1.5-.67157288-1.5-1.5.6715729-1.5 1.5-1.5z" fill="#3f3f3f" fill-rule="evenodd"/></svg>