<svg height="24" viewBox="0 0 24 24" width="24" xmlns="http://www.w3.org/2000/svg"><path d="m12 2c-5.52 0-10 4.48-10 10s4.48 10 10 10 10-4.48 10-10-4.48-10-10-10zm.91 16.15c-.31.31-.85.09-.85-.35v-.8c-.02 0-.04 0-.06 0-1.28 0-2.56-.49-3.54-1.46-1.43-1.43-1.81-3.52-1.14-5.3.19-.51.86-.64 1.24-.25.22.22.27.54.17.82-.46 1.24-.2 2.68.8 3.68.7.7 1.62 1.03 2.54 1.01v-.94c0-.45.54-.67.85-.35l1.62 1.62c.2.2.2.51 0 .71zm2.53-4.13c-.22-.22-.27-.54-.17-.82.46-1.24.2-2.68-.8-3.68-.7-.7-1.62-1.04-2.53-1.02v.94c0 .45-.54.67-.85.35l-1.63-1.61c-.2-.2-.2-.51 0-.71l1.62-1.62c.31-.31.85-.09.85.35v.81c1.3-.02 2.61.45 3.6 1.45 1.43 1.43 1.81 3.52 1.14 5.3-.19.52-.85.65-1.23.26z" fill="#3f3f3f" fill-rule="evenodd"/></svg>