<svg height="24" viewBox="0 0 24 24" width="24" xmlns="http://www.w3.org/2000/svg"><path d="m12.58 9.75-.87-.87.23-.66h.1zm-2.23-2.23.2-.52c.23-.6.8-1 1.45-1s1.22.4 1.45 1l2.17 5.79 6.38 6.38v-15.17c0-1.1-.9-2-2-2h-15.17zm10.84 15.09c-.39.39-1.02.39-1.41 0l-.61-.61h-15.17c-1.1 0-2-.9-2-2v-15.17l-.61-.61c-.39-.39-.39-1.02 0-1.41.39-.39 1.02-.39 1.41 0l18.38 18.38c.4.39.4 1.03.01 1.42zm-9.09-7.68-3.3-3.3-1.9 5.07c-.23.63.23 1.3.9 1.3h.01c.41 0 .77-.26.9-.64l.86-2.43z" fill="#3f3f3f" fill-rule="evenodd"/></svg>