<svg height="24" viewBox="0 0 24 24" width="24" xmlns="http://www.w3.org/2000/svg"><path d="m5 5h2v1c0 1.1.9 2 2 2h6c1.1 0 2-.9 2-2v-1h2v5h2v-5c0-1.1-.9-2-2-2h-4.18c-.42-1.16-1.52-2-2.82-2s-2.4.84-2.82 2h-4.18c-1.1 0-2 .9-2 2v14c0 1.1.9 2 2 2h6v-2h-6zm15.25 7.25c.41-.41 1.09-.41 1.5 0s.41 1.09-.01 1.5l-5.53 5.54c-.39.39-1.02.39-1.41 0l-3.05-3.04c-.41-.41-.41-1.09 0-1.5l.1011288-.0873373c.4204097-.3202367 1.0204097-.2911242 1.3988712.0873373l2.26 2.25zm-8.25-9.25c.55 0 1 .45 1 1s-.45 1-1 1-1-.45-1-1 .45-1 1-1z"/></svg>