<svg height="24" viewBox="0 0 24 24" width="24" xmlns="http://www.w3.org/2000/svg"><path d="m15.32 3c.26 0 .52.11.71.3l4.68 4.68c.18.18.29.44.28.7v6.64c0 .27-.1.52-.29.71l-4.68 4.68c-.19.18-.44.29-.71.29h-6.63c-.26 0-.52-.11-.71-.3l-4.68-4.68c-.18-.19-.29-.44-.29-.71v-6.63c0-.26.11-.52.29-.7l4.69-4.69c.18-.18.44-.29.7-.29zm-.42 2h-5.8l-4.1 4.1v5.8l4.1 4.1h5.8l4.1-4.1v-5.8zm-2.9 10c.5522847 0 1 .4477153 1 1s-.4477153 1-1 1-1-.4477153-1-1 .4477153-1 1-1zm0-8c.55 0 1 .45 1 1v5c0 .55-.45 1-1 1s-1-.45-1-1v-5c0-.55.45-1 1-1z" fill="#3f3f3f" fill-rule="evenodd"/></svg>