<svg height="24" viewBox="0 0 24 24" width="24" xmlns="http://www.w3.org/2000/svg"><path d="m12 18c1.1045695 0 2 .8954305 2 2s-.8954305 2-2 2-2-.8954305-2-2 .8954305-2 2-2zm2.7-3.35c.4-.39 1.03-.39 1.42 0l2.93 2.94c.39.39.39 1.02 0 1.41s-1.02.39-1.41 0l-2.94-2.94c-.39-.39-.39-1.02 0-1.41zm-6.81 0c.39-.39 1.02-.39 1.41 0s.39 1.03 0 1.41l-2.94 2.93c-.39.39-1.02.39-1.41 0s-.39-1.02 0-1.41zm12.11-4.65c1.1045695 0 2 .8954305 2 2s-.8954305 2-2 2-2-.8954305-2-2 .8954305-2 2-2zm-16 0c1.1045695 0 2 .8954305 2 2s-.8954305 2-2 2-2-.8954305-2-2 .8954305-2 2-2zm13.64-5.07c.39-.39 1.02-.39 1.41 0s.39 1.02 0 1.42l-2.99 2.98c-.39.39-1.02.39-1.41 0-.39-.4-.39-1.03 0-1.42zm-12.64.01c.39-.39 1.02-.39 1.41 0l2.93 2.94c.39.39.39 1.02.01 1.41-.4.39-1.03.39-1.42 0l-2.93-2.94c-.39-.39-.39-1.02 0-1.41zm7-2.94c1.1045695 0 2 .8954305 2 2s-.8954305 2-2 2-2-.8954305-2-2 .8954305-2 2-2z"/></svg>