<svg height="24" viewBox="0 0 24 24" width="24" xmlns="http://www.w3.org/2000/svg"><path d="m7.34 12c.8 0 1.58.43 1.9 1.17.45 1.08 1.52 1.83 2.76 1.83s2.31-.75 2.76-1.83c.32-.74 1.1-1.17 1.9-1.17h3.34c1.1 0 2 .9 2 2v5c0 1.1-.9 2-2 2h-16c-1.1 0-2-.9-2-2v-5c0-1.1.9-2 2-2zm-3.77-5.46c.38-.39 1.01-.39 1.39 0l2.15 2.17c.38.38.38 1.01 0 1.39l-.01.01c-.38.38-1.01.38-1.4 0-.62-.63-1.52-1.55-2.15-2.17-.39-.38-.39-1 0-1.39zm15.49.01c.38-.38 1.01-.38 1.39 0l.0809467.09173418c.2968048.38223032.2698225.93749659-.0809467 1.28826582-.63.63-1.53 1.54-2.15 2.17-.39.39-1.01.39-1.4 0l-.01-.01c-.39-.38-.39-1.01 0-1.39zm-7.04-3.55c.54 0 .98.44.98.98v3.04c0 .54-.44.98-.99.98h-.03c-.54 0-.98-.44-.98-.99v-3.03c0-.54.44-.98.99-.98z"/></svg>