<svg height="24" viewBox="0 0 24 24" width="24" xmlns="http://www.w3.org/2000/svg"><path d="m15 2c-2.71 0-5.05 1.54-6.22 3.78-1.28.67-2.34 1.72-3 3-2.24 1.17-3.78 3.51-3.78 6.22 0 3.87 3.13 7 7 7 2.71 0 5.05-1.54 6.22-3.78 1.28-.67 2.34-1.72 3-3 2.24-1.17 3.78-3.51 3.78-6.22 0-3.87-3.13-7-7-7zm-6 18c-2.76 0-5-2.24-5-5 0-1.12.37-2.16 1-3 0 3.87 3.13 7 7 7-.84.63-1.88 1-3 1zm3-3c-2.76 0-5-2.24-5-5 0-1.12.37-2.16 1-3 0 3.86 3.13 6.99 7 7-.84.63-1.88 1-3 1zm4.7-3.3c-.53.19-1.1.3-1.7.3-2.76 0-5-2.24-5-5 0-.6.11-1.17.3-1.7.53-.19 1.1-.3 1.7-.3 2.76 0 5 2.24 5 5 0 .6-.11 1.17-.3 1.7zm2.3-1.7c0-3.86-3.13-6.99-7-7 .84-.63 1.87-1 3-1 2.76 0 5 2.24 5 5 0 1.12-.37 2.16-1 3z" fill="#3f3f3f" fill-rule="evenodd"/></svg>