<svg height="24" viewBox="0 0 24 24" width="24" xmlns="http://www.w3.org/2000/svg"><path d="m19.46 8 .79-1.75 1.75-.79c.39-.18.39-.73 0-.91l-1.75-.79-.79-1.76c-.18-.39-.73-.39-.91 0l-.79 1.75-1.76.79c-.39.18-.39.73 0 .91l1.75.79.79 1.76c.18.39.74.39.92 0zm-7.96 1.5-1.59-3.5c-.35-.78-1.47-.78-1.82 0l-1.59 3.5-3.5 1.59c-.78.36-.78 1.47 0 1.82l3.5 1.59 1.59 3.5c.36.78 1.47.78 1.82 0l1.59-3.5 3.5-1.59c.78-.36.78-1.47 0-1.82zm7.04 6.5-.79 1.75-1.75.79c-.39.18-.39.73 0 .91l1.75.79.79 1.76c.18.39.73.39.91 0l.79-1.75 1.76-.79c.39-.18.39-.73 0-.91l-1.75-.79-.79-1.76c-.18-.39-.74-.39-.92 0z" fill="#3f3f3f" fill-rule="evenodd"/></svg>