<svg height="24" viewBox="0 0 24 24" width="24" xmlns="http://www.w3.org/2000/svg"><path d="m13.47 6.29c.39-.39 1.02-.39 1.41 0l2.83 2.83c.39.39.39 1.03-.01 1.41l-11.17 11.17c-.39.39-1.02.39-1.41 0l-2.83-2.83c-.39-.39-.39-1.02 0-1.41zm6.08 7.21c.17-.39.73-.39.9-.01l.49 1.06 1.06.49c.39.18.39.73 0 .91l-1.05.5-.49 1.06c-.18.39-.73.39-.91 0l-.49-1.06-1.06-.49c-.39-.18-.39-.73 0-.91l1.06-.49zm-5.37-5.08-1.38 1.38 1.41 1.41 1.38-1.38zm5.36-6.42c.18-.39.73-.39.91 0l.49 1.05 1.06.49c.39.18.39.73 0 .91l-1.06.49-.49 1.06c-.17.39-.73.39-.9 0l-.49-1.05-1.06-.49c-.39-.18-.39-.73 0-.91l1.05-.49zm-11.49 0c.17-.39.73-.39.9 0l.49 1.06 1.06.48c.39.18.39.73 0 .91l-1.06.49-.49 1.06c-.17.39-.73.39-.9 0l-.49-1.05-1.06-.49c-.39-.18-.39-.73 0-.91l1.06-.49z" fill="#3f3f3f" fill-rule="evenodd"/></svg>