<svg height="24" viewBox="0 0 24 24" width="24" xmlns="http://www.w3.org/2000/svg"><path d="m2.19404188 3.42692308c.39146108-.30461539.95595812-.27692308 1.31595812.08307692l16.96 16.97c.39.39.39 1.02 0 1.41l-.0940419.0830769c-.3914611.3046154-.9559581.2769231-1.3159581-.0830769l-6.36-6.36-6.17 6.17c-.39.39-1.02.39-1.41 0l-2.83-2.83c-.39-.39-.39-1.02 0-1.41l6.17-6.17-6.36-6.36c-.39-.39-.39-1.02 0-1.42zm11.26595812 2.86307692c.39-.39 1.02-.39 1.41 0l2.83 2.83c.39.39.39 1.02 0 1.41l-2.17 2.17-1.41-1.41 1.46-1.46-1.41-1.41-1.47 1.45-1.41-1.41zm6.08-4.29c.18-.39.73-.39.91 0l.49 1.06 1.06.49c.39.17.39.73 0 .9l-1.05.49-.49 1.06c-.18.39-.73.39-.91 0l-.49-1.05-1.06-.49c-.39-.18-.39-.73 0-.91l1.05-.49z" fill="#3f3f3f" fill-rule="evenodd"/></svg>