<svg height="24" viewBox="0 0 24 24" width="24" xmlns="http://www.w3.org/2000/svg"><path d="m4 17 .11619898.0067602c.49579082.0580357.88380102.4825255.88380102.9932398v3c0 .55-.45 1-1 1l-.11619898-.0067602c-.49579082-.0580357-.88380102-.4825255-.88380102-.9932398v-3c0-.55.45-1 1-1zm4 0 .11619898.0067602c.49579082.0580357.88380102.4825255.88380102.9932398v3c0 .55-.45 1-1 1l-.11619898-.0067602c-.49579082-.0580357-.88380102-.4825255-.88380102-.9932398v-3c0-.55.45-1 1-1zm4 0 .116199.0067602c.4957908.0580357.883801.4825255.883801.9932398v3c0 .55-.45 1-1 1l-.116199-.0067602c-.4957908-.0580357-.883801-.4825255-.883801-.9932398v-3c0-.55.45-1 1-1zm8 0c.55 0 1 .45 1 1v3c0 .55-.45 1-1 1h-4c-.55 0-1-.45-1-1v-3c0-.55.45-1 1-1zm-8-14c3.31 0 6 2.69 6 6s-2.69 6-6 6-6-2.69-6-6 2.69-6 6-6zm0 2-.1246228.00838134c-.3263649.04433471-.6009328.26161866-.7253772.58161866l-2.12 5.65c-.14.37.14.76.53.76l.08839844-.0068945c.20207031-.0318555.37160156-.1718555.44160156-.3731055l.5-1.41h2.83l.49 1.41c.08.23.29.38.53.38l.0898726-.0067365c.3492398-.0531452.5693582-.411725.4401274-.7532635l-2.12-5.65c-.14-.36-.47-.59-.85-.59zm.03 1.3 1.02 2.89h-2.1l1.02-2.89z" fill="#3f3f3f" fill-rule="evenodd"/></svg>