<svg height="24" viewBox="0 0 24 24" width="24" xmlns="http://www.w3.org/2000/svg"><path d="m12 2c1.45 0 2.83.32 4.07.87-.53.37-.87.97-.87 1.63 0 .78.46 1.49 1.17 1.82l.9.41.41.9c.33.71 1.04 1.17 1.82 1.17.66 0 1.26-.34 1.63-.87.55 1.24.87 2.62.87 4.07 0 5.52-4.48 10-10 10s-10-4.48-10-10 4.48-10 10-10zm-2.26 4.31c-1.05 2.56-3.14 4.57-5.74 5.55.01.04 0 .09 0 .14 0 4.41 3.59 8 8 8s8-3.59 8-8c0-.78-.12-1.53-.33-2.24-.7.15-1.42.24-2.17.24-3.13 0-5.92-1.44-7.76-3.69zm-.74 5.44c.69035594 0 1.25.5596441 1.25 1.25s-.55964406 1.25-1.25 1.25-1.25-.5596441-1.25-1.25.55964406-1.25 1.25-1.25zm6 0c.6903559 0 1.25.5596441 1.25 1.25s-.5596441 1.25-1.25 1.25-1.25-.5596441-1.25-1.25.5596441-1.25 1.25-1.25zm4.04-9.76c.18-.39.73-.39.91 0l.65 1.41 1.41.65c.39.17.39.73 0 .9l-1.41.65-.64 1.41c-.18.39-.73.39-.91 0l-.65-1.41-1.41-.64c-.39-.18-.39-.73 0-.91l1.41-.65z" fill="#3f3f3f" fill-rule="evenodd"/></svg>