<svg height="24" viewBox="0 0 24 24" width="24" xmlns="http://www.w3.org/2000/svg"><path d="m2.69404188 2.92692308c.39146108-.30461539.95595812-.27692308 1.31595812.08307692l16.97 16.98c.39.39.39 1.02 0 1.41l-.0940419.0830769c-.3914611.3046154-.9559581.2769231-1.3159581-.0830769l-1.48-1.48c-2.04 1.57-4.7 2.39-7.55 1.98-4.33-.62-7.82-4.11-8.44-8.44-.4-2.86.41-5.51 1.98-7.55l-1.48-1.48c-.39-.39-.39-1.02 0-1.42zm4.94595812 6.54307692c-1.01 1.04-2.25 1.87-3.64 2.39.01.04 0 .09 0 .14 0 4.41 3.59 8 8 8 1.74 0 3.35-.56 4.66-1.51zm4.36-7.47c5.52 0 10 4.48 10 10 0 1.78-.47 3.44-1.28 4.89l-1.49-1.49c.49-1.03.77-2.18.77-3.4 0-.78-.12-1.53-.33-2.24-.7.15-1.42.24-2.17.24-1.85 0-3.57-.51-5.06-1.39l-5.33-5.33c1.45-.81 3.11-1.28 4.89-1.28zm-3 9.75c.69035594 0 1.25.5596441 1.25 1.25s-.55964406 1.25-1.25 1.25-1.25-.5596441-1.25-1.25.55964406-1.25 1.25-1.25z" fill="#3f3f3f" fill-rule="evenodd"/></svg>