<svg height="24" viewBox="0 0 24 24" width="24" xmlns="http://www.w3.org/2000/svg"><path d="m12 2c5.52 0 10 4.48 10 10s-4.48 10-10 10-10-4.48-10-10 4.48-10 10-10zm-1.5 11h-2.5c-.55 0-1 .45-1 1v4.31c0 .38.31.69.69.69h.12c.38 0 .69-.31.69-.69v-1.31h1.1l.72 1.59c.11.25.36.41.63.41l.0977541-.0066341c.4451792-.0611437.7289126-.5340326.5422459-.9633659l-.49-1.13c.5-.3.9-.8.9-1.4v-1c0-.82-.68-1.5-1.5-1.5zm4.75 0-.1008854.0069271c-.3634202.0502257-.6491146.3672396-.6491146.7430729v.75h-.75c-.41 0-.75.34-.75.75l.0069271.1008854c.0502257.3634202.3672396.6491146.7430729.6491146h.75v.75c0 .41.34.75.75.75l.1008854-.0069271c.3634202-.0502257.6491146-.3672396.6491146-.7430729v-.75h.75c.41 0 .75-.34.75-.75v-.01c0-.41-.34-.75-.75-.75h-.75v-.74c0-.41-.34-.75-.75-.75zm-4.75 1.5v1h-2v-1zm.75-8.5-.1008854.00692708c-.3634202.0502257-.6491146.36723959-.6491146.74307292v1.25h-2v-1.25c0-.41-.34-.75-.75-.75l-.10088542.00692708c-.36342014.0502257-.64911458.36723959-.64911458.74307292v4.5c0 .41.34.75.75.75l.10088542-.0069271c.36342014-.0502257.64911458-.3672396.64911458-.7430729v-1.75h2v1.75c0 .41.34.75.75.75l.1008854-.0069271c.3634202-.0502257.6491146-.3672396.6491146-.7430729v-4.5c0-.41-.34-.75-.75-.75zm4.75 0h-2.5c-.28 0-.5.22-.5.5v5c0 .28.22.5.5.5h2.5c.83 0 1.5-.68 1.5-1.5v-3c0-.82-.67-1.5-1.5-1.5zm0 1.5v3h-1.5v-3z" fill="#3f3f3f" fill-rule="evenodd"/></svg>