<svg height="24" viewBox="0 0 24 24" width="24" xmlns="http://www.w3.org/2000/svg"><path d="m10 16c.82 0 1.5.67 1.5 1.5v3c0 .83-.68 1.5-1.5 1.5h-3c-.28 0-.5-.22-.5-.5v-5c0-.28.22-.5.5-.5zm6.5 0c.83 0 1.5.67 1.5 1.5v1c0 .6-.4 1.1-.9 1.4l.48 1.13c.19.46-.14.97-.64.97l-.1000781-.0073633c-.2302344-.0340429-.4336719-.1838867-.5299219-.4026367l-.72-1.59h-1.1v1.31c0 .38-.31.69-.69.69h-.11c-.38 0-.69-.31-.69-.69v-4.31c0-.55.45-1 1-1zm-12.25 0 .10088542.0069271c.36342014.0502257.64911458.3672396.64911458.7430729v4.5c0 .41-.34.75-.75.75l-.10088542-.0069271c-.36342014-.0502257-.64911458-.3672396-.64911458-.7430729v-1.75h-2v1.75c0 .41-.34.75-.75.75l-.10088542-.0069271c-.36342014-.0502257-.64911458-.3672396-.64911458-.7430729v-4.5c0-.41.34-.75.75-.75l.10088542.0069271c.36342014.0502257.64911458.3672396.64911458.7430729v1.25h2v-1.25c0-.41.34-.75.75-.75zm17 .5.1008854.0069271c.3634202.0502257.6491146.3672396.6491146.7430729v1.25h1.25c.41 0 .75.34.75.75l-.0069271.1008854c-.0502257.3634202-.3672396.6491146-.7430729.6491146h-1.25v1.25c0 .41-.34.75-.75.75l-.1008854-.0069271c-.3634202-.0502257-.6491146-.3672396-.6491146-.7430729v-1.25h-1.25c-.41 0-.75-.34-.75-.75l.0069271-.1008854c.0502257-.3634202.3672396-.6491146.7430729-.6491146h1.25v-1.25c0-.41.34-.75.75-.75zm-11.25 1h-2v3h2zm6.5 0h-2v1h2zm-4.5-15.5c3.31 0 6 2.69 6 6s-2.69 6-6 6-6-2.69-6-6 2.69-6 6-6zm0 3-.116199.0067602c-.4957908.05803572-.883801.48252551-.883801.9932398v1h-1c-.55 0-1 .45-1 1l.0067602.11619898c.05803572.49579082.48252551.88380102.9932398.88380102h1v1c0 .55.45 1 1 1l.116199-.0067602c.4957908-.0580357.883801-.4825255.883801-.9932398v-1h1c.55 0 1-.45 1-1l-.0067602-.11619898c-.0580357-.49579082-.4825255-.88380102-.9932398-.88380102h-1v-1c0-.55-.45-1-1-1z" fill="#3f3f3f" fill-rule="evenodd"/></svg>