<svg height="24" viewBox="0 0 24 24" width="24" xmlns="http://www.w3.org/2000/svg"><path d="m6.25 9c.41 0 .75.34.75.75v4.5c0 .41-.34.75-.75.75s-.75-.34-.75-.75v-1.75h-1v1.75c0 .41-.34.75-.75.75s-.75-.34-.75-.75v-4.5c0-.41.34-.75.75-.75s.75.34.75.75v1.25h1v-1.25c0-.41.34-.75.75-.75zm4.5 0c.41 0 .75.34.75.75s-.34.75-.75.75h-1.25v.5h1.25c.41 0 .75.34.75.75s-.34.75-.75.75h-1.25v1h1.25c.41 0 .75.34.75.75s-.34.75-.75.75h-1.75c-.55 0-1-.45-1-1v-4c0-.55.45-1 1-1zm4.88 0c.45 0 .8.41.73.86l-.65 3.91c-.12.71-.73 1.23-1.46 1.23s-1.34-.52-1.46-1.23l-.65-3.91c-.07-.45.27-.86.73-.86.36 0 .67.26.73.62l.65 3.88.65-3.88c.06-.36.37-.62.73-.62zm4.37 0c.55 0 1 .45 1 1v.5c0 .28-.22.5-.5.5h-.5c-.28 0-.5-.22-.5-.5h-1v3h1c0-.28.22-.5.5-.5h.5c.28 0 .5.22.5.5v.5c0 .55-.45 1-1 1h-2c-.55 0-1-.45-1-1v-4c0-.55.45-1 1-1z" fill="#3f3f3f" fill-rule="evenodd"/></svg>