<svg height="24" viewBox="0 0 24 24" width="24" xmlns="http://www.w3.org/2000/svg"><path d="m9.22 7h-4.44c-.48-.53-.78-1.23-.78-2 0-1.66 1.34-3 3-3s3 1.34 3 3c0 .77-.3 1.47-.78 2zm7.02-4.99c2.08.12 3.76 2.07 3.76 4.15v14.84c0 .55-.45 1-1 1-.55 0-1-.45-1-1v-14.91c0-.96-.64-1.86-1.58-2.05-1.28-.26-2.42.72-2.42 1.96v11.84c0 2.08-1.68 4.03-3.76 4.15-2.32.14-4.24-1.7-4.24-3.99h-.55c-.26 0-.47-.19-.5-.45l-.84-8.45c-.06-.59.4-1.1.99-1.1h3.8c.59 0 1.05.51 1 1.1l-.85 8.45c-.03.26-.25.45-.5.45h-.55c0 1.24 1.14 2.22 2.42 1.96.94-.19 1.58-1.09 1.58-2.05v-11.91c0-2.29 1.92-4.13 4.24-3.99z" fill="#3f3f3f" fill-rule="evenodd"/></svg>