<svg height="24" viewBox="0 0 24 24" width="24" xmlns="http://www.w3.org/2000/svg"><path d="m1.48421029 2.72692308c.39277196-.30461539.96578971-.27692308 1.32578971.08307692l18.38 18.39c.39.39.39 1.02 0 1.41l-.0940419.0830769c-.3914611.3046154-.9559581.2769231-1.3159581-.0830769l-5.78-5.78v1c0 2.09-1.53 3.95-3.61 4.15-2.38.23-4.39-1.64-4.39-3.98h-.55c-.25 0-.47-.19-.5-.45l-.85-8.45c-.05-.59.41-1.1 1-1.1h.07l-3.78-3.78c-.39-.39-.39-1.02 0-1.41zm8.08578971 9.66307692-.52 5.16c-.03.26-.24.45-.5.45h-.55c0 1.24 1.14 2.22 2.42 1.96.94-.19 1.58-1.09 1.58-2.05v-3.08zm6.4663709-10.38725346.2036291.00725346c2.08.12 3.76 2.07 3.76 4.15v11.01l-2-2v-9.08c0-.96-.64-1.85-1.58-2.05-1.28-.26-2.42.72-2.42 1.96v5.17l-2-2v-3.17c0-2.29 1.92-4.13 4.24-3.99zm-9.0363709-.00274654c1.66 0 3 1.34 3 3 0 .61-.2 1.18-.52 1.65l-4.15-4.15c.48-.31 1.05-.5 1.67-.5z" fill="#3f3f3f" fill-rule="evenodd"/></svg>