<svg height="24" viewBox="0 0 24 24" width="24" xmlns="http://www.w3.org/2000/svg"><path d="m2.19420574 3.42708694c.39271734-.30335913.96502503-.26785617 1.31579426.08291306l16.98 16.99c.39.39.39 1.02 0 1.41l-.0942103.0830769c-.3927719.3046154-.9657897.2769231-1.3257897-.0830769l-1.56-1.56c-1.88 1.25-4.2 1.87-6.69 1.59-4.54-.52-8.23-4.21-8.75-8.75-.29-2.49.34-4.82 1.59-6.7l-1.56-1.56c-.39-.39-.39-1.03 0-1.42zm2.92579426 4.51291306c-.71 1.2-1.12 2.58-1.12 4.06 0 4.41 3.59 8 8 8 1.48 0 2.86-.41 4.05-1.12l-1.47-1.47c-.78.37-1.66.59-2.58.59-3.31 0-6-2.69-6-6 0-.92.22-1.8.59-2.59zm6.88-5.94c5.52 0 10 4.48 10 10 0 2.04-.61 3.93-1.67 5.5l-1.45-1.45c.71-1.19 1.12-2.57 1.12-4.05 0-4.41-3.59-8-8-8-1.48 0-2.86.41-4.06 1.11l-1.45-1.45c1.58-1.05 3.47-1.66 5.51-1.66zm0 4c3.31 0 6 2.69 6 6 0 .92-.22 1.8-.59 2.58l-7.99-7.99c.78-.37 1.66-.59 2.58-.59z" fill="#3f3f3f" fill-rule="evenodd"/></svg>