<svg height="24" viewBox="0 0 24 24" width="24" xmlns="http://www.w3.org/2000/svg"><path d="m19 3h-14c-1.1 0-2 .9-2 2v14c0 1.1.9 2 2 2h14c1.1 0 2-.9 2-2v-14c0-1.1-.9-2-2-2zm-12 6h4.5c.55 0 1 .45 1 1v4.25c0 .41-.34.75-.75.75-.41 0-.75-.34-.75-.75v-3.75h-1v2.25c0 .41-.34.75-.75.75-.41 0-.75-.34-.75-.75v-2.25h-1v3.75c0 .41-.34.75-.75.75-.41 0-.75-.34-.75-.75v-4.25c0-.55.45-1 1-1zm7.25 6c-.41 0-.75-.33-.75-.75v-4.25c0-.55.45-1 1-1h2.5c.55 0 1 .45 1 1v2.5c0 .55-.45 1-1 1h-2v.75c0 .41-.34.75-.75.75zm.75-3h1.5v-1.5h-1.5z" fill="#3f3f3f" fill-rule="evenodd"/></svg>