<svg height="24" viewBox="0 0 24 24" width="24" xmlns="http://www.w3.org/2000/svg"><path d="m21.95 8.15c-.29-.16-.61-.31-.93-.46-1.62-3.36-5.04-5.69-9.02-5.69s-7.4 2.33-9.01 5.68c-.33.15-.64.3-.93.46-.65.36-1.06 1.03-1.06 1.77v4.18c0 .74.41 1.41 1.05 1.77.29.16.61.31.93.46 1.62 3.35 5.04 5.68 9.02 5.68s7.4-2.33 9.01-5.68c.33-.15.64-.3.93-.46.65-.36 1.06-1.03 1.06-1.77v-4.18c0-.74-.41-1.41-1.05-1.76zm-9.95-4.15c2.37 0 4.49 1.04 5.95 2.68-1.78-.43-3.8-.68-5.95-.68s-4.17.25-5.95.68c1.46-1.64 3.58-2.68 5.95-2.68zm0 16c-2.37 0-4.49-1.04-5.95-2.68 1.78.43 3.8.68 5.95.68s4.17-.25 5.95-.68c-1.46 1.64-3.58 2.68-5.95 2.68z" fill="#3f3f3f" fill-rule="evenodd"/></svg>