<svg height="24" viewBox="0 0 24 24" width="24" xmlns="http://www.w3.org/2000/svg"><path d="m6.5 9c.82 0 1.5.68 1.5 1.5v1c0 .6-.4 1.1-.9 1.4l.49 1.13c.19.46-.14.97-.64.97l-.10009766-.0073633c-.23037109-.0340429-.43490234-.1838867-.53990234-.4026367l-.72-1.59h-1.1v1.31c0 .38-.31.69-.69.69h-.11c-.38 0-.69-.31-.69-.69v-4.31c0-.55.45-1 1-1zm5 0c.73 0 1.37.5 1.55 1.22l.97 3.88c.11.46-.24.9-.71.9l-.111262-.0083265c-.2905899-.0438957-.5276269-.2572291-.598738-.5416735l-.23-.95h-1.75l-.24.95c-.08.32-.37.55-.7.55l-.09875-.0065816c-.41885204-.0563776-.71267857-.4662755-.60125-.8934184l.97-3.89c.18-.71.82-1.21 1.55-1.21zm9.05 0 .09875.00658163c.418852.05637755.7126786.46627551.60125.89341837l-1.09 4.38c-.11.42-.49.72-.92.72l-.1158678-.0073028c-.3809917-.0482344-.7041322-.330879-.8041322-.7126972l-.58-2.32-.58 2.32c-.11.42-.49.72-.92.72l-.1158753-.0073028c-.3810668-.0482344-.7050338-.330879-.8141247-.7126972l-1.09-4.38c-.11-.46.24-.9.71-.9l.111262.00832647c.2905899.04389575.5276269.25722909.598738.54167353l.6 2.45.56-2.26c.1-.44.49-.74.94-.74l.1111169.00615741c.4018692.04481481.7372164.33050926.8288831.73384259l.56 2.26.6-2.45c.08-.32.37-.55.71-.55zm-8.8 2h-.5l-.25 1h1zm-5.25-.5h-2v1h2z" fill="#3f3f3f" fill-rule="evenodd"/></svg>