<svg height="24" viewBox="0 0 24 24" width="24" xmlns="http://www.w3.org/2000/svg"><path d="m2.1 3.51c.39-.39 1.02-.39 1.41 0l16.96 16.98c.39.39.39 1.02 0 1.41s-1.02.39-1.41 0l-8.4-8.4h-.04l-.24.95c-.08.32-.37.55-.7.55l-.09875-.0065816c-.41885204-.0563776-.71267857-.4662755-.60125-.8934184l.45-1.84-1.43-1.43v.67c0 .6-.4 1.1-.9 1.4l.49 1.13c.19.46-.14.97-.64.97-.27 0-.52-.16-.64-.41l-.72-1.59h-1.1v1.31c0 .38-.31.69-.69.69h-.11c-.38 0-.69-.31-.69-.69v-4.31c0-.55.45-1 1-1h2.17l-4.07-4.08c-.39-.39-.39-1.02 0-1.41zm18.45 5.49c.47 0 .82.44.7.9l-1.09 4.38c-.11.42-.49.72-.92.72s-.81-.3-.93-.72l-.58-2.32-.58 2.32-.01.03-2.42-2.42-.5-1.99c-.11-.46.24-.9.71-.9.34 0 .63.23.71.55l.6 2.45.56-2.26c.1-.44.49-.74.94-.74s.84.3.94.74l.56 2.26.6-2.45c.08-.32.38-.55.71-.55zm-14.05 1.5h-2v1h2z" fill="#3f3f3f" fill-rule="evenodd"/></svg>