<svg height="24" viewBox="0 0 24 24" width="24" xmlns="http://www.w3.org/2000/svg"><path d="m11 12v-6c0-1.66-1.34-3-3-3s-3 1.34-3 3v6c-1.21.91-2 2.37-2 4 0 1.12.38 2.14 1 2.97v.03h.02c.91 1.21 2.35 2 3.98 2s3.06-.79 3.98-2h.02v-.03c.62-.83 1-1.85 1-2.97 0-1.63-.79-3.09-2-4zm-6 4c0-.94.45-1.84 1.2-2.4l.8-.6v-7c0-.55.45-1 1-1s1 .45 1 1v7l.8.6c.75.57 1.2 1.46 1.2 2.4zm12.81-12c-.48 0-.92.3-1.09.75l-2.72 7.27c-.18.47.17.98.67.98.31 0 .58-.19.68-.48l.65-1.82h3.63l.64 1.82c.1.29.38.48.68.48.51 0 .86-.51.68-.98l-2.73-7.27c-.17-.45-.6-.75-1.09-.75zm-1.34 5.39 1.31-3.72h.08l1.31 3.72z" fill="#3f3f3f" fill-rule="evenodd"/></svg>