<svg height="24" viewBox="0 0 24 24" width="24" xmlns="http://www.w3.org/2000/svg"><path d="m20.69 4.05c-2.03.68-4.83 1.45-8.69 1.45-3.89 0-6.95-.84-8.69-1.43-.64-.22-1.31.26-1.31.95v13.98c0 .68.66 1.17 1.31.95 2.05-.69 4.79-1.45 8.69-1.45 3.87 0 6.66.76 8.69 1.45.65.21 1.31-.27 1.31-.95v-14c0-.68-.66-1.16-1.31-.95zm-3.41 11.21c-1.66-.16-3.44-.26-5.28-.26-1.87 0-3.63.1-5.28.27-.45.04-.72-.48-.43-.82l2.5-3c.2-.24.57-.24.77 0l1.62 1.94 2.44-2.93c.2-.24.57-.24.77 0l3.32 3.99c.28.34.01.86-.43.81z" fill="#3f3f3f" fill-rule="evenodd"/></svg>