<svg height="24" viewBox="0 0 24 24" width="24" xmlns="http://www.w3.org/2000/svg"><path d="m21 18c.55 0 1 .45 1 1s-.45 1-1 1h-18c-.55 0-1-.45-1-1s.45-1 1-1zm-9-9c3.87 0 7 3.13 7 7h-14c0-3.87 3.13-7 7-7zm6.37-1.75c.39-.39 1.02-.39 1.41 0l.0830769.09404188c.3046154.39146108.2769231.95595812-.0830769 1.31595812l-.71.71c-.39.39-1.03.39-1.41 0-.39-.39-.39-1.02 0-1.41zm-14.02595812-.11307692c.39146108-.30461539.95595812-.27692308 1.31595812.08307692l.71.71c.39.39.39 1.02 0 1.41l-.09404188.08307692c-.39146108.30461539-.95595812.27692308-1.31595812-.08307692l-.71-.71c-.39-.39-.39-1.02 0-1.41zm7.65595812-3.13692308.116199.0067602c.4957908.05803572.883801.48252551.883801.9932398v1c0 .55-.44 1-1 1l-.116199-.0067602c-.4957908-.05803572-.883801-.48252551-.883801-.9932398v-1c0-.55.45-1 1-1z" fill="#3f3f3f" fill-rule="evenodd"/></svg>