<svg height="24" viewBox="0 0 24 24" width="24" xmlns="http://www.w3.org/2000/svg"><path d="m3.18 13.72c.2-.38.75-.35.91.05l1.4 3.49-1.05.52c-.95.47-2.09.07-2.38-.94-.11-.41-.07-.83.12-1.19zm16.73.04c.16-.39.71-.42.91-.04l1 1.93c.19.36.23.78.12 1.18-.29 1.01-1.44 1.41-2.38.94l-1.05-.52zm-3.68-4.84c.06-.67.75-1.09 1.37-.84l1.17.47c.77.3 1.14 1.18.83 1.95l-2.6 6.5h-1.51zm-9.83-.84c.62-.25 1.3.17 1.36.84l.74 8.08h-1.5l-2.6-6.5c-.31-.77.06-1.65.83-1.95zm6.96-2.08c.88 0 1.57.76 1.49 1.63l-.85 9.36h-4l-.85-9.35c-.08-.88.61-1.64 1.5-1.64z" fill="#3f3f3f" fill-rule="evenodd"/></svg>