<svg height="24" viewBox="0 0 24 24" width="24" xmlns="http://www.w3.org/2000/svg"><path d="m2.00069152 6.90975589c.03047469-1.96034588 1.10097515-4.23430134 9.65930848-3.87975589-.16.36-1.14 2.37-.37 4.97h-7.29v3h9.11c1.26 1.24 2.98 2 4.89 2v3.5c0 .95-.38 1.81-1 2.44v1.56c0 .83-.68 1.5-1.5 1.5l-.1447059-.0069489c-.7617993-.0735355-1.3552941-.7212864-1.3552941-1.4930511v-.5h-8v.5c0 .83-.67 1.5-1.5 1.5l-.14470588-.0068512c-.76179931-.072526-1.35529412-.7119723-1.35529412-1.4931488v-1.56c-.62-.63-1-1.49-1-2.44zm4.49930848 7.09024411c-.83 0-1.5.67-1.5 1.5s.67 1.5 1.5 1.5 1.5-.67 1.5-1.5-.67-1.5-1.5-1.5zm7 0c-.83 0-1.5.67-1.5 1.5s.67 1.5 1.5 1.5 1.5-.67 1.5-1.5-.67-1.5-1.5-1.5zm4.5-13c2.76 0 5 2.24 5 5s-2.24 5-5 5-5-2.24-5-5 2.24-5 5-5zm0 7c-.28 0-.5.22-.5.5s.22.5.5.5.5-.22.5-.5-.22-.5-.5-.5zm0-5c-.28 0-.5.22-.5.5v3c0 .28.22.5.5.5s.5-.22.5-.5v-3c0-.28-.22-.5-.5-.5z" fill="#3f3f3f" fill-rule="evenodd"/></svg>