<svg height="24" viewBox="0 0 24 24" width="24" xmlns="http://www.w3.org/2000/svg"><path d="m8 7c1.3 0 2.41-.84 2.83-2h5.17v1c0 .55.45 1 1 1s1-.45 1-1v-1c.55 0 1-.45 1-1s-.45-1-1-1h-7.17c-.48-1.35-1.88-2.24-3.43-1.94-1.17.23-2.12 1.19-2.35 2.36-.35 1.9 1.1 3.58 2.95 3.58zm0-4c.55 0 1 .45 1 1s-.45 1-1 1-1-.45-1-1 .45-1 1-1zm8.39 6h-8.78c-.43 0-.81.28-.95.68l-1.66 5.01v6.31c0 .55.45 1 1 1s1-.45 1-1v-1h10v1c0 .55.45 1 1 1s1-.45 1-1v-6.31l-1.66-5.01c-.14-.4-.52-.68-.95-.68zm-7.39 8.5c-.55 0-1-.45-1-1s.45-1 1-1 1 .45 1 1-.45 1-1 1zm6 0c-.55 0-1-.45-1-1s.45-1 1-1 1 .45 1 1-.45 1-1 1zm-7.33-4.5.66-2h7.34l.66 2z" fill="#3f3f3f" fill-rule="evenodd"/></svg>