<svg height="24" viewBox="0 0 24 24" width="24" xmlns="http://www.w3.org/2000/svg"><path d="m19 17.02c.54 0 .99.44.99.99l-.0066144.1142055c-.056804.4877843-.4726713.8757945-.9833856.8757945h-6.01v2.01c0 .54-.44.99-.99.99h-.01c-.54 0-.99-.44-.99-.99v-2.01h-6.01c-.54 0-.99-.45-.99-.99l.00675656-.1161953c.05798834-.4957435.48181487-.8830904.98324344-.8738047zm-2.7119898-14.01966472c.0683163.00369533.5591327.04680758.9119898.52966472.02.03.03.05.05.07.07.11.14.24.19.4.0293333.088.0785778.23591111.1419022.42619259l.16378.49223334c.1217467.36595555.2653334.79764444.41108 1.23586666l.1457378.43820741c.3625 1.09.6975 2.0975.6975 2.0975v6.31c0 .55-.45 1-1 1l-.116199-.0067602c-.4957908-.0580357-.883801-.4825255-.883801-.9932398v-1h-10v1c0 .55-.45 1-1 1l-.11619898-.0067602c-.49579082-.0580357-.88380102-.4825255-.88380102-.9932398v-6.31s.335-1.0075.6975-2.0975l.14573778-.43820741c.14574666-.43822222.28933333-.86991111.41108-1.23586666l.16378-.49223334c.06332444-.19028148.11256889-.33819259.14190222-.42619259.05-.16.12-.29.19-.4l.05-.06c.38-.53.92-.54.92-.54zm-7.2880102 6.49966472c-.55 0-1 .45-1 1s.45 1 1 1 1-.45 1-1-.45-1-1-1zm6 0c-.55 0-1 .45-1 1s.45 1 1 1 1-.45 1-1-.45-1-1-1zm.67-4.5h-7.34l-.66 2h8.66l-.43-1.31z" fill="#3f3f3f" fill-rule="evenodd"/></svg>