<svg height="24" viewBox="0 0 24 24" width="24" xmlns="http://www.w3.org/2000/svg"><path d="m5.94 10.97c.5-1.38 2.26-1.78 3.3-.74l4.53 4.53c1.04 1.04.64 2.81-.74 3.3l-9.04 3.23c-.8.28-1.56-.48-1.28-1.28zm11.12.91c1.07-1.07 2.81-1.07 3.89 0l1.08 1.08c.29.29.29.77 0 1.06l-.0835162.0719008c-.2921863.2157025-.7128474.1917356-.9764838-.0719008l-1.08-1.08c-.49-.49-1.28-.49-1.77 0l-1.06 1.06c-.29.29-.77.29-1.06 0l-.0719008-.0835162c-.2157025-.2921863-.1917356-.7128474.0719008-.9764838zm2-6c1.07-1.07 2.82-1.07 3.89 0l.06.06c.29.29.29.77 0 1.06l-.0835162.07190083c-.2921863.21570248-.7128474.19173553-.9764838-.07190083l-.06-.06c-.49-.49-1.28-.49-1.77 0l-5.06 5.06c-.29.29-.77.29-1.06 0l-.0719008-.0835162c-.2157025-.2921863-.1917356-.7128474.0719008-.9764838zm-4.9764838-3.96190083c.2921863-.21570248.7128474-.19173553.9764838.07190083l1.06 1.06c1.07 1.07 1.07 2.82 0 3.89l-3.06 3.06c-.29.29-.77.29-1.06 0l-.0719008-.08351615c-.2157025-.29218633-.1917356-.71284749.0719008-.97648385l3.06-3.06c.48-.48.48-1.28 0-1.77l-1.06-1.06c-.29-.29-.29-.77 0-1.06zm-3.9999925 2.00752066c.2922614-.22314049.713749-.1983471.9864763.07438017l.05.05c1.07 1.07 1.07 2.82 0 3.89l-.06.06c-.29.29-.77.29-1.06 0l-.07190083-.08351615c-.21570248-.29218633-.19173553-.71284749.07190083-.97648385l.06-.06c.48-.48.48-1.28 0-1.76l-.06-.06c-.29-.29-.29-.77 0-1.06z" fill="#3f3f3f" fill-rule="evenodd"/></svg>