<svg height="24" viewBox="0 0 24 24" width="24" xmlns="http://www.w3.org/2000/svg"><path d="m17 5c1.1 0 2 .9 2 2v2.65c0 .45-.15.89-.44 1.25l-3.48 4.35c-.38.47-.95.75-1.56.75h-3.52c0 1.66-1.34 3-3 3s-3-1.34-3-3h-1c-.55 0-1-.45-1-1v-2c0-2.21 1.79-4 4-4h3c.55 0 1 .45 1 1v4h3.52l3.48-4.35v-2.65h-2c-.55 0-1-.45-1-1l.0067602-.11619898c.0580357-.49579082.4825255-.88380102.9932398-.88380102zm2 8c1.66 0 3 1.34 3 3s-1.34 3-3 3-3-1.34-3-3 1.34-3 3-3zm-11 3h-2c0 .55.45 1 1 1s1-.45 1-1zm11-1c-.55 0-1 .45-1 1s.45 1 1 1 1-.45 1-1-.45-1-1-1zm-10-9c.51071429 0 .93520408.3880102.9932398.88380102l.0067602.11619898c0 .55-.45 1-1 1h-3c-.51071429 0-.93520408-.3880102-.9932398-.88380102l-.0067602-.11619898c0-.55.45-1 1-1z" fill="#3f3f3f" fill-rule="evenodd"/></svg>