<svg height="24" viewBox="0 0 24 24" width="24" xmlns="http://www.w3.org/2000/svg"><path d="m20.8 19c.44 0 .66.54.35.85l-1 1c-.09.1-.22.15-.35.15h-15.59c-.14 0-.26-.05-.36-.15l-1-1c-.31-.31-.09-.85.36-.85zm-11.05-16c1.24 0 2.25 1.01 2.25 2.25h8.25c.41 0 .75.34.75.75s-.34.75-.75.75h-8.25l-.005204.15374566c-.079362 1.16866753-1.0564627 2.09625434-2.244796 2.09625434h-1.75v6.08c.48.09.94.24 1.35.47.79-2.07 2.79-3.55 5.14-3.55 3.2 0 5.77 2.74 5.48 6h-16.97c.22-.61.56-1.15 1-1.61v-7.39h-.25c-.41 0-.75-.34-.75-.75s.34-.75.75-.75h.25v-.75h-.25c-.41 0-.75-.34-.75-.75s.34-.75.75-.75h.25v-.75h-.25c-.41 0-.75-.34-.75-.75s.34-.75.75-.75zm-3.25 6h-1v6.36c.32-.13.65-.24 1-.3zm3.5-2.25h-2v.75h2zm-3.5 0h-1v.75h1zm3.5-2.25h-2v.75h2zm-3.5 0h-1v.75h1z" fill="#3f3f3f" fill-rule="evenodd"/></svg>