<svg height="24" viewBox="0 0 24 24" width="24" xmlns="http://www.w3.org/2000/svg"><path d="m12 2c-4 0-8 .5-8 4v9.5c0 .95.38 1.81 1 2.44v1.56c0 .83.67 1.5 1.5 1.5.83 0 1.5-.67 1.5-1.5v-.5h8v.5c0 .82.67 1.5 1.5 1.5.82 0 1.5-.67 1.5-1.5v-1.56c.62-.63 1-1.49 1-2.44v-9.5c0-3.5-3.58-4-8-4zm-3.5 14c-.83 0-1.5-.67-1.5-1.5s.67-1.5 1.5-1.5 1.5.67 1.5 1.5-.67 1.5-1.5 1.5zm7 0c-.83 0-1.5-.67-1.5-1.5s.67-1.5 1.5-1.5 1.5.67 1.5 1.5-.67 1.5-1.5 1.5zm2.5-6h-12v-3h12z" fill="#3f3f3f" fill-rule="evenodd"/></svg>