<svg height="24" viewBox="0 0 24 24" width="24" xmlns="http://www.w3.org/2000/svg"><path d="m18.92 6.01c-.2-.59-.76-1.01-1.42-1.01h-11c-.66 0-1.21.42-1.42 1.01l-2.08 5.99v7.5c0 .83.67 1.5 1.5 1.5.83 0 1.5-.67 1.5-1.5v-.5h12v.5c0 .82.67 1.5 1.5 1.5.82 0 1.5-.67 1.5-1.5v-7.5zm-11.42 9.99c-.83 0-1.5-.67-1.5-1.5s.67-1.5 1.5-1.5 1.5.67 1.5 1.5-.67 1.5-1.5 1.5zm9 0c-.83 0-1.5-.67-1.5-1.5s.67-1.5 1.5-1.5 1.5.67 1.5 1.5-.67 1.5-1.5 1.5zm-10.69-6 1.04-3h10.29l1.04 3z" fill="#3f3f3f" fill-rule="evenodd"/></svg>