<svg height="24" viewBox="0 0 24 24" width="24" xmlns="http://www.w3.org/2000/svg"><path d="m11 18 6 3h-4v2l-6-3h4zm4.06-15c.6 0 1.16.26 1.54.72l3.94 4.72c.3.36.46.81.46 1.28v1.46c1.16.42 2 1.52 2.01 2.82 0 1.66-1.34 3-3 3-1.31 0-2.41-.84-2.82-2h-8.37c-.42 1.16-1.52 2-2.82 2s-2.4-.84-2.82-2h-.18c-1.1 0-2-.9-2-2v-8c0-1.1.9-2 2-2zm-9.06 10c-.55 0-1 .45-1 1s.45 1 1 1 1-.45 1-1-.45-1-1-1zm14 0c-.55 0-1 .45-1 1s.45 1 1 1 1-.45 1-1-.45-1-1-1zm-7-8h-4v4h2c.55 0 1 .45 1 1l-.0067602.116199c-.0580357.4957908-.4825255.883801-.9932398.883801h-2v2h5v-7c0-.55-.45-1-1-1zm3 1.12v2.88h2.4zm-9-1.12h-3c-.55 0-1 .45-1 1v3h4z" fill="#3f3f3f" fill-rule="evenodd"/></svg>