<svg height="24" viewBox="0 0 24 24" width="24" xmlns="http://www.w3.org/2000/svg"><path d="m23 11v-.61c0-.8-.48-1.54-1.23-1.84-3.65-1.48-6.81-3.93-8.48-5.37-.74-.64-1.84-.64-2.58 0-1.68 1.44-4.83 3.88-8.48 5.37-.75.3-1.23 1.03-1.23 1.84v.61c0 1.49.93 2.75 2.24 3.26-.03 1.68-.16 3.55-.52 5.29-.26 1.26.66 2.45 1.95 2.45h14.67c1.29 0 2.21-1.19 1.95-2.45-.36-1.75-.5-3.62-.52-5.29 1.3-.51 2.23-1.77 2.23-3.26zm-11-6.29c1.33 1.14 3.49 2.84 6.11 4.29h-12.22c2.62-1.45 4.78-3.15 6.11-4.29zm1 6.29h3c0 .83-.67 1.5-1.5 1.5s-1.5-.67-1.5-1.5zm-3.5 1.5c-.83 0-1.5-.67-1.5-1.5h3c0 .83-.67 1.5-1.5 1.5zm-3.5-1.5c0 .83-.67 1.5-1.5 1.5s-1.5-.67-1.5-1.5zm-1.34 9c.39-1.86.54-3.82.57-5.58.68-.15 1.29-.49 1.76-.98.25.25.54.45.85.62-.1 1.87-.26 4-.52 5.93h-2.66zm4.69 0c.24-1.83.39-3.78.48-5.53.84-.08 1.61-.45 2.17-1.02.56.57 1.32.94 2.17 1.02.1 1.75.24 3.7.48 5.53zm7.32 0c-.27-1.94-.43-4.07-.52-5.93.31-.17.61-.37.85-.62.47.48 1.08.83 1.76.98.03 1.76.18 3.72.57 5.58h-2.66zm2.83-7.5c-.83 0-1.5-.67-1.5-1.5h3c0 .83-.67 1.5-1.5 1.5z" fill="#3f3f3f" fill-rule="evenodd"/></svg>