<svg height="24" viewBox="0 0 24 24" width="24" xmlns="http://www.w3.org/2000/svg"><path d="m12 6c-1.1 0-2-.9-2-2s.9-2 2-2 2 .9 2 2-.9 2-2 2zm5.95-4c.59 0 1.06.51 1 1.09-.02.15-.21 4.06-3.95 5.31v12.6c0 .55-.45 1-1 1-.55 0-1-.45-1-1v-5h-2v5c0 .55-.45 1-1 1-.55 0-1-.45-1-1v-10.9c-.3.1-.5.2-.6.3-.46.36-1.17.87-1.36 2.67-.05.52-.47.93-1 .93-.58 0-1.05-.49-1-1.07.13-1.6.62-2.98 2.07-4.22 1.1-.9 2.89-1.71 4.89-1.71s2.68-.46 3.48-1.06c.43-.34 1.28-.99 1.48-3.02.05-.52.47-.92.99-.92zm-12.95 14h1c.55 0 1 .45 1 1v4c0 .55-.45 1-1 1h-1c-.55 0-1-.45-1-1v-4c0-.55.45-1 1-1z" fill="#3f3f3f" fill-rule="evenodd"/></svg>