<svg height="24" viewBox="0 0 24 24" width="24" xmlns="http://www.w3.org/2000/svg"><path d="m8 6c.55 0 1 .45 1 1v7c0 1.3-.84 2.4-2 2.82v3.18h1c.55 0 1 .45 1 1l-.0067602.116199c-.05803572.4957908-.48252551.883801-.9932398.883801h-4c-.55 0-1-.45-1-1l.0067602-.116199c.05803572-.4957908.48252551-.883801.9932398-.883801h1v-3.18c-1.16-.42-2-1.52-2-2.82v-7c0-.55.45-1 1-1zm10-4c.55 0 1 .45 1 1v4.27c0 .43.27.81.68.95l.96.32c.81.28 1.36 1.04 1.36 1.9v9.56c0 1.1-.9 2-2 2h-7c-1.1 0-2-.9-2-2v-9.55c0-.86.55-1.62 1.36-1.9l.96-.32c.41-.14.68-.52.68-.95v-4.28c0-.55.45-1 1-1zm2 16h-7v2h7zm-3-11h-1v.28c0 1.29-.82 2.44-2.05 2.84l-.95.32v1.56h7v-1.56l-.95-.31c-1.23-.41-2.05-1.56-2.05-2.85zm-10 1h-2v3h2zm10-4h-1v1h1z" fill="#3f3f3f" fill-rule="evenodd"/></svg>