<svg height="24" viewBox="0 0 24 24" width="24" xmlns="http://www.w3.org/2000/svg"><path d="m20 16c1.1 0 2 .9 2 2v1c0 1.1-.9 2-2 2h-16c-1.1 0-2-.9-2-2v-1c0-1.1.9-2 2-2zm-1.34-4.49c1.43 0 1.68.48 2.65.83.41.15.69.53.69.96 0 .71-.72 1.22-1.39.96-.76-.3-1.12-.76-1.93-.76-1.24 0-1.38 1-3.33 1-1.91 0-2.14-1-3.33-1-1.24 0-1.38 1-3.33 1-1.91 0-2.14-1-3.33-1-.82 0-1.2.49-1.99.78-.66.24-1.36-.25-1.36-.94 0-.42.26-.8.65-.94.72-.26 1.13-.89 2.68-.89 1.91 0 2.14 1 3.33 1 1.24 0 1.38-1 3.33-1 1.91 0 2.14 1 3.33 1 1.24 0 1.38-1 3.33-1zm-6.66-8.51c5.72 0 10.02 2 10.0000695 6 0 .55-.4500695 1-1.0000695 1h-18c-.55 0-1-.45-1-1l.00439535-.22016461c.15498051-3.85322359 4.39134539-5.77983539 9.99560465-5.77983539z" fill="#3f3f3f" fill-rule="evenodd"/></svg>