<svg height="24" viewBox="0 0 24 24" width="24" xmlns="http://www.w3.org/2000/svg"><path d="m2.87 5h10.26c.8 0 1.28.89.83 1.55l-4.96 7.45v4h1c.55 0 1 .45 1 1 0 .55-.45 1-1 1h-4c-.55 0-1-.45-1-1 0-.55.45-1 1-1h1v-4l-4.96-7.45c-.45-.66.03-1.55.83-1.55zm7.23 4 1.4-2h-7.01l1.4 2zm8.9-4h1.5c.83 0 1.5.67 1.5 1.5 0 .83-.67 1.5-1.5 1.5h-1.5v9c0 1.84-1.64 3.28-3.54 2.95-1.21-.21-2.2-1.2-2.41-2.41-.33-1.9 1.11-3.54 2.95-3.54.35 0 .69.06 1 .17v-7.17c0-1.1.9-2 2-2z" fill="#3f3f3f" fill-rule="evenodd"/></svg>