<svg height="24" viewBox="0 0 24 24" width="24" xmlns="http://www.w3.org/2000/svg"><path d="m2.00069152 6.90975589c.03047469-1.96034588 1.10097515-4.23430134 9.65930848-3.87975589-.16.36-1.14 2.37-.37 4.97h-7.29v3h9.11c1.26 1.24 2.98 2 4.89 2v3.5c0 1.93-1.57 3.5-3.5 3.5l1.21.81c.18.12.29.32.29.54l-.0070248.096281c-.046281.3140496-.3157025.553719-.6429752.553719h-10.7c-.36 0-.65-.29-.65-.65l.00898148-.1080556c.02962963-.1763888.13101852-.3319444.28101852-.4319444l1.21-.81c-1.93 0-3.5-1.57-3.5-3.5zm7.99930848 7.09024411c-.83 0-1.5.67-1.5 1.5s.67 1.5 1.5 1.5 1.5-.67 1.5-1.5-.67-1.5-1.5-1.5zm8-13c2.76 0 5 2.24 5 5s-2.24 5-5 5-5-2.24-5-5 2.24-5 5-5zm0 7c-.28 0-.5.22-.5.5s.22.5.5.5.5-.22.5-.5-.22-.5-.5-.5zm0-5c-.28 0-.5.22-.5.5v3c0 .28.22.5.5.5s.5-.22.5-.5v-3c0-.28-.22-.5-.5-.5z" fill="#3f3f3f" fill-rule="evenodd"/></svg>