<svg height="24" viewBox="0 0 24 24" width="24" xmlns="http://www.w3.org/2000/svg"><path d="m22 2.84c0-.45-.39-.79-.83-.75l-16.28 1.81c-.51.05-.89.48-.89.99v7.11h-.92c-.6 0-1.08.53-1 1.13.44 3.2 2.75 5.87 5.92 7.12v.75c0 .55.45 1 1 1h6c.55 0 1-.45 1-1v-.75c3.17-1.25 5.48-3.92 5.92-7.12.08-.6-.4-1.13-1-1.13h-10.42v-4h10.75c.41 0 .75-.34.75-.75 0-.41-.34-.75-.75-.75h-10.75v-1.72l10.83-1.19c.38-.05.67-.37.67-.75zm-15.5 2.38v1.28h-1v-1.16zm-1 2.78h1v4h-1zm3.5 4h-1v-4h1zm0-5.5h-1v-1.44l1-.11z" fill="#3f3f3f" fill-rule="evenodd"/></svg>