<svg height="24" viewBox="0 0 24 24" width="24" xmlns="http://www.w3.org/2000/svg"><path d="m11 13v-9.41c0-.49-.63-.69-.91-.29l-6.54 9.41c-.23.33.01.79.41.79h6.54c.28 0 .5-.22.5-.5zm9.99-.02c-.27-5.91-5.09-10.66-7.59-11.75-.37-.16-.77.2-.67.59.3 1.13.76 3.28.76 5.68 0 2.44-.49 4.39-.78 5.35-.1.32.14.65.48.65h7.28c.29 0 .53-.24.52-.52zm-.37 2.02h-17.24c-.73 0-1.22.76-.92 1.42.43.92 1.07 1.71 1.86 2.31.38-.16.74-.38 1.06-.63.35-.29.87-.29 1.23 0 .67.53 1.49.9 2.39.9s1.72-.37 2.39-.91c.35-.28.87-.28 1.22 0 .67.54 1.49.91 2.39.91s1.72-.37 2.39-.91c.35-.29.87-.28 1.23 0 .32.26.67.48 1.06.63.79-.6 1.43-1.39 1.86-2.31.3-.65-.19-1.41-.92-1.41zm1.38 7c0-.55-.45-1-1-1-.87 0-1.73-.24-2.53-.7-.29-.16-.65-.17-.94 0-1.59.9-3.47.9-5.06 0-.29-.16-.65-.16-.94 0-1.59.9-3.47.9-5.06 0-.29-.16-.65-.16-.94 0-.8.46-1.66.7-2.53.7-.55 0-1 .45-1 1s.45 1 1 1c1.15 0 2.3-.31 3.33-.94 1.66 1.11 3.78 1.01 5.58.14 1.91 1.05 4.17 1.07 6.09.05.95.5 1.97.75 3 .75.55 0 1-.45 1-1z" fill="#3f3f3f" fill-rule="evenodd"/></svg>