<svg height="24" viewBox="0 0 24 24" width="24" xmlns="http://www.w3.org/2000/svg"><path d="m11 6c0 .55.45 1 1 1h1.25l1.45 1.3-3.7 2.7-9.12-.96c-1-.11-1.88.68-1.88 1.69 0 .75.49 1.41 1.21 1.63l3.33 1-3.49 1.88c-1.82.98-1.12 3.76.95 3.76h6c2.21 0 4-1.79 4-4h4l2 2h-2c-.55 0-1 .45-1 1s.45 1 1 1h5c1.13 0 2.11-.62 2.63-1.55.36-.65-.15-1.45-.9-1.45-.34 0-.68.16-.84.47-.17.31-.51.53-.89.53h-.17l-2.2-2.2c1.95-.43 3.37-1.4 3.37-2.8 0-.89-7.72-7.75-7.72-7.75-.18-.16-.41-.25-.66-.25h-1.62c-.55 0-1 .45-1 1zm-3 12h-6l5.25-2.83 2.75.83c0 1.1-.89 2-2 2z" fill="#3f3f3f" fill-rule="evenodd"/></svg>