<svg height="24" viewBox="0 0 24 24" width="24" xmlns="http://www.w3.org/2000/svg"><path d="m11.29 4c-.19.63-.29 1.3-.29 2s.1 1.37.29 2h-5.44l-1.04 3h8.3c1.26 1.24 2.98 2 4.89 2 .66 0 1.3-.1 1.91-.27l.09.27v7.5c0 .82-.67 1.5-1.5 1.5s-1.5-.68-1.5-1.5v-.5h-12v.5c0 .82-.67 1.5-1.5 1.5s-1.5-.68-1.5-1.5v-7.5l2.08-5.99c.21-.59.76-1.01 1.42-1.01h2.5v-1c0-.55.45-1 1-1zm-4.79 10c-.83 0-1.5.67-1.5 1.5s.67 1.5 1.5 1.5 1.5-.67 1.5-1.5-.67-1.5-1.5-1.5zm9 0c-.83 0-1.5.67-1.5 1.5s.67 1.5 1.5 1.5 1.5-.67 1.5-1.5-.67-1.5-1.5-1.5zm2.5-13c2.76 0 5 2.24 5 5s-2.24 5-5 5-5-2.24-5-5 2.24-5 5-5zm0 7c-.28 0-.5.22-.5.5s.22.5.5.5.5-.22.5-.5-.22-.5-.5-.5zm0-5c-.28 0-.5.22-.5.5v3c0 .28.22.5.5.5s.5-.22.5-.5v-3c0-.28-.22-.5-.5-.5z" fill="#3f3f3f" fill-rule="evenodd"/></svg>