<svg height="24" viewBox="0 0 24 24" width="24" xmlns="http://www.w3.org/2000/svg"><path d="m11 9c1.1 0 2 .9 2 2v5c0 3.57-3.13 6.42-6.79 5.95-3.02-.39-5.21-3.11-5.21-6.16v-4.79c0-1.1.9-2 2-2zm-2.14 7h-3.72c-.38 0-.63.41-.44.75.39.67 1.27 1.14 2.3 1.14s1.92-.47 2.3-1.14c.19-.34-.06-.75-.44-.75zm12.14-14c1.1 0 2 .9 2 2v4.78c0 2.97-2.07 5.65-5 6.14-1.26.21-2.46.01-3.5-.47v-4.95c0-1.1-.9-2-2-2h-1.5v-3.5c0-1.1.9-2 2-2zm-16 10.5c-.55 0-1 .45-1 1s.45 1 1 1 1-.45 1-1-.45-1-1-1zm4 0c-.55 0-1 .45-1 1s.45 1 1 1 1-.45 1-1-.45-1-1-1zm7.99-3.5c-1.03 0-1.91.47-2.3 1.13-.19.34.06.75.44.75h3.72c.38 0 .63-.41.44-.74-.39-.67-1.27-1.14-2.3-1.14zm-1.99-3.5c-.55 0-1 .45-1 1s.45 1 1 1 1-.45 1-1-.45-1-1-1zm4 0c-.55 0-1 .45-1 1s.45 1 1 1 1-.45 1-1-.45-1-1-1z" fill="#3f3f3f" fill-rule="evenodd"/></svg>