<svg height="24" viewBox="0 0 24 24" width="24" xmlns="http://www.w3.org/2000/svg"><path d="m3 11 .14869459.0055128c1.03126409.0767186 1.85130541.9444872 1.85130541 1.9944872v7c0 1.1-.9 2-2 2l-.14869459-.0055128c-1.03126409-.0767186-1.85130541-.9444872-1.85130541-1.9944872v-7c0-1.1.9-2 2-2zm5.6 0c.24 0 .48.04.7.13l6.92 2.58c.46.18.77.62.77 1.11l-.0061108.1203687c-.060608.593811-.5645142 1.0596313-1.1738892 1.0596313h-2.63c-.12 0-.25-.03-.36-.07l-1.12-.43c-.26-.1-.55.04-.64.3l-.0219753.0871193c-.0375309.2327572.0908642.4628807.3219753.5428807l1.47.51c.11.04.22.06.33.06h6.83c1.11 0 2.01.89 2.01 2l-7.38 2.78c-.4.15-.84.17-1.25.05l-6.37-1.81v-9.02zm10.1-9c1.85 0 3.3 1.45 3.3 3.3 0 2.1-2.5 4.51-5.33 7.09-.38.35-.97.35-1.35 0-2.82-2.58-5.32-4.99-5.32-7.09 0-1.85 1.45-3.3 3.3-3.3 1.04 0 2.05.49 2.7 1.25.65-.76 1.66-1.25 2.7-1.25z" fill="#3f3f3f" fill-rule="evenodd"/></svg>