<svg height="24" viewBox="0 0 24 24" width="24" xmlns="http://www.w3.org/2000/svg"><path d="m13 3c.55 0 1 .45 1 1s-.45 1-1 1h-8v14h14v-8c0-.55.45-1 1-1s1 .45 1 1v8c0 1.1-.9 2-2 2h-14c-1.1 0-2-.9-2-2v-14c0-1.1.9-2 2-2zm3 10c.55 0 1 .45 1 1v2c0 .55-.45 1-1 1s-1-.45-1-1v-2c0-.55.45-1 1-1zm-8-3c.55 0 1 .45 1 1v5c0 .55-.45 1-1 1s-1-.45-1-1v-5c0-.55.45-1 1-1zm4-3c.55 0 1 .45 1 1v8c0 .55-.45 1-1 1s-1-.45-1-1v-8c0-.55.45-1 1-1zm6-4c.55 0 1 .45 1 1v1h1c.55 0 1 .45 1 1s-.45 1-1 1h-1v1c0 .55-.45 1-1 1s-1-.45-1-1v-1h-1c-.55 0-1-.45-1-1s.45-1 1-1h1v-1c0-.55.45-1 1-1z" fill="#3f3f3f" fill-rule="evenodd"/></svg>