<svg height="24" viewBox="0 0 24 24" width="24" xmlns="http://www.w3.org/2000/svg"><path d="m14.06 9.94-1.06-.49c-.39-.18-.39-.73 0-.91l1.06-.49.49-1.05c.18-.39.73-.39.91 0l.49 1.06 1.05.49c.39.18.39.73 0 .91l-1.06.49-.49 1.05c-.18.39-.73.39-.91 0zm-9.61 3.06.49-1.06 1.06-.49c.39-.18.39-.73 0-.91l-1.06-.49-.49-1.05c-.17-.39-.73-.39-.9 0l-.49 1.06-1.06.49c-.39.18-.39.73 0 .91l1.06.49.49 1.05c.17.39.73.39.9 0zm4.51-5.01.63-1.4 1.4-.63c.39-.18.39-.73 0-.91l-1.4-.63-.63-1.4c-.18-.39-.73-.39-.91 0l-.63 1.4-1.4.63c-.39.18-.39.73 0 .91l1.4.63.63 1.4c.17.39.73.39.91 0zm13.38.28c-.4-.4-1.07-.39-1.45.04l-6.39 7.18-3.29-3.29c-.39-.39-1.02-.39-1.41 0l-6.04 6.05c-.41.41-.41 1.09 0 1.5s1.09.41 1.5 0l5.25-5.26 3.25 3.25c.41.41 1.07.39 1.45-.04l7.17-8.07c.35-.39.33-.99-.04-1.36z" fill="#3f3f3f" fill-rule="evenodd"/></svg>