<svg height="24" viewBox="0 0 24 24" width="24" xmlns="http://www.w3.org/2000/svg"><path d="m21.9977086 20.0004166c1.0998854 0 1.9997917.8999063 1.9997917 1.9997917s-.8999063 1.9997917-1.9997917 1.9997917h-19.99791691c-1.09988543 0-1.99979169-.8999063-1.99979169-1.9997917s.89990626-1.9997917 1.99979169-1.9997917zm-7.9991668-16.74825537 3.7496094 3.74960942-9.85897299 9.84897405c-.08999063.0999896-.21997709.1499844-.34996354.1499844h-3.03968337c-.27997084 0-.49994792-.2199771-.49994792-.4999479v-3.0396834c0-.1399854.04999479-.2599729.14998437-.3599625zm2.9596917-2.9596917c.3899594-.38995937 1.0198938-.38995937 1.4098532 0l2.3397562 2.33975628c.3899594.38995938.3899594 1.01989376 0 1.40985314l-1.9597958 1.95979585-3.7496094-3.74960941z" fill="#3f3f3f" fill-rule="evenodd"/></svg>