<svg height="24" viewBox="0 0 24 24" width="24" xmlns="http://www.w3.org/2000/svg"><path d="m22 8c0-.55-.45-1-1-1h-7c-.55 0-1 .45-1 1s.45 1 1 1h7c.55 0 1-.45 1-1zm-9 8c0 .55.45 1 1 1h7c.55 0 1-.45 1-1s-.45-1-1-1h-7c-.55 0-1 .45-1 1zm-2.53-11.37c.39.39.39 1.02 0 1.41l-4.23 4.25c-.39.39-1.02.39-1.42 0l-2.12-2.13c-.39-.39-.39-1.02 0-1.41s1.02-.39 1.41 0l1.42 1.42 3.54-3.54c.38-.38 1.02-.38 1.4 0zm.01 8.01c.39.39.39 1.02 0 1.41l-4.23 4.25c-.39.39-1.02.39-1.42 0l-2.13-2.14c-.39-.39-.39-1.02 0-1.41s1.02-.39 1.41 0l1.42 1.42 3.54-3.54c.38-.38 1.02-.38 1.41.01z" fill="#3f3f3f" fill-rule="evenodd"/></svg>