<svg height="24" viewBox="0 0 24 24" width="24" xmlns="http://www.w3.org/2000/svg"><path d="m11 8c0-.55-.45-1-1-1h-7c-.55 0-1 .45-1 1s.45 1 1 1h7c.55 0 1-.45 1-1zm0 8c0-.55-.45-1-1-1h-7c-.55 0-1 .45-1 1s.45 1 1 1h7c.55 0 1-.45 1-1zm6.05-5.71c-.39.39-1.02.39-1.41 0l-2.12-2.12c-.39-.39-.39-1.02 0-1.41.39-.39 1.02-.39 1.41 0l1.41 1.41 3.54-3.54c.39-.39 1.02-.39 1.41 0 .39.39.39 1.02 0 1.41zm0 8c-.39.39-1.02.39-1.41 0l-2.12-2.12c-.39-.39-.39-1.02 0-1.41.39-.39 1.02-.39 1.41 0l1.41 1.41 3.54-3.54c.39-.39 1.02-.39 1.41 0 .39.39.39 1.02 0 1.41z" fill="#3f3f3f" fill-rule="evenodd"/></svg>