<svg height="24" viewBox="0 0 24 24" width="24" xmlns="http://www.w3.org/2000/svg"><path d="m14 11c0 .55-.45 1-1 1h-9c-.55 0-1-.45-1-1s.45-1 1-1h9c.55 0 1 .45 1 1zm-11-4c0 .55.45 1 1 1h9c.55 0 1-.45 1-1s-.45-1-1-1h-9c-.55 0-1 .45-1 1zm7 8c0-.55-.45-1-1-1h-5c-.55 0-1 .45-1 1s.45 1 1 1h5c.55 0 1-.45 1-1zm8.01-2.13.71-.71c.39-.39 1.02-.39 1.41 0l.71.71c.39.39.39 1.02 0 1.41l-.71.71zm-.71.71-5.16 5.16c-.09.09-.14.21-.14.35v1.41c0 .28.22.5.5.5h1.41c.13 0 .26-.05.35-.15l5.16-5.16z" fill="#3f3f3f" fill-rule="evenodd"/></svg>