<svg height="24" viewBox="0 0 24 24" width="24" xmlns="http://www.w3.org/2000/svg"><path d="m12.5 6.9c1.42 0 2.13.54 2.39 1.4.13.43.56.7 1.01.7h.06c.7 0 1.22-.71.97-1.36-.44-1.15-1.41-2.08-2.93-2.45v-.69c0-.83-.67-1.5-1.5-1.5s-1.5.67-1.5 1.5v.66c-.39.08-.75.21-1.1.36l1.51 1.51c.32-.08.69-.13 1.09-.13zm-7.73-2.28c-.39.39-.39 1.02 0 1.41l2.73 2.74c0 2.08 1.56 3.22 3.91 3.91l3.51 3.51c-.34.49-1.05.91-2.42.91-1.65 0-2.5-.59-2.83-1.43-.15-.39-.49-.67-.9-.67h-.17c-.72 0-1.24.74-.95 1.39.59 1.33 1.89 2.12 3.36 2.44v.67c0 .83.67 1.5 1.5 1.5s1.5-.67 1.5-1.5v-.65c.96-.18 1.83-.55 2.46-1.12l1.51 1.51c.39.39 1.02.39 1.41 0s.39-1.02 0-1.41l-13.21-13.21c-.39-.39-1.02-.39-1.41 0z" fill="#3f3f3f" fill-rule="evenodd"/></svg>