<svg height="24" viewBox="0 0 24 24" width="24" xmlns="http://www.w3.org/2000/svg"><path d="m14 10.5v.5h-3v-.5c0-.83-.67-1.5-1.5-1.5h-1v-2h1c.83 0 1.5-.67 1.5-1.5v-3c0-.83-.67-1.5-1.5-1.5h-4c-.83 0-1.5.67-1.5 1.5v3c0 .83.67 1.5 1.5 1.5h1v2h-1c-.83 0-1.5.67-1.5 1.5v3c0 .83.67 1.5 1.5 1.5h1v2h-1c-.83 0-1.5.67-1.5 1.5v3c0 .83.67 1.5 1.5 1.5h4c.83 0 1.5-.67 1.5-1.5v-3c0-.83-.67-1.5-1.5-1.5h-1v-2h1c.83 0 1.5-.67 1.5-1.5v-.5h3v.5c0 .83.67 1.5 1.5 1.5h4c.83 0 1.5-.67 1.5-1.5v-3c0-.83-.67-1.5-1.5-1.5h-4c-.83 0-1.5.67-1.5 1.5z" fill="#3f3f3f" fill-rule="evenodd"/></svg>