<svg height="24" viewBox="0 0 24 24" width="24" xmlns="http://www.w3.org/2000/svg"><path d="m24 4c0 .55-.45 1-1 1h-1v1c0 .55-.45 1-1 1s-1-.45-1-1v-1h-1c-.55 0-1-.45-1-1s.45-1 1-1h1v-1c0-.55.45-1 1-1s1 .45 1 1v1h1c.55 0 1 .45 1 1zm-2.48 4.95c.31.96.48 1.99.48 3.05 0 5.52-4.48 10-10 10s-10-4.48-10-10 4.48-10 10-10c1.5 0 2.92.34 4.2.94-.12.33-.2.68-.2 1.06 0 1.35.9 2.5 2.13 2.87.37 1.23 1.52 2.13 2.87 2.13.18 0 .35-.02.52-.05zm-14.52.55c0 .83.67 1.5 1.5 1.5s1.5-.67 1.5-1.5-.67-1.5-1.5-1.5-1.5.67-1.5 1.5zm9.31 4.5h-8.62c-.38 0-.63.42-.44.75.95 1.64 2.72 2.75 4.75 2.75s3.8-1.11 4.75-2.75c.19-.33-.05-.75-.44-.75zm.69-4.5c0-.83-.67-1.5-1.5-1.5s-1.5.67-1.5 1.5.67 1.5 1.5 1.5 1.5-.67 1.5-1.5z" fill="#3f3f3f" fill-rule="evenodd"/></svg>