<svg height="24" viewBox="0 0 24 24" width="24" xmlns="http://www.w3.org/2000/svg"><path d="m21 16c0 4.42-3.58 8-8 8-3.26 0-6.19-1.99-7.4-5.02l-3.03-7.61c-.31-.79.43-1.58 1.24-1.32l.79.26c.56.18 1.02.61 1.24 1.16l1.28 3.21c.08.2.26.32.46.32h.42v-11.75c0-.69.56-1.25 1.25-1.25s1.25.56 1.25 1.25v8.25c0 .28.22.5.5.5.28 0 .5-.22.5-.5v-10.25c0-.69.56-1.25 1.25-1.25s1.25.56 1.25 1.25v10.25c0 .28.22.5.5.5.28 0 .5-.22.5-.5v-8.75c0-.69.56-1.25 1.25-1.25s1.25.56 1.25 1.25v8.75c0 .28.22.5.5.5.28 0 .5-.22.5-.5v-5.75c0-.69.56-1.25 1.25-1.25s1.25.56 1.25 1.25z" fill="#3f3f3f" fill-rule="evenodd"/></svg>