<svg height="24" viewBox="0 0 24 24" width="24" xmlns="http://www.w3.org/2000/svg"><path d="m11.73 21.5c-4.95-.14-9.08-4.27-9.22-9.22-.16-5.37 4.16-9.78 9.49-9.78v-1.29c0-.45.54-.67.85-.35l2.79 2.79c.2.2.2.51 0 .71l-2.79 2.79c-.31.31-.85.09-.85-.36v-1.29c-3.58 0-6.5 2.92-6.5 6.5 0 2.21 1.11 4.17 2.81 5.35.51-.92 1.63-1.62 2.98-1.8-.09-.69-.26-1.42-.49-2.03-.33.28-.75.46-1.22.48-1.14.05-2.08-.99-2.08-2.13v-.86c0-.29-.05-.57-.14-.83-.12-.34.14-.69.5-.66 1.3.09 3.6.52 3.64 2.48 0 .29-.06.56-.17.8-.42-.32-.86-.6-1.33-.8.58.43 1.37 1.37 2 2.6.67-1.62 1.68-3.27 3-4.6-.76.52-1.47 1.12-2.13 1.81-.26-.42-.4-.93-.36-1.47.08-1.34 1.28-2.34 2.62-2.34h.87c.56 0 .97-.14 1.28-.31.34-.19.76.05.75.44-.04 1.74-.47 4.87-3.03 4.87-.49 0-.94-.14-1.32-.38-.24.64-.59 1.76-.76 2.96 1.26.22 2.28.89 2.77 1.77 1.57-1.09 2.64-2.85 2.79-4.87.02-.26.23-.48.5-.48h1.82c.47 0 .71.24.69.52-.28 5.09-4.58 9.12-9.76 8.98z" fill="#3f3f3f" fill-rule="evenodd"/></svg>