<svg height="24" viewBox="0 0 24 24" width="24" xmlns="http://www.w3.org/2000/svg"><path d="m16.84 14.52c-.26-.19-.62-.63-.79-.84 1.19-1.67 2.95-4.81 2.95-8.68 0-1.95-.74-3-2-3-1.54 0-3.96 2.06-5 5.97-1.04-3.91-3.46-5.97-5-5.97-1.26 0-2 1.05-2 3 0 3.87 1.76 7.01 2.95 8.68-.17.21-.53.65-.79.84-.5.41-1.66 1.37-1.66 2.98 0 2.21 1.79 4 4 4 1.55 0 2.5-.56 2.5-.56s.95.56 2.5.56c2.21 0 4-1.79 4-4 0-1.61-1.16-2.57-1.66-2.98zm-7.49-2.32c-1.01-1.5-2.35-4.08-2.35-7.2 0-.49.06-.8.12-.97.94.31 3.24 2.71 3.38 7.64-.47.12-.84.3-1.15.53zm1.15 4.55c-.28 0-.5-.34-.5-.75s.22-.75.5-.75.5.34.5.75-.22.75-.5.75zm1.5 2.75c-.55 0-1-.72-1-1s.45-.5 1-.5 1 .22 1 .5-.45 1-1 1zm1.5-2.75c-.28 0-.5-.34-.5-.75s.22-.75.5-.75.5.34.5.75-.22.75-.5.75zm0-5.08c.14-4.93 2.44-7.33 3.38-7.64.06.17.12.48.12.97 0 3.12-1.34 5.7-2.35 7.2-.31-.23-.68-.41-1.15-.53z" fill="#3f3f3f" fill-rule="evenodd"/></svg>