<svg height="24" viewBox="0 0 24 24" width="24" xmlns="http://www.w3.org/2000/svg"><path d="m17.58 6.25 1.77 1.77-4.84 4.84c-.09.09-.22.14-.35.14h-1.06c-.28 0-.5-.22-.5-.5v-1.06c0-.13.05-.26.15-.35zm3.27-.44-1.06-1.06c-.2-.2-.51-.2-.71 0l-.85.85 1.77 1.77.85-.85c.2-.2.2-.52 0-.71zm-.85 12.19c0 .55-.45 1-1 1h-14c-.55 0-1-.45-1-1s.45-1 1-1h1v-7c0-2.79 1.91-5.14 4.5-5.8v-.7c0-.83.67-1.5 1.5-1.5s1.5.67 1.5 1.5v.7c.82.21 1.57.59 2.21 1.09l-4.52 4.52c-.38.38-.59.88-.59 1.41v1.78c0 1.1.9 2 2 2h1.77c.53 0 1.04-.21 1.41-.59l2.22-2.21v4.8h1c.55 0 1 .45 1 1zm-10 2h4c0 1.1-.9 2-2 2s-2-.9-2-2z" fill="#3f3f3f" fill-rule="evenodd"/></svg>