<svg height="24" viewBox="0 0 24 24" width="24" xmlns="http://www.w3.org/2000/svg"><path d="m18.5 14.5c0 .28-.22.5-.5.5-1.51 0-2.77 1.12-2.97 2.58-.03.24-.25.42-.49.42-.3 0-.54-.27-.5-.57.26-1.77 1.68-3.17 3.46-3.4v-10.78c0-.69-.56-1.25-1.25-1.25s-1.25.56-1.25 1.25v7.25c0 .28-.22.5-.5.5s-.5-.22-.5-.5v-9.25c0-.69-.56-1.25-1.25-1.25s-1.25.56-1.25 1.25v9.25c0 .28-.22.5-.5.5s-.5-.22-.5-.5v-7.75c0-.69-.56-1.25-1.25-1.25s-1.25.56-1.25 1.25v8.75c0 .28-.22.5-.5.5s-.5-.22-.5-.5v-5.75c0-.69-.56-1.25-1.25-1.25s-1.25.56-1.25 1.25v10c0 4.56 3.69 8.25 8.25 8.25s8.25-3.69 8.25-8.25v-6.5c0-.69-.56-1.25-1.25-1.25s-1.25.56-1.25 1.25z" fill="#3f3f3f" fill-rule="evenodd"/></svg>