<svg height="24" viewBox="0 0 24 24" width="24" xmlns="http://www.w3.org/2000/svg"><path d="m15 8c0-1.42-.5-2.73-1.33-3.76.42-.14.86-.24 1.33-.24 2.21 0 4 1.79 4 4s-1.79 4-4 4c-.06 0-.12 0-.18 0l-.77-.77c.6-.94.95-2.05.95-3.23zm-7.76-3.59c.53-.26 1.13-.41 1.76-.41 2.21 0 4 1.79 4 4 0 .63-.15 1.23-.41 1.76zm13.95 16.78c.39.39.39 1.02 0 1.41s-1.02.39-1.41 0l-2.99-2.99c-.19.24-.47.39-.79.39h-14c-.55 0-1-.45-1-1v-2c0-2.66 5.33-4 8-4 .37 0 .8.03 1.25.08l-1.08-1.08c-.06 0-.11 0-.17 0-2.21 0-4-1.79-4-4 0-.06 0-.11 0-.17l-3.61-3.61c-.39-.39-.39-1.02 0-1.41s1.02-.39 1.41 0zm-2.3-5.12c-.29-1.22-1.13-2.19-2.23-2.94 2.76.4 6.34 1.69 6.34 3.87v2c0 .32-.15.6-.38.79z" fill="#3f3f3f" fill-rule="evenodd"/></svg>