<svg height="24" viewBox="0 0 24 24" width="24" xmlns="http://www.w3.org/2000/svg"><path d="m13.5 5.5c1.1 0 2-.9 2-2s-.9-2-2-2-2 .9-2 2 .9 2 2 2zm4.75 3.5c-.41 0-.75.34-.75.75v1.03c-1.23-.37-2.22-1.17-2.8-2.18l-1-1.6c-.41-.65-1.11-1-1.84-1-.78 0-1.59.5-1.78 1.44l-2.83 14.32c-.13.64.36 1.24 1.02 1.24.49 0 .91-.34 1.02-.81l1.61-7.19 2.1 2v5c0 .55.45 1 1 1s1-.45 1-1v-5.64c0-.55-.22-1.07-.62-1.45l-1.48-1.41.6-3c1 1.15 2.41 2.01 4 2.34v9.41c0 .41.34.75.75.75s.75-.34.75-.75v-12.5c0-.41-.34-.75-.75-.75zm-10.82 4.13-2.12-.41c-.54-.11-.9-.63-.79-1.17l.76-3.93c.21-1.08 1.26-1.79 2.34-1.58l1.16.23z" fill="#3f3f3f" fill-rule="evenodd"/></svg>