<svg height="24" viewBox="0 0 24 24" width="24" xmlns="http://www.w3.org/2000/svg"><path d="m21.87 17c-.47 0-.85.34-.98.8-.35 1.27-1.51 2.2-2.89 2.2h-2v-2h1c1.1 0 2-.9 2-2v-.88c0-2.1-1.55-3.53-3.03-3.88l-2.7-.67c-.87-.22-1.57-.81-1.95-1.57h-2.82c-.28 0-.5-.22-.5-.5s.22-.5.5-.5h2.52l-.02-1h-2.5c-.28 0-.5-.22-.5-.5s.22-.5.5-.5h2.5v-1c0-1.1-.9-2-2-2h-4c-1.1 0-2 .9-2 2v11c0 1.1.9 2 2 2h1v2h-3c-.55 0-1 .45-1 1s.45 1 1 1h15c2.33 0 4.29-1.6 4.84-3.75.17-.63-.32-1.25-.97-1.25zm-7.87 3h-6v-2h6z" fill="#3f3f3f" fill-rule="evenodd"/></svg>