<svg height="24" viewBox="0 0 24 24" width="24" xmlns="http://www.w3.org/2000/svg"><path d="m8 8c.55 0 1 .45 1 1l-.0067602.11619898c-.05803572.49579082-.48252551.88380102-.9932398.88380102h-2v11h12v-11h-2c-.55 0-1-.45-1-1l.0067602-.11619898c.0580357-.49579082.4825255-.88380102.9932398-.88380102h2c1.1 0 2 .9 2 2v11c0 1.1-.9 2-2 2h-12c-1.1 0-2-.9-2-2v-11c0-1.1.9-2 2-2zm3.64-6.64c.2-.2.51-.2.71 0l2.79 2.79c.32.31.1.85-.35.85h-1.79v10c0 .55-.45 1-1 1l-.116199-.0067602c-.4957908-.0580357-.883801-.4825255-.883801-.9932398v-10h-1.79c-.45 0-.67-.54-.36-.85z" fill="#3f3f3f" fill-rule="evenodd"/></svg>