<svg height="24" viewBox="0 0 24 24" width="24" xmlns="http://www.w3.org/2000/svg"><path d="m6 3c0-1.1.9-2 2-2s2 .9 2 2-.9 2-2 2-2-.9-2-2zm10.03.97c.29.29.77.29 1.06 0l2.97-2.97h-2.12l-1.91 1.91c-.29.29-.29.77 0 1.06zm3.12 8.03c-1.29 0-3.11.53-5.06 1.38l-1.09-1.22c-.38-.42-.92-.66-1.49-.66h-1.91v-3.5h1.4c1.52 0 2.94-.49 4.09-1.32.49-.35.52-1.07.09-1.5-.35-.35-.9-.38-1.3-.09-.82.57-1.81.91-2.88.91h-3c-1.1 0-2 .9-2 2v4.04c0 .64.15 1.27.45 1.83l1.55 2.97c-.53.38-1.03.78-1.49 1.17.68.58 1.55.99 2.49.99 1.2 0 2.27-.66 3-1.5.73.84 1.8 1.5 3 1.5.33 0 .65-.05.96-.14 2.85-1.96 5.04-4.14 5.04-5.58 0-1.03-1.01-1.28-1.85-1.28zm-9.32 3.61-.83-2.01 2.5-.1.7.77c-.56.28-1.78.96-2.37 1.34zm12.17 6.39c0-.55-.45-1-1-1-.87 0-1.73-.24-2.53-.7-.29-.16-.65-.17-.94 0-1.59.9-3.47.9-5.06 0-.29-.16-.65-.16-.94 0-1.59.9-3.47.9-5.06 0-.29-.16-.65-.16-.94 0-.8.46-1.66.7-2.53.7-.55 0-1 .45-1 1s.45 1 1 1c1.15 0 2.3-.31 3.33-.94 1.66 1.11 3.78 1.01 5.58.14 1.91 1.05 4.17 1.07 6.09.05.95.5 1.97.75 3 .75.55 0 1-.45 1-1z" fill="#3f3f3f" fill-rule="evenodd"/></svg>