<svg height="24" viewBox="0 0 24 24" width="24" xmlns="http://www.w3.org/2000/svg"><path d="m17 6h-2v-3c0-.55-.45-1-1-1h-4c-.55 0-1 .45-1 1v3h-2c-1.1 0-2 .9-2 2v11c0 1.1.9 2 2 2 0 .55.45 1 1 1s1-.45 1-1h6c0 .55.45 1 1 1s1-.45 1-1c1.1 0 2-.9 2-2v-11c0-1.1-.9-2-2-2zm-8.25 12c-.41 0-.75-.34-.75-.75v-7.5c0-.41.34-.75.75-.75.41 0 .75.34.75.75v7.5c0 .41-.34.75-.75.75zm3.25 0c-.41 0-.75-.34-.75-.75v-7.5c0-.41.34-.75.75-.75.41 0 .75.34.75.75v7.5c0 .41-.34.75-.75.75zm1.5-12h-3v-2.5h3zm1.75 12c-.41 0-.75-.34-.75-.75v-7.5c0-.41.34-.75.75-.75.41 0 .75.34.75.75v7.5c0 .41-.34.75-.75.75z" fill="#3f3f3f" fill-rule="evenodd"/></svg>