<svg height="24" viewBox="0 0 24 24" width="24" xmlns="http://www.w3.org/2000/svg"><path d="m18.25 23c-.41 0-.75-.34-.75-.75v-8.25h1.5v8.25c0 .41-.34.75-.75.75zm-13.32 0c.35 0 .66-.24.73-.59l1.87-8.41h-1.53l-1.8 8.09c-.1.47.25.91.73.91zm8.57-17.5c1.1 0 2-.9 2-2s-.9-2-2-2-2 .9-2 2 .9 2 2 2zm.5 17.5c.55 0 1-.45 1-1v-5.64c0-.55-.22-1.07-.62-1.45l-1.48-1.41.6-3c1.07 1.24 2.62 2.13 4.36 2.41.6.1 1.14-.38 1.14-.99 0-.49-.35-.91-.83-.98-1.53-.24-2.79-1.14-3.47-2.33l-1-1.6c-.56-.89-1.68-1.25-2.66-.84l-3.82 1.61c-.74.32-1.22 1.04-1.22 1.84v2.38c0 .55.45 1 1 1s1-.45 1-1v-2.4l1.8-.7-2.55 12.86c-.13.64.36 1.24 1.02 1.24.49 0 .91-.34 1.02-.81l1.61-7.19 2.1 2v5c0 .55.45 1 1 1z" fill="#3f3f3f" fill-rule="evenodd"/></svg>