<svg height="24" viewBox="0 0 24 24" width="24" xmlns="http://www.w3.org/2000/svg"><path d="m10 20h4c0 1.1-.9 2-2 2s-2-.9-2-2zm4-11c0 2.61 1.67 4.83 4 5.66v2.34h1c.55 0 1 .45 1 1 0 .55-.45 1-1 1h-14c-.55 0-1-.45-1-1 0-.55.45-1 1-1h1v-7c0-2.79 1.91-5.14 4.5-5.8v-.7c0-.83.67-1.5 1.5-1.5s1.5.67 1.5 1.5v.7c.71.18 1.36.49 1.95.9-.91 1.04-1.45 2.41-1.45 3.9zm9-1h-2v-2c0-.55-.45-1-1-1-.55 0-1 .45-1 1v2h-2c-.55 0-1 .45-1 1 0 .55.45 1 1 1h2v2c0 .55.45 1 1 1 .55 0 1-.45 1-1v-2h2c.55 0 1-.45 1-1 0-.55-.45-1-1-1z" fill="#3f3f3f" fill-rule="evenodd"/></svg>