<svg height="24" viewBox="0 0 24 24" width="24" xmlns="http://www.w3.org/2000/svg"><path d="m12 17c-1.1 0-2-.9-2-2s.9-2 2-2 2 .9 2 2-.9 2-2 2zm5.95-3c-.52 0-.94.4-.99.92-.2 2.03-1.05 2.68-1.48 3.02-.8.6-1.48 1.06-3.48 1.06s-2.68-.46-3.48-1.06c-.43-.34-1.28-.99-1.48-3.02-.05-.52-.47-.92-.99-.92-.59 0-1.06.51-1 1.09.22 2.08 1.07 3.47 2.24 4.41.5.4 1.1.7 1.7.9l.01 3.6h6v-3.6c.6-.2 1.2-.5 1.7-.9 1.17-.94 2.03-2.32 2.24-4.41.07-.58-.41-1.09-.99-1.09zm-5.95-14c-6.08 0-11 1.9-11 4.25v3.49c0 .81.88 1.26 1.56.83.14-.09.28-.18.44-.26l2 4.69h2l1.5-6.28c1.1-.14 2.28-.22 3.5-.22s2.4.08 3.5.22l1.5 6.28h2l2-4.69c.16.09.3.17.44.26.68.43 1.56-.02 1.56-.83v-3.49c0-2.35-4.92-4.25-11-4.25zm-6.12 11.24-1.51-3.55c.75-.28 1.6-.52 2.53-.71zm12.24 0-1.02-4.26c.93.19 1.78.43 2.53.71z" fill="#3f3f3f" fill-rule="evenodd"/></svg>