<svg height="24" viewBox="0 0 24 24" width="24" xmlns="http://www.w3.org/2000/svg"><path d="m19.93 8.35-3.6 1.68-2.33-2.33v-1.4l2.33-2.33 3.6 1.68c.38.18.82.01 1-.36.18-.38.01-.82-.36-1l-3.92-1.83c-.38-.18-.83-.1-1.13.2l-1.74 1.74c-.18-.24-.46-.4-.78-.4-.55 0-1 .45-1 1v1h-3.18c-.48-1.34-1.86-2.25-3.42-1.94-1.17.23-2.13 1.19-2.35 2.36-.25 1.34.4 2.54 1.43 3.16l2.6 8.42h-1.58c-.83 0-1.5.67-1.5 1.5 0 .83.67 1.5 1.5 1.5h10c.83 0 1.5-.67 1.5-1.5 0-.83-.67-1.5-1.5-1.5h-2.12l-4.97-9.23c.17-.24.31-.49.41-.77h3.18v1c0 .55.45 1 1 1 .32 0 .6-.16.78-.4l1.74 1.74c.3.3.75.38 1.13.2l3.92-1.83c.38-.18.54-.62.36-1-.18-.37-.62-.54-1-.36zm-13.93-.35c-.55 0-1-.45-1-1s.45-1 1-1 1 .45 1 1-.45 1-1 1z" fill="#3f3f3f" fill-rule="evenodd"/></svg>