<svg height="24" viewBox="0 0 24 24" width="24" xmlns="http://www.w3.org/2000/svg"><path d="m11.99 2c5.53 0 10.01 4.48 10.01 10s-4.48 10-10.01 10c-5.52 0-9.99-4.48-9.99-10s4.47-10 9.99-10zm.01 2c-4.42 0-8 3.58-8 8s3.58 8 8 8 8-3.58 8-8-3.58-8-8-8zm2.25 10c.41 0 .75.34.75.75s-.34.75-.75.75h-4.5c-.41 0-.75-.34-.75-.75s.34-.75.75-.75zm1.25-6c.8284271 0 1.5.67157288 1.5 1.5 0 .8284271-.6715729 1.5-1.5 1.5s-1.5-.6715729-1.5-1.5c0-.82842712.6715729-1.5 1.5-1.5zm-7 0c.82842712 0 1.5.67157288 1.5 1.5 0 .8284271-.67157288 1.5-1.5 1.5s-1.5-.6715729-1.5-1.5c0-.82842712.67157288-1.5 1.5-1.5z" fill="#3f3f3f" fill-rule="evenodd"/></svg>