<svg height="24" viewBox="0 0 24 24" width="24" xmlns="http://www.w3.org/2000/svg"><path d="m13 3c0-1.1.9-2 2-2s2 .9 2 2-.9 2-2 2-2-.9-2-2zm-5.75 19.5c-.41 0-.75.34-.75.75s.34.75.75.75.75-.34.75-.75-.34-.75-.75-.75zm8.5 0c-.41 0-.75.34-.75.75s.34.75.75.75.75-.34.75-.75-.34-.75-.75-.75zm3.49-3.5c-.24 0-.45.11-.59.3-.55.73-1.42 1.2-2.4 1.2h-.25v-4.88c0-.69-.36-1.34-.95-1.7l-3.37-2.08 1.8-2.89c.96 1.53 2.54 2.64 4.39 2.96.6.11 1.13-.39 1.13-.99 0-.48-.35-.89-.83-.98-1.49-.28-2.72-1.29-3.3-2.64l-.52-1.21c-.19-.45-.74-1.09-1.65-1.09h-4.59c-.69 0-1.33.36-1.7.94l-1.38 2.21c-.29.47-.15 1.09.32 1.38.47.29 1.09.15 1.38-.32l1.37-2.21h2.35l-2.4 3.84c-.31.5-.39 1.11-.21 1.67l1.34 4.15-3.12 3.76c-.7-.16-1.3-.57-1.71-1.12-.14-.19-.36-.3-.6-.3-.44 0-.75.36-.75.75 0 .15.05.31.15.45.82 1.1 2.13 1.8 3.6 1.8h9.5c1.47 0 2.78-.7 3.6-1.8.1-.14.15-.3.15-.45 0-.39-.32-.75-.76-.75zm-5.24 1.5h-5.4l2.21-2.67c.43-.52.57-1.21.37-1.86l-.68-2.27 3.5 2.2z" fill="#3f3f3f" fill-rule="evenodd"/></svg>