<svg height="24" viewBox="0 0 24 24" width="24" xmlns="http://www.w3.org/2000/svg"><path d="m14 4.5c0 1.1-.9 2-2 2s-2-.9-2-2 .9-2 2-2 2 .9 2 2zm4.92 14.74c-.13.39-.55.61-.95.48l-2.61-.85-.46 1.43 3.32 1.08c1.31.43 2.72-.29 3.15-1.61.36-1.12-.11-2.32-1.07-2.91-.32-.2-.45-.6-.3-.95.2-.44.71-.57 1.12-.31 1.52.95 2.25 2.85 1.68 4.62-.68 2.1-2.94 3.25-5.04 2.57l-16.02-5.19c-.39-.13-.63-.54-.52-.93.12-.41.55-.63.95-.5l3.22 1.05.46-1.43-3.19-1.04c-.39-.13-.63-.54-.52-.93.12-.41.55-.63.95-.5l.91.28v-2.78c0-.8.48-1.52 1.21-1.84.75-.32 4.11-1.76 4.26-1.83.41-.18.89-.21 1.35-.04.91.34 1.37 1.36 1.07 2.28l-1.04 3.2 2.15-.34c.89-.15 1.76.32 2.14 1.14l2.08 4.51 1.22.4c.4.12.61.54.48.94zm-12.92-4.99 1.01.33c-.22-.42-.28-.92-.12-1.4l1.03-3.18-1.92.82zm7.94 4.16-6.66-2.16-.46 1.43 6.66 2.16zm.69-1.36-1.18-2.56-3.97.89z" fill="#3f3f3f" fill-rule="evenodd"/></svg>