<svg height="24" viewBox="0 0 24 24" width="24" xmlns="http://www.w3.org/2000/svg"><path d="m14 3c0-1.1.9-2 2-2s2 .9 2 2-.9 2-2 2-2-.9-2-2zm-7.65 6.53c.47.29 1.09.15 1.38-.32l1.37-2.21h2.35l-2.51 3.99c-.28.45-.37 1-.25 1.52l.81 3.49-3.5 2.35-.47-.1c-.96-.2-1.71-.85-2.1-1.67-.1-.21-.28-.37-.51-.42-.43-.09-.82.2-.9.58-.04.14-.02.31.05.46.58 1.24 1.71 2.2 3.15 2.51l12.63 2.69c1.44.31 2.86-.11 3.9-1.01.13-.11.21-.26.24-.41.08-.38-.16-.8-.59-.89-.23-.05-.46.02-.64.17-.69.6-1.64.88-2.6.67l-1.16-.24-.88-5.43c-.08-.49-.34-.93-.72-1.24l-2.72-2.19 1.8-2.89c.96 1.53 2.54 2.64 4.39 2.96.6.11 1.13-.39 1.13-1 0-.48-.35-.89-.83-.98-1.49-.28-2.72-1.29-3.3-2.64l-.52-1.21c-.19-.43-.74-1.07-1.65-1.07h-4.59c-.69 0-1.33.36-1.7.94l-1.38 2.21c-.29.47-.15 1.09.32 1.38zm2.38 9.4 2.25-1.51c.47-.32.73-.88.65-1.44l-.32-2.4 2.84 2.02.75 4.64z" fill="#3f3f3f" fill-rule="evenodd"/></svg>