<svg height="24" viewBox="0 0 24 24" width="24" xmlns="http://www.w3.org/2000/svg"><path d="m4 5c0-1.1.9-2 2-2s2 .9 2 2-.9 2-2 2-2-.9-2-2zm4.78 3.58c-.85-.37-1.79-.58-2.78-.58s-1.93.21-2.78.58c-.74.32-1.22 1.04-1.22 1.85v.57h8v-.57c0-.81-.48-1.53-1.22-1.85zm9.22-1.58c1.1 0 2-.9 2-2s-.9-2-2-2-2 .9-2 2 .9 2 2 2zm2.78 1.58c-.85-.37-1.79-.58-2.78-.58s-1.93.21-2.78.58c-.74.32-1.22 1.04-1.22 1.85v.57h8v-.57c0-.81-.48-1.53-1.22-1.85zm.87 8.07-2.79-2.79c-.32-.32-.86-.1-.86.35v1.79h-12v-1.79c0-.45-.54-.67-.85-.35l-2.79 2.79c-.2.2-.2.51 0 .71l2.79 2.79c.31.31.85.09.85-.36v-1.79h12v1.79c0 .45.54.67.85.35l2.79-2.79c.2-.19.2-.51.01-.7z" fill="#3f3f3f" fill-rule="evenodd"/></svg>