<svg height="24" viewBox="0 0 24 24" width="24" xmlns="http://www.w3.org/2000/svg"><path d="m21.5 1h-4c-.55 0-1 .45-1 1s.45 1 1 1h1.58l-3.97 3.97c-.88-.61-1.95-.97-3.11-.97s-2.23.36-3.11.97l-.65-.65.7-.7c.39-.39.39-1.02 0-1.41s-1.02-.39-1.41 0l-.7.7-1.91-1.91h1.58c.55 0 1-.45 1-1s-.45-1-1-1h-4c-.55 0-1 .45-1 1v4c0 .55.45 1 1 1s1-.45 1-1v-1.58l1.91 1.9-.71.71c-.39.39-.39 1.02 0 1.41s1.02.39 1.41 0l.71-.71.65.65c-.61.89-.97 1.96-.97 3.12 0 2.7 1.94 4.94 4.5 5.41v2.09h-1c-.55 0-1 .45-1 1s.45 1 1 1h1v1c0 .55.45 1 1 1s1-.45 1-1v-1h1c.55 0 1-.45 1-1s-.45-1-1-1h-1v-2.09c2.56-.47 4.5-2.71 4.5-5.41 0-1.16-.36-2.23-.97-3.12l3.97-3.96v1.58c0 .55.45 1 1 1s1-.45 1-1v-4c0-.55-.45-1-1-1zm-9.5 14c-1.93 0-3.5-1.57-3.5-3.5s1.57-3.5 3.5-3.5 3.5 1.57 3.5 3.5-1.57 3.5-3.5 3.5z" fill="#3f3f3f" fill-rule="evenodd"/></svg>