<svg height="24" viewBox="0 0 24 24" width="24" xmlns="http://www.w3.org/2000/svg"><path d="m19.3 16.9c.58-1.01.95-2.23.51-3.65-.53-1.72-2.04-3.05-3.84-3.22-2.87-.28-5.23 2.07-4.95 4.95.18 1.79 1.5 3.31 3.22 3.84 1.43.44 2.64.07 3.65-.51l2.5 2.5c.39.39 1.01.39 1.4 0 .39-.39.39-1.01 0-1.4zm-3.8.1c-1.4 0-2.5-1.1-2.5-2.5s1.1-2.5 2.5-2.5 2.5 1.1 2.5 2.5-1.1 2.5-2.5 2.5zm-3.5 3v2c-5.52 0-10-4.48-10-10s4.48-10 10-10c4.84 0 8.87 3.44 9.8 8h-2.07c-.64-2.46-2.4-4.47-4.73-5.41v.41c0 1.1-.9 2-2 2h-2v2c0 .55-.45 1-1 1h-2v2h2v3h-1l-4.79-4.79c-.13.58-.21 1.17-.21 1.79 0 4.41 3.59 8 8 8z" fill="#3f3f3f" fill-rule="evenodd"/></svg>