<svg height="24" viewBox="0 0 24 24" width="24" xmlns="http://www.w3.org/2000/svg"><path d="m16 7c.55 0 1 .45 1 1s-.45 1-1 1h-5v6h4v-2h-1c-.55 0-1-.45-1-1s.45-1 1-1h2c.55 0 1 .45 1 1v3c0 1.1-.9 2-2 2h-4c-1.1 0-2-.9-2-2v-6c0-1.1.9-2 2-2zm-10 0c.55 0 1 .45 1 1v4c.55 0 1 .45 1 1s-.45 1-1 1v2c0 .55-.45 1-1 1s-1-.45-1-1v-2h-3c-.55 0-1-.45-1-1v-5c0-.55.45-1 1-1s1 .45 1 1v4h2v-4c0-.55.45-1 1-1zm15 2c.55 0 1 .45 1 1v1h1c.55 0 1 .45 1 1s-.45 1-1 1h-1v1c0 .55-.45 1-1 1s-1-.45-1-1v-1h-1c-.55 0-1-.45-1-1s.45-1 1-1h1v-1c0-.55.45-1 1-1z" fill="#3f3f3f" fill-rule="evenodd"/></svg>