<svg height="24" viewBox="0 0 24 24" width="24" xmlns="http://www.w3.org/2000/svg"><path d="m14.35 17.95c-.28.89-1.01 1.62-1.9 1.9-1.51.48-2.94-.23-3.59-1.42-.35-.65.17-1.43.91-1.43h.01c.34 0 .68.16.84.46.17.32.5.54.89.54.55 0 1-.45 1-1s-.45-1-1-1h-8.51c-.55 0-1-.45-1-1 0-.55.45-1 1-1h8.5c1.96 0 3.5 1.9 2.85 3.95zm4.56-12.28c-.29-1.26-1.32-2.29-2.58-2.58-1.76-.4-3.37.53-4.02 1.98-.31.67.17 1.43.9 1.43.39 0 .75-.22.9-.57.23-.55.76-.93 1.39-.93.83 0 1.5.67 1.5 1.5s-.67 1.5-1.5 1.5h-12.5c-.55 0-1 .45-1 1 0 .55.45 1 1 1h12.5c2.2 0 3.93-2.04 3.41-4.33zm-.51 5.33h-15.4c-.55 0-1 .45-1 1 0 .55.45 1 1 1h15.5c.83 0 1.5.67 1.5 1.5 0 .63-.38 1.16-.93 1.39-.36.15-.57.51-.57.9 0 .73.76 1.21 1.43.91 1.43-.64 2.35-2.21 2-3.93-.34-1.64-1.86-2.77-3.53-2.77z" fill="#3f3f3f" fill-rule="evenodd"/></svg>