<svg height="24" viewBox="0 0 24 24" width="24" xmlns="http://www.w3.org/2000/svg"><path d="m15 5v2h-9.15l-1.04 3h10.19c0 1.1.9 2 2 2h3v7.5c0 .83-.67 1.5-1.5 1.5s-1.5-.67-1.5-1.5v-.5h-12v.5c0 .83-.67 1.5-1.5 1.5s-1.5-.67-1.5-1.5v-7.5l2.08-5.99c.21-.59.76-1.01 1.42-1.01zm-8.5 8c-.83 0-1.5.67-1.5 1.5s.67 1.5 1.5 1.5 1.5-.67 1.5-1.5-.67-1.5-1.5-1.5zm9 0c-.83 0-1.5.67-1.5 1.5s.67 1.5 1.5 1.5 1.5-.67 1.5-1.5-.67-1.5-1.5-1.5zm3.15-11.29c0-.44.53-.66.85-.35l2.15 2.13c.2.2.2.51 0 .71l-1.8 1.8 1.79 1.77c.19.2.2.51 0 .71l-2.14 2.15c-.31.32-.85.1-.85-.35v-3.09l-1.95 1.95c-.19.2-.51.2-.7 0l-.0623437-.07970703c-.1246875-.19591797-.1039063-.45404297.0623437-.62029297l2.44-2.44-2.44-2.45c-.19-.19-.19-.51 0-.7s.51-.19.7 0l1.95 1.94zm1 5.49v1.88l.94-.94zm0-4.29v1.88l.94-.94z" fill="#3f3f3f" fill-rule="evenodd"/></svg>