<svg height="24" viewBox="0 0 24 24" width="24" xmlns="http://www.w3.org/2000/svg"><path d="m15.98 10.28-1.38 1.38c-.2.2-.2.51 0 .71l1.38 1.38c.28.28.75.15.85-.23.11-.5.17-1 .17-1.52 0-.51-.06-1.01-.18-1.48-.09-.38-.56-.52-.84-.24zm4.12-2.5c-.25-.55-.98-.67-1.4-.24-.26.26-.31.64-.17.98.46 1.07.72 2.24.72 3.47 0 1.24-.26 2.42-.73 3.49-.14.32-.09.69.16.94.41.41 1.1.29 1.35-.23.63-1.3.98-2.76.98-4.3-.01-1.45-.33-2.85-.91-4.11zm-8.69 4.22 3.59-3.58c.39-.39.39-1.02 0-1.42l-4.29-4.29c-.63-.63-1.71-.19-1.71.7v6.18l-3.89-3.89c-.39-.39-1.02-.39-1.41 0s-.39 1.02 0 1.41l4.89 4.89-4.89 4.89c-.39.39-.39 1.02 0 1.41s1.02.39 1.41 0l3.89-3.89v6.18c0 .89 1.08 1.34 1.71.71l4.29-4.3c.39-.39.39-1.02 0-1.42zm-.41-6.17 1.88 1.88-1.88 1.88zm0 12.34v-3.76l1.88 1.88z" fill="#3f3f3f" fill-rule="evenodd"/></svg>