<svg height="24" viewBox="0 0 24 24" width="24" xmlns="http://www.w3.org/2000/svg"><path d="m20 5v-1c0-.55-.45-1-1-1h-2c-.55 0-1 .45-1 1v1c-.55 0-1 .45-1 1v3c0 .55.45 1 1 1h1v6.91c0 1.04-.76 1.98-1.79 2.08-1.2.12-2.21-.82-2.21-1.99v-9.86c0-2.13-1.61-3.99-3.74-4.13-2.33-.15-4.26 1.69-4.26 3.99v7h-1c-.55 0-1 .45-1 1v3c0 .55.45 1 1 1v1c0 .55.45 1 1 1h2c.55 0 1-.45 1-1v-1c.55 0 1-.45 1-1v-3c0-.55-.45-1-1-1h-1v-6.91c0-1.04.76-1.98 1.79-2.08 1.2-.12 2.21.82 2.21 1.99v9.86c0 2.13 1.61 3.99 3.74 4.13 2.33.15 4.26-1.69 4.26-3.99v-7h1c.55 0 1-.45 1-1v-3c0-.55-.45-1-1-1z" fill="#3f3f3f" fill-rule="evenodd"/></svg>