<svg height="24" viewBox="0 0 24 24" width="24" xmlns="http://www.w3.org/2000/svg"><path d="m1.14 13.01c.47 0 .89.32.97.78.78 4.35 4.39 7.73 8.84 8.17v-1.74c0-.44.53-.67.85-.35l3.02 3c.29.29.13.76-.26.85-6.34 1.4-13.16-2.61-14.4-9.53-.11-.61.36-1.18.98-1.18zm12.86-7.01 1 1h1c1.1 0 2 .9 2 2v6c0 1.1-.9 2-2 2h-8c-1.1 0-2-.9-2-2v-6c0-1.1.9-2 2-2h1l1-1zm-2 4c-1.1 0-2 .9-2 2s.9 2 2 2 2-.9 2-2-.9-2-2-2zm-2.55-9.72c6.34-1.4 13.16 2.61 14.39 9.53.11.61-.36 1.18-.98 1.18-.47 0-.89-.32-.97-.78-.78-4.35-4.39-7.73-8.84-8.17v1.74c0 .44-.53.66-.85.35l-3.01-3.01c-.29-.28-.14-.76.26-.84z" fill="#3f3f3f" fill-rule="evenodd"/></svg>