<svg height="24" viewBox="0 0 24 24" width="24" xmlns="http://www.w3.org/2000/svg"><path d="m4 7c.55 0 1 .45 1 1v5c0 .55-.45 1-1 1-.55 0-1-.45-1-1v-5c0-.55.45-1 1-1zm-3 3c.55 0 1 .45 1 1v5c0 .55-.45 1-1 1-.55 0-1-.45-1-1v-5c0-.55.45-1 1-1zm22-3c.55 0 1 .45 1 1v5c0 .55-.45 1-1 1-.55 0-1-.45-1-1v-5c0-.55.45-1 1-1zm-3 3c.55 0 1 .45 1 1v5c0 .55-.45 1-1 1-.55 0-1-.45-1-1v-5c0-.55.45-1 1-1zm-4-7.99-8-.01c-1.1 0-2 .9-2 2v16c0 1.1.9 2 2 2h8c1.1 0 2-.9 2-2v-16c0-1.1-.9-1.99-2-1.99zm0 14.99h-8v-10h8z" fill="#3f3f3f" fill-rule="evenodd"/></svg>