<svg height="24" viewBox="0 0 24 24" width="24" xmlns="http://www.w3.org/2000/svg"><path d="m2.19404188 3.42692308c.39146108-.30461539.95595812-.27692308 1.31595812.08307692l16.97 16.98c.39.39.39 1.02 0 1.41l-.0940419.0830769c-.3914611.3046154-.9559581.2769231-1.3159581-.0830769l-3.07-3.07v1.17c0 1.1-.9 2-2 2h-4c-1.1 0-2-.9-2-2v-9.18l-5.9-5.9c-.39-.39-.39-1.02 0-1.41zm15.80595812 3.57307692v1l-2 3v2.17l-6.17-6.17zm-2-5c1.1 0 2 .9 2 2v1h-10.17l-1.7-1.7c.29-.76 1.01-1.3 1.87-1.3z" fill="#3f3f3f" fill-rule="evenodd"/></svg>