<svg height="24" viewBox="0 0 24 24" width="24" xmlns="http://www.w3.org/2000/svg"><path d="m12 19 .116199.0067602c.4957908.0580357.883801.4825255.883801.9932398v1c0 .55-.44 1-1 1l-.116199-.0067602c-.4957908-.0580357-.883801-.4825255-.883801-.9932398v-1c0-.55.45-1 1-1zm6.0840419-2.0830769c.3914611-.3046154.9559581-.2769231 1.3159581.0830769l.39.38c.39.39.39 1.02 0 1.41l-.01.01c-.39.39-1.02.39-1.41 0l-.38-.39c-.39-.38-.39-1.01 0-1.41zm-13.4940419.0730769c.39-.39 1.02-.39 1.41 0l.08307692.0940419c.30461539.3914611.27692308.9559581-.08307692 1.3159581l-.38.39c-.39.4-1.03.4-1.42 0l-.08307692-.0940419c-.30461539-.3914611-.27692308-.9559581.08307692-1.3159581zm12.41-7.99c1.1 0 2 .9 2 2v2c0 1.1-.9 2-2 2h-10c-1.1 0-2-.9-2-2v-2c0-1.1.9-2 2-2zm-12.70595812-3.77307692c.39146108-.30461539.95595812-.27692308 1.31595812.08307692l.39.38c.38.38.38 1.02 0 1.41l-.09404188.08307692c-.39146108.30461539-.95595812.27692308-1.31595812-.08307692l-.39-.38c-.39-.39-.39-1.02 0-1.41zm14.08595812.07307692c.39-.39 1.02-.39 1.41 0l.0830769.09420574c.3046154.39271734.2769231.96502503-.0830769 1.31579426l-.38.38c-.39.39-1.02.39-1.41 0l-.0830769-.09404188c-.3046154-.39146108-.2769231-.95595812.0830769-1.31595812zm-6.38-3.3.116199.0067602c.4957908.05803572.883801.48252551.883801.9932398v1c0 .55-.45 1-1 1l-.116199-.0067602c-.4957908-.05803572-.883801-.48252551-.883801-.9932398v-1c0-.55.44-1 1-1z" fill="#3f3f3f" fill-rule="evenodd"/></svg>