<svg height="24" viewBox="0 0 24 24" width="24" xmlns="http://www.w3.org/2000/svg"><path d="m18.7 4.51-6-2.25c-.45-.17-.95-.17-1.4 0l-6 2.25c-.78.3-1.3 1.04-1.3 1.88v4.7c0 4.94 3.27 9.57 7.71 10.83.19.05.39.05.57 0 4.45-1.26 7.72-5.89 7.72-10.83v-4.7c0-.84-.52-1.58-1.3-1.88zm-3.9 10.28c-.39.39-1.02.39-1.41.01l-1.39-1.38-1.39 1.38c-.39.39-1.02.39-1.41 0-.39-.39-.39-1.02 0-1.41l1.39-1.39-1.39-1.39c-.39-.39-.39-1.02 0-1.41s1.02-.39 1.41 0l1.39 1.39 1.39-1.39c.39-.39 1.02-.39 1.41 0 .39.39.39 1.02 0 1.41l-1.38 1.39 1.38 1.38c.39.39.39 1.02 0 1.41z" fill="#3f3f3f" fill-rule="evenodd"/></svg>