<svg height="24" viewBox="0 0 24 24" width="24" xmlns="http://www.w3.org/2000/svg"><path d="m22 6c0-.55-.45-1-1-1h-2v-2c0-.55-.45-1-1-1-.55 0-1 .45-1 1v2h-4v-2c0-.55-.45-1-1-1-.55 0-1 .45-1 1v2h-4v-2c0-.55-.45-1-1-1-.55 0-1 .45-1 1v2h-2c-.55 0-1 .45-1 1 0 .55.45 1 1 1h2v4h-2c-.55 0-1 .45-1 1 0 .55.45 1 1 1h2v4h-2c-.55 0-1 .45-1 1 0 .55.45 1 1 1h2v2c0 .55.45 1 1 1 .55 0 1-.45 1-1v-2h4v2c0 .55.45 1 1 1 .55 0 1-.45 1-1v-2h4v2c0 .55.45 1 1 1 .55 0 1-.45 1-1v-2h2c.55 0 1-.45 1-1 0-.55-.45-1-1-1h-2v-4h2c.55 0 1-.45 1-1 0-.55-.45-1-1-1h-2v-4h2c.55 0 1-.45 1-1zm-15 1h4v4h-4zm0 10v-4h4v4zm10 0h-4v-4h4zm0-6h-4v-4h4z" fill="#3f3f3f" fill-rule="evenodd"/></svg>