<svg height="24" viewBox="0 0 24 24" width="24" xmlns="http://www.w3.org/2000/svg"><path d="m18 18.5v-1c0-.83-.67-1.5-1.5-1.5h-2.5c-.55 0-1 .45-1 1v4.31c0 .38.31.69.69.69h.11c.38 0 .69-.31.69-.69v-1.31h1.1l.72 1.59c.11.25.36.41.63.41.5 0 .83-.51.64-.97l-.48-1.13c.5-.3.9-.8.9-1.4zm-1.5 0h-2v-1h2zm-13-.5h-2v-1.25c0-.41-.34-.75-.75-.75-.41 0-.75.34-.75.75v4.5c0 .41.34.75.75.75.41 0 .75-.34.75-.75v-1.75h2v1.75c0 .41.34.75.75.75.41 0 .75-.34.75-.75v-4.5c0-.41-.34-.75-.75-.75-.41 0-.75.34-.75.75zm6.5-2h-2.5c-.55 0-1 .45-1 1v4c0 .55.45 1 1 1h2.5c.82 0 1.5-.67 1.5-1.5v-3c0-.83-.68-1.5-1.5-1.5zm0 4.5h-2v-3h2zm13.25-.5h-1.25v1.25c0 .41-.34.75-.75.75-.41 0-.75-.34-.75-.75v-1.25h-1.25c-.41 0-.75-.34-.75-.75 0-.41.34-.75.75-.75h1.25v-1.25c0-.41.34-.75.75-.75.41 0 .75.34.75.75v1.25h1.25c.41 0 .75.34.75.75 0 .41-.34.75-.75.75zm-11.25-16c2.21 0 4 1.79 4 4s-1.79 4-4 4-4-1.79-4-4 1.79-4 4-4m0-2c-3.31 0-6 2.69-6 6s2.69 6 6 6 6-2.69 6-6-2.69-6-6-6z" fill="#3f3f3f" fill-rule="evenodd"/></svg>