<svg height="24" viewBox="0 0 24 24" width="24" xmlns="http://www.w3.org/2000/svg"><path d="m18 18.5v-1c0-.83-.67-1.5-1.5-1.5h-2.5c-.55 0-1 .45-1 1v4.31c0 .38.31.69.69.69h.11c.38 0 .69-.31.69-.69v-1.31h1.1l.72 1.59c.11.25.36.41.63.41.5 0 .83-.51.64-.97l-.48-1.13c.5-.3.9-.8.9-1.4zm-1.5 0h-2v-1h2zm-13-.5h-2v-1.25c0-.41-.34-.75-.75-.75-.41 0-.75.34-.75.75v4.5c0 .41.34.75.75.75.41 0 .75-.34.75-.75v-1.75h2v1.75c0 .41.34.75.75.75.41 0 .75-.34.75-.75v-4.5c0-.41-.34-.75-.75-.75-.41 0-.75.34-.75.75zm6.5-2h-2.5c-.55 0-1 .45-1 1v4c0 .55.45 1 1 1h2.5c.82 0 1.5-.67 1.5-1.5v-3c0-.83-.68-1.5-1.5-1.5zm0 4.5h-2v-3h2zm13.25-.5h-1.25v1.25c0 .41-.34.75-.75.75-.41 0-.75-.34-.75-.75v-1.25h-1.25c-.41 0-.75-.34-.75-.75 0-.41.34-.75.75-.75h1.25v-1.25c0-.41.34-.75.75-.75.41 0 .75.34.75.75v1.25h1.25c.41 0 .75.34.75.75 0 .41-.34.75-.75.75zm-12.27-15.85-1.56-1.56c5.1-2.42 10.41 2.89 7.99 7.99l-1.56-1.56c.81-2.96-1.91-5.68-4.87-4.87zm-5.35-1.1c-.39.39-.39 1.02 0 1.41l.96.96c-2.42 5.1 2.88 10.41 7.99 7.99l.95.95c.39.39 1.02.39 1.41 0 .39-.39.39-1.02 0-1.41l-9.9-9.91c-.38-.38-1.02-.38-1.41.01zm2.52 3.93 4.87 4.87c-2.96.81-5.68-1.91-4.87-4.87z" fill="#3f3f3f" fill-rule="evenodd"/></svg>