<svg height="24" viewBox="0 0 24 24" width="24" xmlns="http://www.w3.org/2000/svg"><path d="m10 16c.83 0 1.5.67 1.5 1.5v3c0 .83-.67 1.5-1.5 1.5h-2.75c-.41 0-.75-.34-.75-.75v-4.5c0-.41.34-.75.75-.75zm-5.75 0c.41 0 .75.34.75.75v4.5c0 .41-.34.75-.75.75s-.75-.34-.75-.75v-1.75h-2v1.75c0 .41-.34.75-.75.75s-.75-.34-.75-.75v-4.5c0-.41.34-.75.75-.75s.75.34.75.75v1.25h2v-1.25c0-.41.34-.75.75-.75zm17 .5c.41 0 .75.34.75.75v1.25h1.25c.41 0 .75.34.75.75s-.34.75-.75.75h-1.25v1.25c0 .41-.34.75-.75.75s-.75-.34-.75-.75v-1.25h-1.25c-.41 0-.75-.34-.75-.75s.34-.75.75-.75h1.25v-1.25c0-.41.34-.75.75-.75zm-4.75-.5c.83 0 1.5.67 1.5 1.5v1c0 .6-.4 1.1-.9 1.4l.48 1.13c.19.46-.14.97-.64.97-.27 0-.52-.16-.63-.41l-.72-1.59h-1.1v1.31c0 .38-.31.69-.69.69h-.11c-.38 0-.69-.31-.69-.69v-4.56c0-.41.34-.75.75-.75zm-6.5 1.5h-2v3h2zm6.5 0h-2v1h2zm-4.5-15.5c3.31 0 6 2.69 6 6s-2.69 6-6 6-6-2.69-6-6 2.69-6 6-6zm0 2c-.38 0-.71.23-.85.59l-2.12 5.65c-.14.37.14.76.53.76.24 0 .45-.15.53-.38l.5-1.41h2.83l.49 1.41c.08.23.29.38.53.38.4 0 .67-.39.53-.76l-2.12-5.65c-.14-.36-.47-.59-.85-.59zm.03 1.3 1.02 2.89h-2.1l1.02-2.89z" fill="#3f3f3f" fill-rule="evenodd"/></svg>