<svg height="24" viewBox="0 0 24 24" width="24" xmlns="http://www.w3.org/2000/svg"><path d="m12 2c5.52 0 10 4.48 10 10s-4.48 10-10 10-10-4.48-10-10 4.48-10 10-10zm0 4-.1369367.00648157c-.541229.0515066-.9992171.40582612-1.1930633.91351843l-3.34 8.88c-.22.58.21 1.2.83 1.2l.10991-.00707c.32589-.04203.61209-.26793.72009-.58293l.79-2.22h4.44l.78 2.22c.12.35.46.59.84.59l.1073458-.0063016c.5609933-.0665012.929713-.647816.7226542-1.1936984l-3.34-8.88c-.21-.55-.74-.92-1.33-.92zm.04 2.04 1.6 4.55h-3.29l1.6-4.55z" fill="#3f3f3f" fill-rule="evenodd"/></svg>