<svg height="24" viewBox="0 0 24 24" width="24" xmlns="http://www.w3.org/2000/svg"><path d="m12 7c-2.76 0-5 2.24-5 5s2.24 5 5 5 5-2.24 5-5-2.24-5-5-5zm-10 6h2c.55 0 1-.45 1-1s-.45-1-1-1h-2c-.55 0-1 .45-1 1s.45 1 1 1zm18 0h2c.55 0 1-.45 1-1s-.45-1-1-1h-2c-.55 0-1 .45-1 1s.45 1 1 1zm-9-11v2c0 .55.45 1 1 1s1-.45 1-1v-2c0-.55-.45-1-1-1s-1 .45-1 1zm0 18v2c0 .55.45 1 1 1s1-.45 1-1v-2c0-.55-.45-1-1-1s-1 .45-1 1zm-5.01-15.42c-.39-.39-1.03-.39-1.41 0-.39.39-.39 1.03 0 1.41l1.06 1.06c.39.39 1.03.39 1.41 0s.39-1.03 0-1.41zm12.37 12.37c-.39-.39-1.03-.39-1.41 0-.39.39-.39 1.03 0 1.41l1.06 1.06c.39.39 1.03.39 1.41 0 .39-.39.39-1.03 0-1.41zm1.06-10.96c.39-.39.39-1.03 0-1.41-.39-.39-1.03-.39-1.41 0l-1.06 1.06c-.39.39-.39 1.03 0 1.41s1.03.39 1.41 0zm-12.37 12.37c.39-.39.39-1.03 0-1.41-.39-.39-1.03-.39-1.41 0l-1.06 1.06c-.39.39-.39 1.03 0 1.41s1.03.39 1.41 0z" fill="#3f3f3f" fill-rule="evenodd"/></svg>