<svg height="24" viewBox="0 0 24 24" width="24" xmlns="http://www.w3.org/2000/svg"><path d="m3 14h2c.55 0 1 .45 1 1 0 .55-.45 1-1 1h-3c-.55 0-1-.45-1-1v-6c0-.55.45-1 1-1 .55 0 1 .45 1 1zm3-4h1v5c0 .55.45 1 1 1 .55 0 1-.45 1-1v-5h1c.55 0 1-.45 1-1 0-.55-.45-1-1-1h-4c-.55 0-1 .45-1 1 0 .55.45 1 1 1zm7 6h3c.55 0 1-.45 1-1 0-.55-.45-1-1-1h-2v-1h2c.55 0 1-.45 1-1 0-.55-.45-1-1-1h-2v-1h2c.55 0 1-.45 1-1 0-.55-.45-1-1-1h-3c-.55 0-1 .45-1 1v6c0 .55.45 1 1 1zm10-5h-1v-1c0-.55-.45-1-1-1-.55 0-1 .45-1 1v1h-1c-.55 0-1 .45-1 1 0 .55.45 1 1 1h1v1c0 .55.45 1 1 1 .55 0 1-.45 1-1v-1h1c.55 0 1-.45 1-1 0-.55-.45-1-1-1z" fill="#3f3f3f" fill-rule="evenodd"/></svg>