<svg height="24" viewBox="0 0 24 24" width="24" xmlns="http://www.w3.org/2000/svg"><path d="m9 6.17v-1.17c0-1.1.9-2 2-2h2c1.1 0 2 .9 2 2 0 1.1-.9 2-2 2h-2v1.17zm10.42 8.83 2.18 2.17c.22.22.22.58 0 .8-.22.22-.58.22-.8 0l-5.98-5.98c-.22-.22-.22-.58 0-.8.22-.22.58-.22.8 0l2.35 2.35v-3.93c0-.45.54-.67.85-.35l2.82 2.82c.2.2.2.51 0 .71zm-.25-1.45 1.13-1.13-1.13-1.13zm1.32 6.94c.39.39.39 1.02 0 1.41-.39.39-1.02.39-1.41 0l-3.28-3.28-.16.16c-.23.23-.62.23-.85 0-.23-.23-.23-.62 0-.85l.16-.16-3.95-3.94v3.02c0 2.07-1.68 4.01-3.74 4.14-2.32.14-4.26-1.7-4.26-3.99 0-2.21 1.79-4 4.01-4 .73 0 1.41.21 2 .55v-1.72l-6.91-6.91c-.39-.39-.39-1.02 0-1.41.39-.39 1.02-.39 1.41 0z" fill="#3f3f3f" fill-rule="evenodd"/></svg>