<svg height="24" viewBox="0 0 24 24" width="24" xmlns="http://www.w3.org/2000/svg"><path d="m9 5 .01 8.55c-.6-.34-1.28-.55-2-.55-2.22 0-4.01 1.79-4.01 4s1.79 4 4.01 4 3.99-1.79 3.99-4v-10h2c1.1 0 2-.9 2-2 0-1.1-.9-2-2-2h-2c-1.1 0-2 .9-2 2zm11.29 6.72-2.47-2.47c-.32-.31-.85-.09-.85.35v3.94l-2.33-2.33c-.23-.23-.61-.23-.85 0-.23.23-.23.62 0 .85l2.94 2.94-2.93 2.93c-.23.23-.23.61 0 .85.23.23.61.23.85 0l2.33-2.33v3.94c0 .45.54.67.85.35l2.46-2.46c.39-.39.39-1.02 0-1.41l-1.87-1.87 1.87-1.86c.39-.39.39-1.03 0-1.42zm-2.12-.42 1.13 1.13-1.13 1.13zm1.13 6.27-1.13 1.13v-2.26z" fill="#3f3f3f" fill-rule="evenodd"/></svg>