<svg height="24" viewBox="0 0 24 24" width="24" xmlns="http://www.w3.org/2000/svg"><path d="m17 6c1.1 0 2 .9 2 2v11c0 1.1-.9 2-2 2h-10c-1.1 0-2-.9-2-2v-11c0-1.1.9-2 2-2zm-5 3.5-.1447059.00685121c-.7617993.07252595-1.3552941.71197229-1.3552941 1.49314879v1h-1c-.83 0-1.5.67-1.5 1.5l.00685121.1447059c.07252595.7617993.71197232 1.3552941 1.49314879 1.3552941h1v1c0 .83.67 1.5 1.5 1.5l.1447059-.0068512c.7617993-.072526 1.3552941-.7119723 1.3552941-1.4931488v-1h1c.83 0 1.5-.67 1.5-1.5l-.0068512-.1447059c-.072526-.7617993-.7119723-1.3552941-1.4931488-1.3552941h-1v-1c0-.83-.67-1.5-1.5-1.5zm5-6.5c.55 0 1 .45 1 1l-.0067602.11619898c-.0580357.49579082-.4825255.88380102-.9932398.88380102h-10c-.55 0-1-.45-1-1l.0067602-.11619898c.05803572-.49579082.48252551-.88380102.9932398-.88380102z" fill="#3f3f3f" fill-rule="evenodd"/></svg>