<svg height="24" viewBox="0 0 24 24" width="24" xmlns="http://www.w3.org/2000/svg"><path d="m2.19404188 3.42692308c.39146108-.30461539.95595812-.27692308 1.31595812.08307692l16.98 16.96c.39.39.39 1.02 0 1.41l-.0940419.0830769c-.3914611.3046154-.9559581.2769231-1.3159581-.0830769l-9.07-9.07v4.18h1.79c.44 0 .67.53.35.85l-2.79 2.79c-.2.19-.51.19-.71 0l-2.79-2.78c-.32-.31-.1-.85.35-.85h1.79v-6.18l-5.9-5.9c-.39-.39-.39-1.02 0-1.41zm12.44595812-.06692308c.2-.2.51-.2.71 0l2.79 2.79c.32.31.1.85-.35.85h-1.79v6.17l-2-2v-4.17h-1.79c-.45 0-.67-.54-.36-.85z" fill="#3f3f3f" fill-rule="evenodd"/></svg>