<svg height="24" viewBox="0 0 24 24" width="24" xmlns="http://www.w3.org/2000/svg"><path d="m19 3c1.1 0 2 .9 2 2v14c0 1.1-.9 2-2 2h-14c-1.1 0-2-.9-2-2v-14c0-1.1.9-2 2-2zm-7 3c-1.66 0-3 1.34-3 3s1.34 3 3 3 3-1.34 3-3-1.34-3-3-3zm-1.5 2.5c.2761424 0 .5.22385763.5.5s-.2238576.5-.5.5-.5-.22385763-.5-.5.2238576-.5.5-.5zm3 0c.2761424 0 .5.22385763.5.5s-.2238576.5-.5.5-.5-.22385763-.5-.5.2238576-.5.5-.5zm-1.5 0c.2761424 0 .5.22385763.5.5s-.2238576.5-.5.5-.5-.22385763-.5-.5.2238576-.5.5-.5z" fill="#3f3f3f" fill-rule="evenodd"/></svg>