<svg height="24" viewBox="0 0 24 24" width="24" xmlns="http://www.w3.org/2000/svg"><path d="m21.41 13.42-2.58 2.58-1.81-1.81 2.18-2.19-7.2-7.2-2.19 2.19-1.81-1.82 2.58-2.58c.78-.78 2.05-.78 2.83 0l8 8c.79.78.79 2.04 0 2.83zm-.93 8.48c-.39.39-1.02.39-1.41 0l-3.07-3.07-2.58 2.58c-.78.78-2.05.78-2.83 0l-8-8c-.78-.78-.78-2.05 0-2.83l2.58-2.58-3.07-3.07c-.39-.39-.39-1.02 0-1.41.39-.39 1.02-.39 1.41 0l16.98 16.97c.38.38.38 1.02-.01 1.41zm-6.29-4.88-1.39-1.39-.09.09c-.39.39-1.02.39-1.42 0l-3.01-3.01c-.39-.39-.39-1.02 0-1.41l.09-.09-1.4-1.39-2.17 2.18 7.2 7.2zm1.52-5.73-3.01-3.01c-.39-.39-1.02-.39-1.41 0l-.09.1 4.42 4.42.09-.09c.39-.39.39-1.03 0-1.42z" fill="#3f3f3f" fill-rule="evenodd"/></svg>