<svg height="24" viewBox="0 0 24 24" width="24" xmlns="http://www.w3.org/2000/svg"><path d="m10.59 2.59c.78-.79 2.05-.79 2.83 0l4.58 4.58v3.62l-6-6-7.21 7.21 7.21 7.2 6-6v3.62l-4.58 4.6c-.78.78-2.05.78-2.83 0l-8.01-8c-.78-.78-.78-2.05 0-2.83zm10.41 17.41c.5522847 0 1 .4477153 1 1s-.4477153 1-1 1-1-.4477153-1-1 .4477153-1 1-1zm0-10 .116199.0067602c.4957908.0580357.883801.4825255.883801.9932398v6c0 .55-.45 1-1 1l-.116199-.0067602c-.4957908-.0580357-.883801-.4825255-.883801-.9932398v-6c0-.55.45-1 1-1zm-9.71-1.72c.39-.39 1.03-.39 1.41 0l3.01 3.01c.39.39.39 1.02 0 1.41l-3.01 3.01c-.39.39-1.02.39-1.41 0l-3.01-3.01c-.39-.39-.39-1.02 0-1.41z" fill="#3f3f3f" fill-rule="evenodd"/></svg>