<svg height="24" viewBox="0 0 24 24" width="24" xmlns="http://www.w3.org/2000/svg"><path d="m19 3h-4.18c-.42-1.16-1.52-2-2.82-2s-2.4.84-2.82 2h-4.18c-1.1 0-2 .9-2 2v14c0 1.1.9 2 2 2h14c1.1 0 2-.9 2-2v-14c0-1.1-.9-2-2-2zm-7-.25c.41 0 .75.34.75.75s-.34.75-.75.75-.75-.34-.75-.75.34-.75.75-.75zm-3.1 14.25h-1.4c-.28 0-.5-.22-.5-.5v-1.43c0-.13.05-.26.15-.35l5.81-5.81 2.12 2.12-5.83 5.83c-.09.09-.22.14-.35.14zm7.95-7.73-1.06 1.06-2.12-2.12 1.06-1.06c.2-.2.51-.2.71 0l1.41 1.41c.2.2.2.51 0 .71z" fill="#3f3f3f" fill-rule="evenodd"/></svg>