<svg height="24" viewBox="0 0 24 24" width="24" xmlns="http://www.w3.org/2000/svg"><path d="m3 17h18c.55 0 1 .45 1 1 0 .55-.45 1-1 1h-18c-.55 0-1-.45-1-1 0-.55.45-1 1-1zm-.5-4.43c.36.21.82.08 1.03-.28l.47-.82.48.83c.21.36.67.48 1.03.28.36-.21.48-.66.28-1.02l-.49-.84h.95c.41 0 .75-.34.75-.75 0-.41-.34-.75-.75-.75h-.95l.47-.82c.21-.36.09-.82-.27-1.03-.36-.2-.82-.08-1.03.28l-.47.82-.47-.82c-.21-.36-.67-.48-1.03-.28-.36.21-.48.67-.27 1.03l.47.82h-.95c-.41 0-.75.34-.75.75 0 .41.34.75.75.75h.95l-.48.83c-.2.36-.08.82.28 1.02zm8 0c.36.21.82.08 1.03-.28l.47-.82.48.83c.21.36.67.48 1.03.28.36-.21.48-.66.28-1.02l-.48-.83h.95c.41 0 .75-.34.75-.75 0-.41-.34-.75-.75-.75h-.96l.47-.82c.21-.36.08-.82-.27-1.03-.36-.21-.82-.08-1.02.27l-.48.82-.47-.82c-.21-.36-.67-.48-1.02-.27-.36.21-.48.67-.27 1.03l.47.82h-.96c-.41-.01-.75.33-.75.74 0 .41.34.75.75.75h.95l-.48.83c-.2.36-.08.82.28 1.02zm12.5-2.6c0-.41-.34-.75-.75-.75h-.95l.47-.82c.21-.36.08-.82-.27-1.03-.36-.21-.82-.08-1.02.27l-.48.83-.47-.82c-.21-.36-.67-.48-1.02-.27-.36.21-.48.67-.27 1.03l.47.82h-.95c-.42-.01-.76.33-.76.74 0 .41.34.75.75.75h.95l-.48.83c-.21.36-.08.82.28 1.02.36.21.82.08 1.03-.28l.47-.82.48.83c.21.36.67.48 1.03.28.36-.21.48-.66.28-1.02l-.48-.83h.95c.4-.01.74-.35.74-.76z" fill="#3f3f3f" fill-rule="evenodd"/></svg>