<svg height="24" viewBox="0 0 24 24" width="24" xmlns="http://www.w3.org/2000/svg"><path d="m20 4h-16c-1.11 0-1.99.89-1.99 2l-.01 12c0 1.11.89 2 2 2h16c1.11 0 2-.89 2-2v-12c0-1.11-.89-2-2-2zm-9 6h-3v1h3c.55 0 1 .45 1 1v3c0 .55-.45 1-1 1h-1c0 .55-.45 1-1 1-.55 0-1-.45-1-1h-1c-.55 0-1-.45-1-1 0-.55.45-1 1-1h3v-1h-3c-.55 0-1-.45-1-1v-3c0-.55.45-1 1-1h1c0-.55.45-1 1-1 .55 0 1 .45 1 1h1c.55 0 1 .45 1 1 0 .55-.45 1-1 1zm4.65 5.9-1.65-1.65h4l-1.65 1.65c-.19.19-.51.19-.7 0zm-1.65-5.9 1.65-1.65c.2-.2.51-.2.71 0l1.64 1.65z" fill="#3f3f3f" fill-rule="evenodd"/></svg>