<svg height="24" viewBox="0 0 24 24" width="24" xmlns="http://www.w3.org/2000/svg"><path d="m18.88 13.22c.39-.39 1.02-.39 1.42 0l.0830769.0940419c.3046154.3914611.2769231.9559581-.0830769 1.3159581l-5.66 5.66c-.39.39-1.02.39-1.41 0l-2.83-2.83c-.39-.39-.39-1.02 0-1.41l.0940419-.0830769c.3914611-.3046154.9559581-.2769231 1.3159581.0830769l2.12 2.12zm-11.38-10.22c.55 0 1 .45 1 1h1.5c.55 0 1 .45 1 1s-.45 1-1 1h-4v2h4c.55 0 1 .45 1 1v4c0 .55-.45 1-1 1h-1.5c0 .55-.45 1-1 1s-1-.45-1-1h-1.5c-.55 0-1-.45-1-1s.45-1 1-1h4v-2h-4c-.55 0-1-.45-1-1v-4c0-.55.45-1 1-1h1.5c0-.55.45-1 1-1z" fill="#3f3f3f" fill-rule="evenodd"/></svg>