<svg height="24" viewBox="0 0 24 24" width="24" xmlns="http://www.w3.org/2000/svg"><path d="m3 6c.55 0 1 .45 1 1v13h13c.55 0 1 .45 1 1s-.45 1-1 1h-13c-1.1 0-2-.9-2-2v-13c0-.55.45-1 1-1zm17-4c1.1 0 2 .9 2 2v12c0 1.1-.9 2-2 2h-12c-1.1 0-2-.9-2-2v-12c0-1.1.9-2 2-2zm-5.99 10.91c-.58 0-1.05.45-1.05 1.04 0 .58.46 1.05 1.05 1.05s1.03-.47 1.04-1.05c0-.59-.45-1.04-1.04-1.04zm-.02-7.91c-1.12 0-1.97.55-2.48 1.29-.26.37-.08.89.34 1.07l.108546.03784636c.2935528.07758574.6125651-.03006858.781454-.28784636.25-.38.65-.7 1.26-.7 1.35 0 1.62 1.26 1.14 1.94-.45.64-1.22 1.07-1.63 1.8-.16.27-.22.56-.25.84-.04.44.31.82.75.82h.03c.39 0 .7-.29.75-.68.03-.23.08-.35.16-.49.33-.6.93-.88 1.56-1.81.57-.84.36-1.96-.01-2.57-.43-.7-1.28-1.26-2.51-1.26z" fill="#3f3f3f" fill-rule="evenodd"/></svg>