<svg height="24" viewBox="0 0 24 24" width="24" xmlns="http://www.w3.org/2000/svg"><path d="m19.74 18.33c1.41-1.73 2.26-3.93 2.26-6.33 0-5.52-4.48-10-10-10s-10 4.48-10 10 4.48 10 10 10c2.4 0 4.6-.85 6.33-2.26.27-.22.53-.46.78-.71.03-.03.05-.06.07-.08.2-.2.39-.41.56-.62zm-7.74 1.67c-4.41 0-8-3.59-8-8s3.59-8 8-8 8 3.59 8 8c0 1.85-.63 3.54-1.69 4.9l-1.43-1.43c.69-.98 1.1-2.17 1.1-3.46 0-3.31-2.69-6-6-6s-6 2.69-6 6 2.69 6 6 6c1.3 0 2.51-.42 3.49-1.13l1.42 1.42c-1.35 1.07-3.04 1.7-4.89 1.7zm1.92-7.49c.17-.66.02-1.38-.49-1.9l-.02-.02c-.77-.77-2-.78-2.78-.04-.01.01-.03.02-.05.04-.78.78-.78 2.05 0 2.83l.02.02c.52.51 1.25.67 1.91.49l1.51 1.51c-.6.36-1.29.58-2.04.58-2.21 0-4-1.79-4-4s1.79-4 4-4 4 1.79 4 4c0 .73-.21 1.41-.56 2z" fill="#3f3f3f" fill-rule="evenodd"/></svg>