<svg height="24" viewBox="0 0 24 24" width="24" xmlns="http://www.w3.org/2000/svg"><path d="m11.15 2.86c.31-.32.85-.1.85.35v1.79c4.42 0 8 3.58 8 8 0 3.64-2.43 6.7-5.75 7.67-.63.19-1.25-.32-1.25-.97l.0066041-.1163411c.0437265-.3840721.3015777-.724568.6833959-.8336589 2.48-.73 4.31-3.03 4.31-5.75 0-3.31-2.69-6-6-6v1.79c0 .45-.54.67-.86.36l-2.79-2.79c-.2-.2-.2-.51 0-.71zm-5.55 5.34c.36-.48 1.08-.52 1.5-.1l.08102431.09376157c.27328125.35686343.28397569.84957176.00897569 1.21623843-.75 1.01-1.19 2.25-1.19 3.59 0 2.72 1.83 5.02 4.31 5.75.42.12.69.52.69.95l-.0063118.1131386c-.066664.5944393-.650747 1.0356849-1.2436882.8568614-3.32-.97-5.75-4.03-5.75-7.67 0-1.8.6-3.46 1.6-4.8z" fill="#3f3f3f" fill-rule="evenodd"/></svg>