<svg height="24" viewBox="0 0 24 24" width="24" xmlns="http://www.w3.org/2000/svg"><path d="m16.54 9c.48 0 .83.46.69.92l-1.27 4.36c-.12.43-.52.72-.96.72-.44 0-.84-.29-.96-.72l-1.27-4.36c-.14-.46.21-.92.69-.92.32 0 .6.21.69.52l.85 2.91.85-2.91c.09-.31.37-.52.69-.52zm-11.44 3.9.49 1.14c.19.45-.14.96-.63.96-.28 0-.53-.17-.63-.42l-.68-1.58h-1.15v1.31c0 .38-.31.69-.69.69h-.12c-.38 0-.69-.31-.69-.69v-4.31c0-.55.45-1 1-1h2.5c.83 0 1.5.67 1.5 1.5v1c0 .6-.4 1.15-.9 1.4zm-.6-2.4h-2v1h2zm17 2.5h-2v1.25c0 .41-.34.75-.75.75-.41 0-.75-.34-.75-.75v-4.25c0-.55.45-1 1-1h2.5c.83 0 1.5.67 1.5 1.5v1c0 .83-.67 1.5-1.5 1.5zm0-2.5h-2v1h2zm-10-.75c0 .41-.34.75-.75.75h-2.25v.75h2c.55 0 1 .45 1 1v1.75c0 .55-.45 1-1 1h-2.75c-.41 0-.75-.34-.75-.75 0-.41.34-.75.75-.75h2.25v-.75h-2.25c-.41 0-.75-.34-.75-.75v-2c0-.55.45-1 1-1h2.75c.41 0 .75.34.75.75z" fill="#3f3f3f" fill-rule="evenodd"/></svg>