<svg height="24" viewBox="0 0 24 24" width="24" xmlns="http://www.w3.org/2000/svg"><path d="m22 19c.55 0 1 .45 1 1s-.45 1-1 1h-20c-.55 0-1-.45-1-1s.45-1 1-1zm-2-16c1.1 0 2 .9 2 2l-.01 11c0 1.1-.89 2-1.99 2h-16c-1.1 0-2-.9-2-2v-11c0-1.1.9-2 2-2zm-6.03 4.53c-1.52-1.53-4.1-1.35-5.38.52-.76 1.12-.8 2.65-.07 3.79 1.11 1.75 3.3 2.11 4.87 1.11l1.55 1.55c.29.29.77.29 1.06 0s.29-.77 0-1.06l-1.56-1.55c.87-1.36.71-3.18-.47-4.36zm-2.47.47c1.1045695 0 2 .8954305 2 2s-.8954305 2-2 2-2-.8954305-2-2 .8954305-2 2-2z" fill="#3f3f3f" fill-rule="evenodd"/></svg>