<svg height="24" viewBox="0 0 24 24" width="24" xmlns="http://www.w3.org/2000/svg"><path d="m17 1.01-10-.01c-1.1 0-2 .9-2 2v18c0 1.1.9 2 2 2h10c1.1 0 2-.9 2-2v-18c0-1.1-.9-1.99-2-1.99zm0 16.99h-10v-12h10zm-7.5-9.5h1.75c.41 0 .75-.34.75-.75 0-.41-.34-.75-.75-.75h-2.5c-.41 0-.75.34-.75.75v2.5c0 .41.34.75.75.75.41 0 .75-.34.75-.75zm3.25 8.5h2.5c.41 0 .75-.34.75-.75v-2.5c0-.41-.34-.75-.75-.75-.41 0-.75.34-.75.75v1.75h-1.75c-.41 0-.75.34-.75.75 0 .41.34.75.75.75z" fill="#3f3f3f" fill-rule="evenodd"/></svg>