<svg height="24" viewBox="0 0 24 24" width="24" xmlns="http://www.w3.org/2000/svg"><path d="m17 1c1.1 0 2 .9 2 2v3c0 .55-.45 1-1 1l-.116199-.0067602c-.4957908-.05803572-.883801-.48252551-.883801-.9932398h-10v12h10c0-.55.45-1 1-1l.116199.0067602c.4957908.0580357.883801.4825255.883801.9932398v3c0 1.1-.9 2-2 2h-10c-1.1 0-2-.9-2-2v-18c0-1.1.9-1.99 2-1.99zm1 8.21c0-.45.54-.67.86-.35l2.79 2.79c.19.19.19.51-.01.7l-2.79 2.79c-.31.32-.85.1-.85-.35v-1.79h-4c-.55 0-1-.45-1-1l.0067602-.116199c.0580357-.4957908.4825255-.883801.9932398-.883801h4z"/></svg>