<svg height="24" viewBox="0 0 24 24" width="24" xmlns="http://www.w3.org/2000/svg"><path d="m16.3 18.75c.38-.24.89-.16 1.21.16l.082957.093917c.3543763.4555497.2517097 1.1387497-.242957 1.456083-.94.6-2 1.04-3.12 1.3-.62.14-1.21-.35-1.21-.99l.0061632-.1138079c.0448785-.4123727.3313368-.7645254.7438368-.8561921.91-.2 1.76-.56 2.53-1.05zm-6.54-16.48c.62-.15 1.22.34 1.22.98l-.0063542.11151042c-.0462152.40467014-.3403125.75682291-.7436458.84848958-3.55.82-6.2 4-6.2 7.79s2.65 6.97 6.2 7.8c.44.1.75.5.75.96l-.0068896.1181226c-.0681885.5806274-.6318604 1.0025024-1.2131104.8618774-4.43-1.03-7.73-5-7.73-9.74s3.3-8.71 7.73-9.73zm11.03 10.73.1163647.0067773c.5724244.0670899.9948853.6219727.8636353 1.2032227-.26 1.12-.7 2.18-1.3 3.12-.34.54-1.1.61-1.55.16l-.0812472-.0917506c-.2504883-.3199849-.2951164-.7737039-.0587528-1.1282494.48-.76.85-1.62 1.05-2.53.09-.44.51-.74.96-.74zm-8.79-6c2.1 0 4 1.61 4 4.1 0 1.51-1.1 3.27-3.31 5.3-.4.36-.99.36-1.38 0-2.21-2.02-3.31-3.79-3.31-5.3 0-2.49 1.9-4.1 4-4.1zm0 2.86c-.59 0-1.07.48-1.07 1.07s.48 1.07 1.07 1.07 1.07-.48 1.07-1.07-.48-1.07-1.07-1.07zm7.023917-3.43308148c.4555497-.3554963 1.1387497-.26091852 1.456083.24308148.6.95 1.04 2 1.3 3.12.14.62-.35 1.21-.99 1.21l-.1138021-.0061632c-.412309-.0448785-.7636979-.3313368-.8461979-.7438368-.2-.92-.56-1.77-1.05-2.53-.25-.38-.17-.89.15-1.21zm-5.9971397-3.31328327c.0670899-.57242431.6219727-.99488525 1.2032227-.86363525 1.12.26 2.17.7 3.12 1.3.54.34.61 1.09.15 1.53l-.0915177.08351615c-.3184823.25664914-.7639368.29466567-1.1184823.07648385-.76-.48-1.62-.85-2.53-1.05-.44-.09-.74-.51-.74-.96z" fill="#3f3f3f" fill-rule="evenodd"/></svg>