<svg height="24" viewBox="0 0 24 24" width="24" xmlns="http://www.w3.org/2000/svg"><path d="m18.93 8c-2.21-3.82-7.11-5.13-10.93-2.93-1.41.82-2.48 2-3.16 3.37-.1-1.75.1-3.5.59-5.17.18-.64-.29-1.27-.95-1.27h-.01c-.43 0-.83.28-.95.7-1.28 4.31-.87 9.11 1.55 13.3 1.1 1.91 2.88 3.19 4.86 3.72s4.16.31 6.07-.79c1.41-.82 2.48-2 3.16-3.37.1 1.75-.09 3.5-.58 5.18-.18.63.29 1.26.95 1.26.44 0 .83-.28.95-.7 1.27-4.31.87-9.11-1.55-13.3zm-3.93 9.2c-2.87 1.65-6.54.67-8.2-2.2-.11-.2-.21-.4-.3-.6-1.2-2.76-.17-6.06 2.5-7.6 2.86-1.65 6.54-.67 8.2 2.2.11.2.21.4.3.6 1.2 2.76.17 6.06-2.5 7.6zm-3-7.2c1.1 0 2 .9 2 2s-.9 2-2 2-2-.9-2-2 .9-2 2-2m0-2c-2.21 0-4 1.79-4 4s1.79 4 4 4 4-1.79 4-4-1.79-4-4-4z" fill="#3f3f3f" fill-rule="evenodd"/></svg>