<svg height="24" viewBox="0 0 24 24" width="24" xmlns="http://www.w3.org/2000/svg"><path d="m21 12c0 .55-.45 1-1 1h-3v1h2.5c.83 0 1.5.68 1.5 1.5v2c0 .83-.67 1.5-1.5 1.5h-3.5c-.55 0-1-.45-1-1 0-.55.45-1 1-1h3v-1h-2.5c-.82 0-1.5-.68-1.5-1.5v-2c0-.82.68-1.5 1.5-1.5h3.5c.55 0 1 .45 1 1zm-17-5.5c0 .83.67 1.5 1.5 1.5h4.5v2.5h-4.5c-.83 0-1.5.67-1.5 1.5 0 .83.67 1.5 1.5 1.5h4.5v2.5h-4.5c-.83 0-1.5.67-1.5 1.5 0 .83.67 1.5 1.5 1.5h4.5c1.66 0 3-1.34 3-3v-1.9c0-1.16-.94-2.1-2.1-2.1 1.16 0 2.1-.94 2.1-2.1v-1.9c0-1.66-1.34-3-3-3h-4.5c-.83 0-1.5.67-1.5 1.5z" fill="#3f3f3f" fill-rule="evenodd"/></svg>