<svg height="24" viewBox="0 0 24 24" width="24" xmlns="http://www.w3.org/2000/svg"><path d="m13 8v8h-3v-8zm0-3h-3c-1.66 0-3 1.34-3 3v8c0 1.66 1.34 3 3 3h3c1.66 0 3-1.34 3-3v-8c0-1.66-1.34-3-3-3zm-10.5 3h.5v9.5c0 .83.67 1.5 1.5 1.5.83 0 1.5-.67 1.5-1.5v-10.5c0-1.1-.9-2-2-2h-1.5c-.83 0-1.5.67-1.5 1.5 0 .83.67 1.5 1.5 1.5zm16 3c-.83 0-1.5.68-1.5 1.5v2c0 .82.67 1.5 1.5 1.5h2.5v1h-3c-.55 0-1 .45-1 1 0 .55.45 1 1 1h3.5c.83 0 1.5-.67 1.5-1.5v-2c0-.83-.67-1.5-1.5-1.5h-2.5v-1h3c.55 0 1-.45 1-1 0-.55-.45-1-1-1z" fill="#3f3f3f" fill-rule="evenodd"/></svg>