<svg height="24" viewBox="0 0 24 24" width="24" xmlns="http://www.w3.org/2000/svg"><path d="m12 19 .116199.0067602c.4957908.0580357.883801.4825255.883801.9932398v1c0 .55-.45 1-1 1l-.116199-.0067602c-.4957908-.0580357-.883801-.4825255-.883801-.9932398v-1c0-.55.44-1 1-1zm-6.01-1.91c.39-.38 1.03-.38 1.41 0 .39.39.39 1.02 0 1.41l-.71.71c-.39.39-1.02.39-1.41 0s-.39-1.02 0-1.41zm10.61 0c.39-.39 1.02-.39 1.41 0l.71.71c.39.39.39 1.02 0 1.41s-1.02.39-1.41 0l-.71-.71c-.39-.39-.39-1.02 0-1.41zm-3.6-14.09c1.1 0 2 .9 2 2v3.02c1.21.92 2 2.35 2 3.98 0 3.11-2.84 5.56-6.07 4.88-1.94-.4-3.48-2-3.84-3.95-.37-2.01.48-3.83 1.91-4.91v-3.02c0-1.1.9-2 2-2zm-9 8c.55 0 1 .45 1 1s-.45 1-1 1h-1c-.55 0-1-.45-1-1l.0067602-.116199c.05803572-.4957908.48252551-.883801.9932398-.883801zm17 0c.55 0 1 .45 1 1l-.0067602.116199c-.0580357.4957908-.4825255.883801-.9932398.883801h-1c-.55 0-1-.45-1-1l.0067602-.116199c.0580357-.4957908.4825255-.883801.9932398-.883801zm-8-6h-2v2.1c.32-.06.66-.1 1-.1s.68.04 1 .1z" fill="#3f3f3f" fill-rule="evenodd"/></svg>