<svg height="24" viewBox="0 0 24 24" width="24" xmlns="http://www.w3.org/2000/svg"><path d="m8.15 3c.48 0 .89.34.98.8l.75 3.68c.06.33-.04.66-.27.9l-2.5 2.52c1.43 2.5 3.5 4.57 6 6l2.52-2.5c.23-.23.57-.33.9-.26l3.67.73c.46.09.8.5.8.98v4.15c0 .56-.47 1.03-1.03 1-2.89-.17-5.6-1.06-7.97-2.43-2.72-1.58-4.99-3.84-6.57-6.57-1.38-2.37-2.26-5.08-2.43-7.97-.03-.56.44-1.03 1-1.03zm8.34 5.9c.32 0 .63.07.9.21.3.15.34.56.11.79l-.65.65c-.2.2-.51.2-.71 0l-.65-.65c-.23-.23-.19-.64.11-.79.27-.13.57-.21.89-.21zm0-2.9c1.06 0 2.05.33 2.85.89.39.27.44.82.11 1.15l-.07924.06922c-.24966.19008-.59976.21978-.86076.03078-.57-.4-1.27-.64-2.02-.64s-1.45.24-2.02.64c-.29.21-.69.15-.94-.1l-.0692626-.07983159c-.2496131-.33312699-.1715066-.82093764.1792626-1.07016841.81-.56 1.79-.89 2.85-.89zm0-3c1.92 0 3.68.67 5.05 1.8.34.27.36.79.05 1.1l-.01.01c-.27.28-.7.29-1 .05-1.12-.9-2.54-1.45-4.09-1.45s-2.97.54-4.09 1.45c-.3.24-.73.22-1-.05l-.01-.01c-.31-.31-.29-.82.05-1.1 1.38-1.13 3.13-1.8 5.05-1.8z" fill="#3f3f3f" fill-rule="evenodd"/></svg>