<svg height="24" viewBox="0 0 24 24" width="24" xmlns="http://www.w3.org/2000/svg"><path d="m2.11 3.51c-.4.39-.4 1.03-.01 1.42l1.98 1.98c-1.3 1.69-2.08 3.8-2.08 6.09 0 2.36.82 4.53 2.19 6.24.37.47 1.07.5 1.5.08.36-.36.39-.92.08-1.32-1.11-1.37-1.77-3.11-1.77-5 0-1.75.57-3.35 1.51-4.66l1.43 1.43c-.59.93-.94 2.04-.94 3.23 0 1.25.38 2.4 1.03 3.35.34.5 1.08.54 1.51.11.35-.35.37-.88.1-1.29-.4-.63-.64-1.37-.64-2.17 0-.63.15-1.23.41-1.76l1.61 1.61c0 .05-.02.1-.02.15 0 .55.23 1.05.59 1.41s.86.59 1.41.59c.05 0 .1-.01.16-.02l6.91 6.91c.39.39 1.02.39 1.41 0 .39-.39.39-1.02 0-1.41l-16.97-16.97c-.39-.39-1.02-.39-1.4 0zm15.59 11.36c.19-.59.3-1.22.3-1.87 0-3.31-2.69-6-6-6-.65 0-1.28.1-1.87.3l1.71 1.71c.05-.01.11-.01.16-.01 2.21 0 4 1.79 4 4 0 .05 0 .11-.01.16zm-5.7-9.87c4.42 0 8 3.58 8 8 0 1.22-.27 2.37-.77 3.4l1.49 1.49c.81-1.44 1.28-3.11 1.28-4.89 0-5.52-4.48-10-10-10-1.78 0-3.44.46-4.89 1.28l1.48 1.48c1.04-.49 2.19-.76 3.41-.76z" fill="#3f3f3f" fill-rule="evenodd"/></svg>