<svg height="24" viewBox="0 0 24 24" width="24" xmlns="http://www.w3.org/2000/svg"><path d="m18 18c.55 0 1 .45 1 1l-.0067602.116199c-.0580357.4957908-.4825255.883801-.9932398.883801h-12c-.55 0-1-.45-1-1l.0067602-.116199c.05803572-.4957908.48252551-.883801.9932398-.883801zm.01-13.29c.39-.39 1.02-.39 1.41 0l.0852071.09404188c.312426.39146108.2840237.95595812-.0852071 1.31595812l-9.19 9.19c-.39.39-1.02.39-1.41 0l-4.24-4.24c-.39-.39-.39-1.02 0-1.41l.09404188-.08307692c.39146108-.30461539.95595812-.27692308 1.31595812.08307692l3.54 3.54z" fill="#3f3f3f" fill-rule="evenodd"/></svg>